<svg width="210" height="146" viewBox="0 0 210 146" fill="none" xmlns="http://www.w3.org/2000/svg">
<g clip-path="url(#clip0_2021_35687)">
<path d="M89.6542 141.27C89.591 140.027 89.824 136.896 89.824 136.896L93.1136 136.927L92.7209 141.627L90.4816 143.025L89.6542 141.27Z" fill="white"/>
<path d="M89.4216 140.739C89.0773 140.655 89.2197 140.984 89.09 141.504C88.7932 142.693 84.4603 142.708 83.8065 142.813C83.469 142.867 82.9177 144.615 84.5961 144.615C86.0474 144.615 90.6963 144.632 92.2844 144.622C92.6164 144.62 92.9076 144.396 92.989 144.074C93.2797 142.925 93.2088 141.139 92.7659 141.099C92.0969 140.882 90.8562 141.088 89.4216 140.739Z" fill="#3A3D57"/>
<path d="M121.814 138.48C120.826 137.722 118.593 135.515 118.593 135.515L120.748 133.03L124.074 136.376L123.687 138.987L121.814 138.48Z" fill="white"/>
<path d="M121.256 138.313C120.969 138.521 121.312 138.626 121.623 139.061C122.337 140.058 119.54 143.368 119.196 143.933C119.018 144.225 119.992 145.778 121.08 144.5C122.021 143.395 125.047 139.866 126.068 138.65C126.282 138.396 126.3 138.029 126.108 137.758C125.421 136.792 124.015 135.689 123.698 136C123.099 136.369 122.451 137.447 121.256 138.313Z" fill="#3A3D57"/>
<path d="M120.33 137.669C120.33 137.669 109.831 129.017 106.768 122.188C104.798 116.933 104.275 111.015 103.237 106.018C103.237 106.018 98.5592 117.347 96.9815 121.21C95.4038 125.071 94.173 139.122 94.0857 139.952C93.9983 140.783 89.1253 139.471 89.2304 138.902C89.3356 138.334 91.527 122.259 91.8982 119.533C92.2694 116.807 96.4534 97.9816 98.3101 92.7568L100.366 93.2841C100.366 93.2841 110.71 94.7623 110.822 95.5055C110.877 95.8718 110.926 96.2575 110.971 96.6603C110.973 96.6732 110.975 96.6861 110.976 96.6991C111.192 98.6334 111.305 100.949 111.359 103.369C111.516 110.325 111.192 118.139 111.453 120.215C111.824 123.167 121.551 131.984 123.408 134.483C123.779 134.596 122.682 136.193 120.33 137.669Z" fill="#3A3D57"/>
<path d="M105.074 74.9481L107.944 74.84C108.271 73.6112 109.707 70.902 109.783 69.7494C109.867 68.4848 109.743 68.5236 109.743 68.5236L107.609 69.1874L106.605 69.5C106.605 69.5 106.588 70.0165 106.182 70.7922C105.897 71.3343 105.422 72.0034 104.628 72.7114C104.033 73.2412 105.074 74.9481 105.074 74.9481Z" fill="#EFAEA6"/>
<path opacity="0.14" d="M106.615 69.4991C106.615 69.4991 106.536 70.1324 106.129 70.9081C107.609 72.0774 108.905 71.0452 108.601 70.4695C108.41 70.1098 107.619 69.1865 107.619 69.1865L106.615 69.4991Z" fill="#1F1F39"/>
<path d="M108.427 64.7148C107.669 65.4617 105.476 66.2536 106.021 66.7186C106.566 67.1835 104.418 68.2951 104.98 68.8107C106.342 70.06 108.717 70.5578 109.48 70.0373C110.243 69.5167 111.768 67.5435 111.768 67.5435L108.427 64.7148Z" fill="#EFAEA6"/>
<path d="M109.214 66.7274C108.728 66.3999 108.624 66.4924 108.443 66.0769C108.262 65.6614 109.164 65.6942 108.668 65.1029C108.173 64.5116 107.569 63.9319 108.076 63.2196C108.811 62.1888 109.53 63.0653 109.959 63.6255C110.235 63.986 110.947 63.3257 111.594 63.9353C112.102 64.4135 111.775 64.6687 112.209 65.1154C112.47 65.3851 113.428 65.3937 113.578 66.1164C113.855 67.4568 112.499 67.6472 112.601 68.9115C112.721 70.3861 109.423 70.484 109.384 70.0965C109.338 69.6441 110.41 69.1422 110.322 68.7331C110.189 68.1162 109.862 68.4004 109.283 68.4269C108.665 68.4553 108.017 67.9332 108.956 67.6596C109.895 67.386 109.655 67.0239 109.214 66.7274Z" fill="#1F1F39"/>
<path opacity="0.57" d="M101.533 109.739C102.513 107.588 103.235 106.018 103.235 106.018C102.953 104.516 102.748 102.755 102.748 102.755C102.748 102.755 101.726 107.172 101.533 109.739Z" fill="#1F1F39"/>
<path d="M123.926 104.838L121.064 104.986C120.622 105.009 120.291 105.535 120.323 106.161L120.413 107.898C120.414 107.906 120.421 107.912 120.429 107.912L120.962 107.884C120.971 107.884 120.977 107.877 120.976 107.868L120.913 106.645C120.889 106.177 121.136 105.783 121.467 105.766L123.606 105.655C123.936 105.638 124.223 106.004 124.248 106.472L124.311 107.696C124.312 107.704 124.319 107.71 124.327 107.71L124.86 107.682C124.868 107.682 124.875 107.675 124.874 107.666L124.784 105.93C124.752 105.304 124.368 104.815 123.926 104.838Z" fill="#201B2C"/>
<path d="M121.636 101.961C121.63 101.962 121.625 101.968 121.625 101.974C121.546 102.616 121.37 102.448 121.15 103.29C120.928 104.136 120.228 105.319 120.665 105.444C121.103 105.569 121.433 105.057 121.644 104.951C121.856 104.846 121.377 105.348 121.641 105.752C121.904 106.156 123.003 106.376 123.496 106.048C123.989 105.721 124.326 105.067 124.338 104.226C124.351 103.384 123.926 102.247 123.837 101.88C123.753 101.527 121.797 101.927 121.636 101.961Z" fill="#EEADA5"/>
<path d="M121.064 104.98C120.622 105.002 120.291 105.529 120.323 106.155L120.414 107.891C120.414 107.899 120.421 107.906 120.43 107.905L120.962 107.878C120.971 107.877 120.977 107.87 120.977 107.862L120.913 106.638C120.889 106.17 121.137 105.777 121.467 105.759L121.657 104.975C121.66 104.965 121.652 104.956 121.642 104.956L121.064 104.98Z" fill="#201B2C"/>
<path d="M113.787 108.954L114.16 117.015C114.183 117.502 114.596 117.879 115.083 117.856L115.094 117.856L129.495 117.374C131.119 117.299 131.056 116.153 131.034 115.675L130.909 108.046C130.887 107.567 130.251 106.335 128.952 106.413L116.145 106.997L115.664 107.018C114.606 107.067 113.737 107.871 113.787 108.954Z" fill="#54353A"/>
<path d="M113.787 108.955L114.16 117.015C114.183 117.502 114.596 117.879 115.083 117.856C115.089 117.856 115.095 117.852 115.097 117.846C115.239 117.36 115.308 116.602 115.175 115.422C114.852 112.557 115.524 109.262 116.139 107.017C116.142 107.007 116.134 106.998 116.124 106.998L115.664 107.019C114.606 107.067 113.737 107.872 113.787 108.955Z" fill="#775155"/>
<path d="M98.5153 50.9654C98.5216 50.9636 98.6384 49.5948 98.5611 48.4895C98.5019 47.6443 99.6448 46.0711 99.5372 45.7215C99.4034 45.2865 98.7461 45.4678 98.5422 45.5871C98.3383 45.7064 98.5968 44.5495 98.3092 44.1618C97.8968 43.6061 96.2475 43.5882 95.9069 44.1618C95.6046 44.6709 95.6579 45.5847 95.7019 46.4255C95.746 47.2663 95.8621 49.1188 95.9338 50.0511C95.9616 50.4126 98.3572 51.0096 98.5153 50.9654Z" fill="#EEADA5"/>
<path opacity="0.28" d="M111.358 103.368C109.831 102.258 106.564 100.354 105.511 96.7053L110.971 96.6592C110.972 96.6721 110.974 96.6851 110.976 96.698C111.192 98.6323 111.304 100.948 111.358 103.368Z" fill="#1F1F39"/>
<path d="M109.372 72.1639C108.335 71.6076 107.525 72.8584 106.616 72.6896C106.064 72.5872 106.203 72.1007 106.019 71.7725C105.906 71.5705 105.581 71.619 105.141 71.5461C103.985 71.355 98.3052 93.6684 98.3052 93.6684C98.3052 93.6684 101.222 95.3319 103.526 95.8444C105.831 96.3568 109.702 96.4254 109.812 95.6026C109.922 94.7798 111.223 73.8542 111.223 73.8542C111.223 73.8542 110.41 72.7202 109.372 72.1639Z" fill="white"/>
<path d="M124.616 101.619C124.615 101.622 124.613 101.624 124.611 101.627C124.188 101.932 122.24 101.953 120.993 101.931C120.986 101.931 120.98 101.926 120.979 101.918C120.873 100.953 120.888 97.6417 119.993 92.8608C119.118 89.5049 114.433 84.4467 114 84.0415C114 84.0464 113.999 84.052 113.999 84.0585C113.995 84.1062 113.984 84.1653 113.963 84.2348L113.962 84.2396C113.958 84.255 113.953 84.2712 113.948 84.2874L113.947 84.2914L113.946 84.293C113.939 84.3157 113.931 84.3399 113.922 84.365C113.91 84.3973 113.898 84.4321 113.884 84.4685C113.819 84.644 113.728 84.8567 113.622 85.096C113.601 85.1429 113.579 85.1915 113.556 85.2408C113.3 85.8085 112.971 86.5039 112.673 87.2123C112.645 87.281 112.616 87.349 112.588 87.4177C112.546 87.5204 112.505 87.6231 112.465 87.725C112.425 87.8277 112.386 87.9296 112.349 88.0307C112.347 88.0355 112.346 88.0404 112.344 88.0452C112.259 88.2773 112.185 88.6008 112.118 88.9906C112.094 89.1329 112.071 89.2841 112.05 89.4426C111.695 92.015 113.565 97.4573 113.724 98.8959C113.92 100.672 112.08 100.761 111.355 100.189C110.758 99.7175 107.384 98.9679 106.058 97.6279C104.731 96.2879 105.666 93.8078 106.043 92.0748C106.426 90.32 105.191 86.5476 106.956 83.3428C109.165 79.3286 109.124 73.4561 109.561 72.2383C109.561 72.2383 113.985 75.2061 115.738 77.5803C118.378 81.1554 123.402 89.0892 123.751 92.0093C124.125 95.1243 125.215 99.8736 124.616 101.619Z" fill="#6A93CB"/>
<path opacity="0.28" d="M114.001 84.0595L113.95 84.2883L113.949 84.2924L113.948 84.294C113.941 84.3166 113.933 84.3409 113.924 84.3659C113.912 84.3983 113.9 84.4331 113.887 84.4694C113.821 84.6449 113.73 84.8576 113.624 85.097C113.603 85.1439 113.581 85.1924 113.558 85.2417C113.302 85.8094 112.973 86.5049 112.675 87.2132C112.647 87.282 112.619 87.3499 112.59 87.4186C112.548 87.5213 112.507 87.624 112.467 87.7259C112.427 87.8286 112.387 87.9305 112.35 88.0316C112.348 88.0365 112.347 88.0413 112.346 88.0462C112.261 88.2783 112.187 88.6017 112.12 88.9915C111.993 86.7887 111.944 83.3276 112.251 82.4551C112.251 82.4551 113.5 83.3276 114.001 84.0595Z" fill="#1F1F39"/>
<path d="M105.187 71.5809C101.677 67.1986 100.122 63.1232 99.6331 60.6371C99.1444 58.151 99.3373 49.3626 99.3373 48.5359C99.3373 48.0519 95.4112 48.1057 95.4649 48.8855C95.5008 49.4052 95.0616 58.0555 95.6532 61.39C96.1439 64.1558 98.749 73.043 99.5255 74.6744C100.394 76.4991 99.2668 85.1437 98.7013 86.5861C98.1357 88.0285 96.2147 95.1377 97.5201 96.2267C98.7312 97.2371 101.94 97.8638 102.57 97.1387C103.154 96.466 100.707 88.3952 101.544 84.5739C102.382 80.7526 102.36 79.8644 103.706 75.7091" fill="#6A93CB"/>
<path opacity="0.18" d="M106.866 73.0509C106.977 72.9769 108.089 75.156 109.59 75.8736C110.005 76.0722 110.45 76.2095 110.915 76.2353C112.274 76.3107 114.443 76.124 114.443 76.124C114.443 76.124 113.425 75.1086 112.709 74.6291C111.471 75.0216 111.773 74.9414 111.063 74.8642C110.537 74.807 110.04 74.6594 109.579 74.46C108.712 74.0857 107.974 73.5275 107.415 73.0425C107.13 72.7951 107.087 72.4178 106.745 72.4046C106.292 72.3865 106.725 73.1454 106.866 73.0509Z" fill="#1F1F39"/>
<path d="M106.177 72.6058C106.19 72.391 106.341 72.0435 106.795 72.0612C107.136 72.0745 107.164 72.2134 107.449 72.461C108.305 73.2044 109.583 74.1181 111.098 74.2829C112.613 74.4477 116.07 72.4579 118.311 72.9447C120.553 73.4315 121.235 75.4415 124.471 75.9567C127.707 76.4719 131.187 75.1046 132.141 75.2685C133.096 75.4324 133.674 75.6415 133.65 76.0195C133.626 76.3976 133.151 77.0232 132.48 77.2913C131.81 77.5595 125.902 77.9611 124.342 77.7515C121.796 77.4093 119.606 75.1115 117.966 74.966C116.325 74.8205 112.872 75.7607 110.949 75.6538C108.804 75.5345 107.058 73.0366 106.917 73.1312C106.776 73.2258 106.645 73.3175 106.37 73.2483C106.18 73.2008 106.163 72.8206 106.177 72.6058Z" fill="#FFBD6D"/>
<path d="M98.4905 46.3716C98.9544 45.5649 98.6218 45.7929 98.6854 45.3094C98.7303 44.9688 98.903 44.8535 99.277 45.157C99.6334 45.4461 99.5953 45.6433 99.546 45.8472C99.4815 46.1138 99.2905 46.4971 99.2905 46.4971L98.4905 46.3716Z" fill="#EEADA5"/>
<path d="M98.3907 44.3774C98.5341 44.6104 98.487 45.1524 98.487 45.2693C98.487 45.4306 98.5072 45.8295 98.0231 45.9371C97.4747 46.059 96.1407 46.1388 95.9256 45.8833C95.7105 45.6278 95.6433 44.7584 95.7911 44.4626C95.9391 44.1667 98.3907 44.3774 98.3907 44.3774Z" fill="#EEADA5"/>
<path d="M73.7488 28.0085C77.1973 27.4679 77.69 25.9138 78.3299 21.0967C78.7767 25.6672 79.3471 27.4003 82.8533 27.9214C79.7949 29.2248 78.7201 29.6978 78.1747 34.9804C77.4212 29.6302 76.7495 29.1572 73.7488 28.0085Z" fill="#F9F6EE"/>
<path d="M103.753 45.6004C103.753 45.6004 103.086 44.9541 102.804 44.9541C102.521 44.9541 102.246 45.1735 102.787 45.9727C103.329 46.7719 103.753 45.6004 103.753 45.6004Z" fill="#EFAEA6"/>
<path d="M99.0872 7.26313C102.719 4.41489 103.17 9.09145 103.076 12.3263C103.052 13.1316 102.572 13.923 101.809 14.4015C99.413 15.906 94.2524 19.1461 94.2524 19.1461C93.802 18.0238 95.3782 10.2309 99.0872 7.26313ZM129.691 43.8903C129.745 43.8064 129.791 43.7209 129.833 43.6382C129.873 43.5569 129.905 43.4739 129.934 43.3901C130.905 40.5638 125.152 37.9772 121.796 36.0771C121.43 35.8685 121.46 35.358 121.842 35.0742C122.571 34.5292 123.08 33.405 122.987 32.505C122.973 32.367 122.945 32.2339 122.901 32.1083C122.891 32.0771 122.881 32.046 122.866 32.0176C122.852 31.9856 122.837 31.9572 122.823 31.9289C122.779 31.8438 122.732 31.7543 122.681 31.658C122.677 31.6476 122.673 31.6408 122.668 31.6319C122.592 31.4974 122.513 31.3503 122.426 31.1919C122.27 30.914 122.092 30.6061 121.896 30.2689C121.858 30.2024 121.818 30.1336 121.776 30.0626C121.699 29.9354 121.622 29.8024 121.544 29.6671C121.493 29.5862 121.441 29.4995 121.39 29.4127C121.346 29.3372 121.298 29.2609 121.252 29.1831C121.162 29.0298 121.066 28.8713 120.968 28.7104L120.899 28.6004C117.199 22.4984 110.208 11.8011 109.824 11.1308C109.416 10.4163 108.373 10.2796 107.557 10.7914C102.543 13.7395 109.012 -5.54675 99.2694 1.59984C94.6973 5.0934 91.5974 14.7913 91.2896 18.8636C91.1883 20.1732 90.5487 21.4733 89.5038 22.4768C85.6839 26.1462 84.4625 31.5309 86.7585 35.6714C86.8174 35.7753 86.8629 35.8876 86.898 36.0034C86.9294 36.1183 86.9519 36.2388 86.9589 36.3596C86.9743 36.6035 86.9321 36.8555 86.8246 37.0982C86.48 37.8907 85.6645 38.2273 84.4348 38.8867C84.384 38.9155 84.3304 38.9397 84.2767 38.964C84.2425 38.9792 84.206 38.9959 84.1726 39.0075C84.1316 39.027 84.0878 39.042 84.0425 39.0547C83.9066 39.1025 83.7681 39.1362 83.6307 39.1567C83.5863 39.1658 83.5414 39.169 83.4964 39.1722C83.2581 39.1965 83.0231 39.1813 82.801 39.1267C82.752 39.1135 82.7068 39.1013 82.6601 39.0868C82.6586 39.0877 82.6581 39.0869 82.6587 39.0845C82.6156 39.0708 82.5749 39.0557 82.5341 39.0406C82.4795 39.0186 82.4235 38.9942 82.3743 38.9656C82.2387 38.8942 82.1131 38.804 82.0014 38.6958C79.1424 35.9324 74.3867 35.224 70.1901 37.8995C59.4129 46.0903 63.2306 38.1489 55.3117 38.3214C41.785 42.9507 78.4872 88.8523 75.2411 63.1427C75.0548 61.6693 75.8757 60.1145 77.299 59.2052C79.6897 57.6823 81.8351 56.3823 81.8858 56.2785C82.5123 55.8851 83.0828 55.4424 83.5969 54.9599C85.0363 53.6023 86.0118 51.9348 86.4518 50.2121C86.8502 48.6377 86.801 47.0187 86.2427 45.5409C86.2257 45.4889 86.2051 45.4361 86.1822 45.3847C86.1449 45.2954 86.1076 45.2061 86.0681 45.1182C86.0515 45.0818 86.037 45.0438 86.0249 45.0045C86.0141 44.9674 86.0019 44.9281 85.9934 44.8896C85.9764 44.8127 85.9676 44.7337 85.9682 44.655C85.9653 44.5755 85.9741 44.4948 85.9866 44.4149C86.0571 44.0137 86.3113 43.6256 86.6974 43.3581C87.343 42.9153 88.1472 42.426 88.8099 42.0255C88.9304 41.9531 89.0463 41.8834 89.1541 41.8157C89.1878 41.7946 89.2206 41.7771 89.2571 41.7604C89.3228 41.7254 89.3927 41.6972 89.4647 41.6771C89.9157 41.5379 90.387 41.6553 90.6918 41.9711C90.6968 41.9742 90.7033 41.9795 90.7047 41.9818C93.3665 46.2214 99.0522 47.5981 104.239 45.5876C105.485 45.103 106.812 45.093 107.928 45.5539C111.597 47.0697 121.9 48.5655 127.103 45.9315C127.19 45.8861 127.277 45.8407 127.361 45.7944C128.552 45.1532 129.297 44.5196 129.691 43.8903ZM121.923 43.6358C117.591 45.811 110.436 43.4906 109.122 43.0324C108.782 42.8296 113.487 40.0474 116.137 38.4433C117.291 37.7437 118.681 37.6287 119.765 38.1535C122.6 39.5229 125.76 41.7531 121.923 43.6358Z" fill="#FFBD6D"/>
<g opacity="0.67">
<path d="M89.5153 30.989C89.4856 30.9418 89.4619 30.8899 89.445 30.8337C89.2563 30.204 89.2875 29.4693 89.538 28.6499C89.6659 28.2313 90.1213 27.9429 90.5551 28.0057C90.989 28.0684 91.2369 28.4588 91.109 28.8774C90.945 29.4138 90.9175 29.8716 91.0273 30.2377C91.1442 30.6277 90.8848 31.0773 90.4478 31.2419C90.0739 31.3827 89.6911 31.2691 89.5153 30.989Z" fill="white"/>
<path d="M91.0357 26.6004C90.8855 26.3612 90.9053 26.0312 91.1142 25.7592C91.8041 24.8614 92.5936 24.0883 93.2262 23.6911L103.827 17.0357C104.225 16.7857 104.722 16.8599 104.936 17.2015C105.15 17.5431 105.001 18.0227 104.603 18.2727L94.0028 24.9281C93.6744 25.1343 93.0573 25.679 92.3993 26.5355C92.1188 26.9005 91.6038 27.0227 91.2488 26.8082C91.1584 26.7536 91.0871 26.6823 91.0357 26.6004Z" fill="white"/>
</g>
<path opacity="0.22" d="M129.687 43.89C129.74 43.8061 129.787 43.7206 129.829 43.6379C129.867 43.5543 129.902 43.4699 129.93 43.3897C130.901 40.5635 125.148 37.9769 121.791 36.0768C121.425 35.8681 121.456 35.3577 121.838 35.0739C122.566 34.5288 123.075 33.4047 122.983 32.5047C122.971 32.3653 122.941 32.2335 122.897 32.108C122.886 32.0768 122.876 32.0457 122.862 32.0173C122.848 31.9853 122.835 31.9555 122.821 31.9272C122.777 31.8421 122.73 31.7525 122.677 31.6576C122.673 31.6472 122.669 31.6405 122.663 31.6315C122.59 31.4956 122.511 31.3485 122.422 31.1916C122.266 30.9137 122.088 30.6057 121.892 30.2686C121.853 30.2021 121.813 30.1333 121.772 30.0623C121.695 29.9351 121.618 29.802 121.539 29.6667C121.488 29.5859 121.437 29.4991 121.386 29.4124C121.342 29.3369 121.294 29.2605 121.248 29.1828C121.158 29.0295 121.062 28.8709 120.964 28.7101C120.941 28.6741 120.921 28.6368 120.897 28.5986L120.895 28.6C111.158 35.1075 96.581 46.1318 86.7542 35.6711C86.8132 35.775 86.8586 35.8873 86.8937 36.003C86.9274 36.1165 86.9499 36.237 86.9546 36.3593C86.97 36.6032 86.9278 36.8551 86.8204 37.0979C86.4757 37.8903 85.6602 38.227 84.4306 38.8864C84.3783 38.9129 84.3261 38.9394 84.2725 38.9637C84.2382 38.9789 84.2017 38.9956 84.1683 39.0072C84.1259 39.0244 84.0835 39.0416 84.0383 39.0544C83.9023 39.1021 83.7639 39.1359 83.6265 39.1564C83.5829 39.1618 83.5371 39.1686 83.4922 39.1719C83.2539 39.1962 83.0189 39.1809 82.7967 39.1263C82.7492 39.1154 82.7025 39.1009 82.6558 39.0864C82.6543 39.0874 82.6539 39.0866 82.6544 39.0842C82.6106 39.0741 82.5684 39.0568 82.5298 39.0403C82.4753 39.0182 82.4193 38.9939 82.37 38.9653C82.3664 38.9645 82.3613 38.9614 82.3577 38.9606C82.9821 40.6034 83.597 41.9518 83.7733 42.2325C84.0679 42.7018 84.7486 43.9056 86.2384 45.5405C86.2214 45.4886 86.2008 45.4358 86.1779 45.3844C86.1429 45.2937 86.1056 45.2044 86.0661 45.1165C86.0494 45.08 86.035 45.0421 86.0206 45.0042C86.0099 44.9671 85.9977 44.9278 85.9892 44.8893C85.9744 44.8109 85.9655 44.732 85.964 44.6547C85.9633 44.5737 85.9698 44.4944 85.9823 44.4146C86.0529 44.0134 86.307 43.6253 86.6932 43.3578C87.3387 42.9149 88.1429 42.4257 88.8057 42.0252C88.9261 41.9527 89.042 41.8831 89.1512 41.8177C89.1849 41.7965 89.2178 41.779 89.2528 41.7601C89.32 41.7274 89.3899 41.6991 89.4604 41.6768C89.9115 41.5376 90.3828 41.655 90.6875 41.9708C90.6926 41.9739 90.699 41.9792 90.7004 41.9814C93.3623 46.221 99.048 47.5978 104.235 45.5872C105.48 45.1027 106.808 45.0927 107.924 45.5536C111.593 47.0694 121.896 48.5652 127.099 45.9312C127.186 45.8858 127.273 45.8403 127.357 45.7941C128.548 45.1528 129.294 44.5156 129.687 43.89ZM121.919 43.6354C117.587 45.8107 110.432 43.4903 109.118 43.0321C108.777 42.8293 113.483 40.0471 116.133 38.443C117.287 37.7434 118.677 37.6284 119.761 38.1531C122.596 39.5225 125.756 41.7527 121.919 43.6354Z" fill="#FFAD49"/>
<path opacity="0.22" d="M54.2011 38.8643C64.054 53.2964 71.67 56.3245 83.6351 54.9213C83.6231 54.9342 83.6093 54.9468 83.5967 54.9587L83.5956 54.9594C83.0827 55.4407 82.5108 55.8846 81.8862 56.2767C81.8353 56.3803 79.6878 57.6822 77.3002 59.2051C75.8758 60.1141 75.0551 61.6694 75.2417 63.1415C78.3869 88.06 44.0104 45.7147 54.2011 38.8643Z" fill="#FFAD49"/>
<path d="M113 15.0391C118.059 14.3321 118.781 12.2996 119.72 6C120.375 11.9772 121.212 14.2438 126.355 14.9252C121.869 16.6297 120.292 17.2483 119.492 24.1567C118.387 17.1599 117.402 16.5413 113 15.0391Z" fill="#F9F6EE"/>
<path d="M65.6868 56.5128C68.0499 56.1424 68.3875 55.0774 68.8261 51.7764C69.1323 54.9084 69.5231 56.0961 71.9258 56.4532C69.83 57.3463 69.0934 57.6704 68.7197 61.2905C68.2034 57.6241 67.743 57.3 65.6868 56.5128Z" fill="#F9F6EE"/>
<path opacity="0.1" d="M9.52612 144.45C9.52612 145.05 54.5597 145.747 106.448 145.747C158.337 145.747 200.401 145.26 200.401 144.66C200.401 144.061 158.337 143.574 106.448 143.574C54.5597 143.574 9.52612 143.85 9.52612 144.45Z" fill="#32323F"/>
<path d="M178.987 78.3149C179.765 76.4002 182.385 75.2767 183.804 75.5229C185.401 75.7998 186.741 77.7571 185.132 77.7396C182.619 77.7124 184.276 78.8115 183.805 79.0811C183.019 79.5305 181.066 78.914 180.747 79.3508C180.548 79.6227 178.987 78.3149 178.987 78.3149Z" fill="#EFAEA6"/>
<path d="M138.829 66.5962C136.952 63.9066 136.985 62.0807 135.982 61.35C134.134 60.0044 132.298 62.3028 133.529 62.9446C134.759 63.5864 135.406 65.6592 135.581 65.8942C136.687 67.3791 138.829 66.5962 138.829 66.5962Z" fill="#EFAEA6"/>
<path d="M159.185 115.269C161.129 118.281 163.045 120.646 165.405 122.189C167.765 123.733 182.369 132.804 182.503 133.36C182.637 133.917 183.275 136.208 183.47 136.751C183.665 137.294 186.231 131.734 185.479 130.994C184.726 130.254 184.881 130.872 183.347 130.196C181.813 129.52 177.357 126.017 176.465 125.244C175.574 124.471 167.558 115.956 166.376 115.308C165.194 114.66 159.185 115.269 159.185 115.269Z" fill="#F5B1B4"/>
<path d="M183.633 129.871C183.475 129.902 183.356 130.035 183.344 130.196C183.283 130.967 183.515 131.565 183.639 131.775C183.876 132.175 184.398 132.714 184.232 134.03C184.066 135.345 183.243 136.134 183.268 136.65C183.293 137.166 182.934 139.582 183.869 139.569C184.758 139.456 185.963 137.263 185.992 136.192C186.021 135.12 186.051 132.363 186.173 132.414C186.535 132.44 186.555 132.267 186.555 132.267C186.572 131.425 186.713 130.302 186.574 130.08C186.436 129.857 185.59 129.585 185.05 129.636C184.671 129.672 184 129.799 183.633 129.871Z" fill="#3A3D57"/>
<path d="M153.935 112.461C153.857 112.975 153.172 115.629 152.32 118.817C152.064 119.775 151.793 120.783 151.519 121.793C150.258 126.445 148.933 131.19 148.709 131.773C148.273 132.906 146.447 138.448 146.333 140.181C146.219 141.916 146.766 141.561 146.313 142.545C145.86 143.529 138.68 141.647 139.139 141.277C139.597 140.907 142.462 140.702 142.956 140.387C143.292 140.173 145.245 128.977 146.673 120.927C146.864 119.846 147.046 118.823 147.214 117.89C147.635 115.539 147.963 113.765 148.117 113.114C148.78 110.282 149.928 111.196 152.28 111.466C152.28 111.466 154.146 111.083 153.935 112.461Z" fill="#F5B1B4"/>
<path d="M146.727 141.474C146.699 141.306 146.566 141.176 146.4 141.155C145.61 141.053 144.989 141.266 144.771 141.385C144.354 141.613 143.786 142.132 142.439 141.894C141.092 141.655 140.225 141.019 139.694 141.02C139.164 141.02 136.861 141.197 136.851 142.174C136.944 143.11 138.959 143.869 140.059 143.953C141.159 144.036 143.677 143.834 143.94 144.053C144.204 144.272 144.294 144.265 144.371 144.474C144.448 144.682 146.205 144.672 146.437 144.538C146.669 144.405 146.971 143.533 146.932 142.966C146.904 142.568 146.792 141.86 146.727 141.474Z" fill="#3A3D57"/>
<path d="M144.998 120.607C148.468 122.949 153.19 120.606 157.396 122.569C158.82 123.233 163.721 122.008 165.773 121.125C166.356 120.872 166.818 120.636 167.076 120.444C168.685 119.252 173.551 120.002 174.783 117.943C165.355 109.179 167.923 100.858 162.308 94.0294C162.306 94.0281 162.304 94.0252 162.303 94.0238L162.303 94.0223C162.291 94.0065 162.278 93.9909 162.264 93.9752C161.479 93.3385 160.676 92.8984 159.873 92.6126C155.073 90.898 150.351 94.6845 150.351 94.6845C150.27 94.8783 150.191 95.1188 150.117 95.3984C148.71 100.646 143.491 119.591 144.998 120.607Z" fill="#6A93CB"/>
<path d="M135.22 65.9796C135.497 66.3272 139.705 74.281 141.158 75.3938C142.313 76.2807 148.494 78.3036 149.346 78.6962C150.401 79.1823 148.623 80.9905 148.794 82.3532C149.046 84.3802 150.608 84.893 150.803 86.5898C150.921 87.616 149.681 93.8812 150.118 95.3978C150.153 95.5207 150.202 95.6123 150.267 95.668C150.78 96.1074 155.285 95.9087 158.647 95.3956C159.102 95.3263 159.536 95.2511 159.936 95.1724C161.533 94.8518 162.592 94.4539 162.309 94.0289C162.307 94.0275 162.305 94.0246 162.304 94.0232L162.304 94.0217C162.292 94.0059 162.279 93.9903 162.265 93.9746C161.33 92.977 160.707 91.5169 160.136 89.8954C160.136 89.8939 160.134 89.8925 160.134 89.891C160.055 89.664 159.977 89.4338 159.899 89.2021C158.754 85.7944 159.077 82.8765 160.764 82.3191C161.965 81.9225 169.736 83.4849 171.104 83.4056C174.415 83.211 180.434 80.1753 180.8 79.9691C181.367 79.6477 179.884 76.5411 179.497 76.6884C178.987 76.8829 174.571 79.4522 170.94 79.9374C168.444 80.2715 164.377 78.7496 162.041 77.696C161.155 77.2969 157.956 75.0134 156.578 74.7588C155.544 74.5679 153.117 75.1692 152.495 75.139C151.874 75.1104 144.531 73.0129 143.548 72.0818C142.384 70.9783 138.636 64.9584 138.288 64.3536C137.941 63.7475 134.941 65.6313 135.22 65.9796Z" fill="white"/>
<path d="M152.974 72.4794C153.359 74.2711 153.266 75.2003 152.976 75.7049C152.689 76.2039 152.571 77.8298 153.138 77.8073C153.419 77.7961 154.87 76.6424 155.472 76.2018C156.075 75.7612 156.434 74.9062 156.434 74.9062C156.434 74.9062 155.138 72.6299 154.247 70.7267C153.355 68.8236 152.974 72.4794 152.974 72.4794Z" fill="#F5B1B4"/>
<path opacity="0.15" d="M153.215 74.1685C153.203 73.9316 153.175 73.6678 153.131 73.3734C153.117 73.2702 152.995 72.5904 152.975 72.4792C153.073 72.3839 153.245 72.2452 153.345 72.2263C153.483 72.2007 153.766 72.2328 153.895 72.0731C154.108 71.8077 154.527 72.5735 154.344 73.0237C154.273 73.1983 153.774 73.8672 153.215 74.1685Z" fill="#1F1F39"/>
<path opacity="0.12" d="M165.77 121.125C166.353 120.872 166.815 120.635 167.073 120.443C168.682 119.252 173.548 120.002 174.78 117.943C165.352 109.178 167.92 100.857 162.305 94.0289C162.303 94.0275 162.301 94.0246 162.3 94.0233L162.3 94.0217C162.288 94.006 162.275 93.9904 162.261 93.9747C161.326 92.9771 160.703 91.517 160.132 89.8955C160.132 89.894 160.13 89.8926 160.13 89.8911C160.032 89.6745 159.953 89.446 159.895 89.2021C159.867 90.197 159.856 91.345 159.87 92.6121C159.88 93.4209 159.899 94.2775 159.932 95.1724C160.225 103.227 161.574 114.331 165.77 121.125Z" fill="#1F1F39"/>
<path d="M151.566 68.5692C151.074 70.0915 150.264 70.766 150.812 70.9199C151.226 71.0363 150.272 74.1804 151.837 73.7992C153.392 73.4204 154.694 72.6328 154.816 70.9525C154.939 69.2721 155.054 68.2891 155.054 68.2891L151.566 68.5692Z" fill="#F5B1B4"/>
<path d="M151.304 68.8719C151.837 69.6371 152.618 69.9564 152.928 70.2454C153.104 70.4092 153.546 70.3234 153.649 70.1071C153.763 69.8654 154.123 69.7955 154.49 69.9769C154.93 70.1949 154.553 70.7272 154.372 71.083C154.238 71.3481 154.328 71.7436 154.512 71.979C155.217 72.8768 154.151 75.3842 160.159 76.0581C161.668 76.2183 163.215 76.1042 164.609 75.8333C167.42 75.2871 169.611 74.1037 169.627 73.2489C169.639 72.6258 168.259 71.7917 167.297 71.5692C166.335 71.3466 166.06 71.9962 165.318 71.7981C164.468 71.5713 165.354 69.5132 162.929 69.6047C160.504 69.6962 160.403 70.2665 159.604 69.9633C158.806 69.6601 157.303 65.4782 154.441 65.8943C152.458 66.1826 151.68 67.1816 151.39 67.7685C151.267 68.0151 151.145 68.6445 151.304 68.8719Z" fill="#1F1F39"/>
<path d="M165.236 60.3903C164.232 56.361 166.321 57.1344 166.052 56.4122C165.805 55.7509 164.407 57.1817 165.08 55.7855C166.024 53.8276 163.725 54.4776 163.198 55.1117C162.645 55.7773 162.652 57.2075 162.998 58.7466C163.264 59.9292 163.054 60.6555 163.054 60.6555L165.236 60.3903Z" fill="#F5B1B4"/>
<path d="M179.7 115.974C180.586 117.942 181.581 119.968 182.41 122.021C184.921 128.239 200.871 124.162 201.648 124.41C203.304 124.939 203.489 125.428 203.88 125.945L205.348 127.612L206.724 124.954L204.768 122.097C204.768 122.097 187.467 121.708 186.65 120.045C186.329 119.393 185.748 117.295 185.162 114.988C184.99 114.31 184.817 113.614 184.65 112.931C183.937 110.017 183.332 107.343 183.332 107.343C183.151 106.903 182.511 102.913 182.579 102.445C182.763 101.2 180.428 95.1068 177.81 96.9132C173.503 99.8849 174.102 103.668 174.102 103.668C174.102 103.668 176.446 108.768 179.251 114.98L179.7 115.974Z" fill="#EFAEA6"/>
<path d="M202.722 121.832C203.227 121.458 204.49 120.733 205.884 121.543C207.236 122.435 208.939 122.569 208.939 122.569L208.86 123.077C208.86 123.077 206.572 122.639 206.075 123.041C206.362 123.878 208.48 127.225 208.299 127.924C208.024 128.986 207.195 130.345 206.85 130.606C206.43 130.924 205.431 131.541 205.494 130.691C205.617 129.037 205.017 127.292 205.017 127.292C205.017 127.292 205.015 127.183 205.116 127.192C205.347 127.214 205.732 127.231 205.684 126.266C205.619 124.988 203.714 122.901 202.725 122.18C202.606 122.093 202.604 121.92 202.722 121.832Z" fill="#6A93CB"/>
<path d="M178.259 98.5935L176.62 99.7349C176.56 99.7768 176.508 99.8298 176.467 99.8912C175.957 100.656 172.998 104.36 171.801 106.163C171.793 106.176 170.626 104.138 169.753 105.258C168.663 106.657 166.384 114.554 166.193 117.318C165.947 120.885 164.952 136.724 164.685 137.668C164.419 138.612 163.849 139.256 162.418 140.045C162.404 140.053 162.389 140.061 162.375 140.067C161.783 140.331 161.99 141.235 162.636 141.206L165.362 141.082C165.424 141.079 165.486 141.066 165.545 141.043L167.087 140.437C167.276 140.363 167.413 140.195 167.45 139.992C167.45 139.992 171.357 118.415 171.714 116.917C172.071 115.419 177.387 105.185 177.387 105.185C177.498 105.047 180.134 106.715 180.309 106.718C180.914 106.726 182.5 106.374 184.107 102.911C184.589 101.87 183.288 100.113 182.859 99.5767C182.777 99.4735 182.662 99.402 182.535 99.373L178.714 98.5045C178.557 98.4687 178.392 98.501 178.259 98.5935Z" fill="#EFAEA6"/>
<path d="M165.633 142.367C165.072 142.369 163.324 142.681 162.014 142.83C161.43 142.897 160.933 142.932 160.667 142.892C160.64 142.888 160.616 142.883 160.594 142.878C159.862 142.696 158.306 142.107 158.102 141.701C157.897 141.294 158.396 140.579 159.216 140.343C159.561 140.244 160.126 140.186 160.666 140.153C161.219 140.117 161.744 140.108 161.979 140.105C162.061 140.105 162.107 140.105 162.107 140.105C162.107 140.105 162.206 140.135 162.168 140.224C162.082 140.426 161.957 140.77 162.84 141.022C164.013 141.358 166.456 140.267 167.382 139.595C167.488 139.518 167.638 139.565 167.681 139.69C167.872 140.253 168.179 141.634 167.038 142.655C165.846 143.604 165.235 145.103 165.235 145.103L164.8 144.876C164.8 144.876 165.852 142.94 165.633 142.367Z" fill="#6A93CB"/>
<path d="M185.815 115.722C185.358 116.768 179.177 116.315 175.652 115.064C172.409 113.914 167.059 114.956 166.368 113.184C165.913 112.015 168.787 103.074 171.916 94.2408C175.982 95.749 182.421 92.4102 182.421 92.4102C182.421 92.4102 182.459 92.4751 182.526 92.5951C182.918 93.2942 184.315 95.8564 185.137 98.2751C185.465 99.242 185.701 100.186 185.745 100.979C185.872 103.283 184.363 107.921 184.559 111.178C184.689 113.324 186.328 114.55 185.815 115.722Z" fill="#3A3D57"/>
<path d="M175.113 74.9316L173.316 75.9245L170.837 85.8266C170.837 85.8266 171.675 91.8866 173.05 94.0083C174.839 96.7699 180.609 93.7415 180.364 93.1076C178.117 87.2922 177.293 74.9321 177.293 74.9321L175.113 74.9316Z" fill="white"/>
<path opacity="0.28" d="M185.133 98.2747C181.747 100.059 177.002 97.6569 177.002 97.6569L181.891 93.1778L182.522 92.5947C182.914 93.2938 184.311 95.856 185.133 98.2747Z" fill="#070716"/>
<path d="M195.899 95.4859C195.797 95.3098 195.741 95.1256 195.73 94.9543C195.721 94.8107 195.746 94.6775 195.803 94.5667C195.836 94.5 195.881 94.4418 195.938 94.3936L196.33 94.0643L196.342 94.0541L196.342 94.0536L196.39 94.0135L197.994 92.6638L198.01 92.6506C198.089 92.5847 198.181 92.5435 198.284 92.5277L198.284 92.5272C198.599 92.4742 198.992 92.6427 199.279 92.9842L199.688 93.4704L200.347 94.2521L199.939 94.5951L199.279 93.8102L199.184 93.6985C198.973 93.4455 198.682 93.3189 198.448 93.3542L198.447 93.3547C198.427 93.358 198.406 93.3624 198.386 93.3683C198.331 93.384 198.28 93.4108 198.236 93.4485L196.807 94.6505L196.806 94.6515L196.686 94.7514C196.448 94.9531 196.485 95.3905 196.771 95.7288L196.853 95.8255L196.853 95.8262L197.52 96.6213L197.525 96.6263L197.118 96.9695L196.443 96.1665L196.047 95.6963C196.025 95.6696 196.004 95.6423 195.983 95.6152C195.951 95.5723 195.925 95.529 195.899 95.4859Z" fill="#201B2C"/>
<path d="M194.626 91.8029C194.94 92.3409 194.947 92.3151 195.262 93.0788C195.578 93.8426 195.73 94.9176 196.131 94.7625C196.532 94.6075 196.244 94.2438 196.343 94.0439C196.442 93.8439 196.368 94.4952 196.797 94.6493C197.226 94.8033 198.178 94.3426 198.363 93.8148C198.548 93.287 198.127 92.8588 197.657 92.2174C197.186 91.5761 196.727 91.4342 196.244 90.4795L194.626 91.8029Z" fill="#EEADA5"/>
<path d="M195.885 95.4856C195.781 95.3099 195.724 95.1241 195.712 94.9528L195.713 94.9516C195.703 94.8073 195.728 94.6729 195.786 94.5605C195.82 94.4945 195.865 94.4363 195.921 94.3886L196.317 94.0641L196.327 94.0555L196.328 94.0545L196.329 94.0533L196.358 94.0303L196.43 94.1916L196.43 94.1934L196.431 94.1972L196.432 94.2004L196.435 94.2057L196.435 94.2076L196.536 94.4425L196.537 94.445L196.669 94.7457C196.43 94.9478 196.469 95.3861 196.753 95.7247L196.757 95.7285L196.838 95.8258L196.839 95.8265L197.507 96.6211L197.101 96.9626L196.43 96.1662L196.034 95.6961C196.012 95.6693 195.99 95.6421 195.97 95.615C195.938 95.5721 195.911 95.5287 195.885 95.4856Z" fill="#201B2C"/>
<path d="M192.702 101.537L197.586 107.408C197.876 107.756 198.392 107.804 198.741 107.514L198.76 107.498L209.335 98.9263C210.515 97.9439 209.814 97.1167 209.525 96.769L205.083 91.0931C204.793 90.7448 203.611 90.1788 202.677 90.9777L193.362 98.7186L193.012 99.0088C192.243 99.6486 192.046 100.75 192.702 101.537Z" fill="#603A3E"/>
<path d="M192.702 101.536L197.586 107.407C197.876 107.755 198.392 107.803 198.741 107.513L198.76 107.497C198.592 107.05 198.212 106.437 197.434 105.618C195.551 103.637 194.177 100.761 193.362 98.7178L193.012 99.0079C192.243 99.6477 192.046 100.749 192.702 101.536Z" fill="#775155"/>
<path d="M191.512 83.4025C192.817 85.5184 196.958 90.9577 196.958 90.9577C196.036 92.6147 194.783 92.9076 194.771 92.9263C194.751 92.8113 189.461 85.8523 188.974 85.0973C188.281 84.0201 182.601 82.0887 181.964 82.6282C181.2 83.2752 180.471 86.5869 180.8 88.8531C180.869 89.3323 180.987 89.7658 181.163 90.1189C182.17 92.1387 183.246 92.3083 183.124 93.3911C183.001 94.4739 177.553 98.2111 177.011 97.657C176.47 97.1019 176.551 89.8389 175.978 88.1918C175.466 86.726 174.258 84.0799 175.154 81.9976C175.815 80.4625 176.648 77.2808 177.04 75.7133C177.046 75.6892 177.052 75.6661 177.058 75.644C177.188 75.1247 177.265 74.7998 177.265 74.7998C177.685 74.9197 178.164 75.1134 178.682 75.3666C179.838 75.9321 181.194 76.7918 182.553 77.7798C186.148 80.3924 190.53 81.8107 191.512 83.4025Z" fill="#6A93CB"/>
<path d="M171.859 84.0634C171.236 86.0885 173.56 90.8758 173.832 94.6174C173.837 94.6668 173.84 94.7162 173.843 94.7656C173.878 95.4032 173.839 96.0028 173.693 96.5456C173.496 97.2818 172.433 97.8259 171.726 97.9067C171.24 97.9627 170.88 97.7501 170.952 97.2264C171.605 92.4917 169.176 88.6225 169.08 83.4064C169.059 82.2306 169.774 80.5595 169.552 79.7601C169.238 78.6238 165.757 70.9044 164.714 68.6631C163.948 67.016 162.55 61.4759 162.609 59.1307C162.63 58.3021 165.364 58.418 165.375 58.9246C165.418 60.8584 166.805 66.0985 167.409 67.627C168.145 69.4862 171.56 74.5423 173.563 75.7794C173.619 75.8146 173.402 76.2028 173.346 76.9335C173.304 77.4865 173.177 78.1581 173.114 78.9224C172.936 81.1082 172.599 81.6644 171.859 84.0634Z" fill="#6A93CB"/>
<path opacity="0.17" d="M180.798 88.8523C180.287 88.0148 179.556 86.7465 179.511 86.2528C179.44 85.4885 180.539 83.56 181.963 82.6279C181.216 83.2935 180.47 86.5866 180.798 88.8523Z" fill="#070716"/>
<path opacity="0.17" d="M182.549 77.7804C179.226 77.74 177.809 77.1103 177.035 75.7138C177.024 75.6943 177.013 75.6737 177.002 75.6532L177.053 75.6446L178.677 75.3672C179.833 75.9327 181.19 76.7923 182.549 77.7804Z" fill="#070716"/>
<path d="M172.578 68.2197C172.357 68.9506 172.769 69.3705 172.278 70.0549C171.889 70.5971 171.499 70.681 171.644 70.921C171.789 71.1611 172.276 71.0503 172.245 71.3065C172.214 71.5627 172.008 71.7467 172.287 71.8534C172.472 71.9242 172.676 71.9171 172.458 72.0667C172.372 72.1262 172.199 72.0502 172.36 72.3586C172.519 72.6622 172.04 73.6595 172.55 73.8117C172.805 73.8879 173.672 73.3116 174.125 73.6868C174.531 74.0237 173.696 75.2777 173.572 75.8592C173.449 76.4408 173.606 79.5296 173.927 79.4497C174.729 79.2504 174.895 77.4009 176.945 75.8534C179.391 74.0071 176.478 70.7125 176.478 70.7125L175.729 68.7587L172.578 68.2197Z" fill="#F5B1B4"/>
<path d="M192.584 77.3615C191.741 78.1821 187.857 74.8711 185.495 77.3902C184.561 78.3869 183.598 77.3105 182.552 77.0714C182.381 77.0318 182.207 77.0151 182.031 77.0335C181.368 77.1033 181.004 77.2726 180.427 77.2709L180.426 77.2711C180.293 77.2707 180.147 77.2611 179.982 77.2387C179.846 77.2201 179.698 77.1925 179.533 77.1546C179.234 77.0856 178.882 76.981 178.454 76.8293C178.004 76.6698 177.615 76.4006 177.275 76.0668C177.275 76.0668 177.274 76.0663 177.274 76.0656C177.263 76.0546 177.251 76.0431 177.239 76.0313C176.022 74.8049 175.469 72.7479 175.14 72.0146C175.03 71.7669 175.033 71.3922 175.201 71.1775C175.426 70.8892 175.726 70.5316 175.523 70.1982C175.335 69.8876 174.887 69.9386 174.779 70.1602C174.506 70.7153 174.184 70.8731 174.135 70.1514C174.055 68.9669 173.357 68.6674 173.023 68.607C172.806 68.5675 172.649 68.4936 172.537 68.3979L172.537 68.3972C172.105 68.0264 172.354 67.3311 172.464 67.076C172.989 65.8624 174.426 65.6739 176.179 66.0433C178.66 66.5663 179.439 70.1926 180.061 70.6151C180.682 71.0384 181.231 70.1623 182.879 70.9403C184.804 71.8499 184.554 72.851 185.235 73.2139C185.83 73.5309 186.949 73.2715 188.303 73.4584C190.614 73.7786 193.912 76.0687 192.584 77.3615Z" fill="#2E2E49"/>
<path opacity="0.46" d="M23.4802 106.794C23.4802 106.794 23.4817 106.797 23.4835 106.801C23.506 106.781 23.5153 106.772 23.5178 106.769C23.5111 106.771 23.4802 106.794 23.4802 106.794Z" fill="#1F1F39"/>
<path d="M47.3912 140.775C47.5554 139.428 47.5282 136.013 47.5282 136.013L43.8293 135.87L43.9183 140.997L46.33 142.636L47.3912 140.775Z" fill="white"/>
<path d="M47.6931 140.21C48.0862 140.137 47.9016 140.487 48.0084 141.059C48.2527 142.367 53.1206 142.616 53.8475 142.765C54.2227 142.842 54.7111 144.771 52.8251 144.68C51.1942 144.602 45.9689 144.371 44.1851 144.274C43.8121 144.254 43.5018 143.995 43.4344 143.641C43.1938 142.377 43.4073 140.441 43.908 140.422C44.676 140.222 46.0549 140.512 47.6931 140.21Z" fill="#3A3D57"/>
<path d="M4.22069 126.189C5.62416 126.148 9.12798 125.621 9.12798 125.621L8.82219 122.063L3.56686 122.901L2.17871 125.448L4.22069 126.189Z" fill="white"/>
<path d="M4.83503 126.396C4.95757 126.761 4.57546 126.636 4.00148 126.822C2.68759 127.248 3.02756 131.938 2.96365 132.655C2.93066 133.025 1.00923 133.775 0.87121 131.959C0.751862 130.388 0.350211 125.358 0.231102 123.638C0.206189 123.279 0.434455 122.944 0.789893 122.828C2.05864 122.412 4.0729 122.332 4.15403 122.808C4.45333 123.513 4.32443 124.874 4.83503 126.396Z" fill="#3A3D57"/>
<path d="M48.2486 138.408C44.8057 139.767 42.5362 138.809 42.5362 138.809C41.6819 136.455 44.1108 120.934 42.8947 118.668C41.9494 116.909 39.4366 114.217 37.0041 111.831C34.2038 109.085 31.5105 106.742 31.438 106.691C31.4368 106.689 31.4361 106.689 31.4361 106.689C32.2775 111.413 32.3595 117.161 31.8882 120.808C31.0671 127.167 7.09943 127.025 7.09943 127.025C5.34745 124.73 4.69034 122.326 5.038 121.858C8.24808 120.463 23.4218 120.132 23.9379 118.16C24.6875 115.297 23.4844 110.138 22.2776 105.932C21.5811 103.502 20.8831 101.389 20.5592 100.22C20.4983 99.9998 20.4507 99.8128 20.4188 99.6633C20.2704 98.9691 20.5995 98.1416 20.6892 97.116C20.7605 96.3012 24.2979 94.9881 26.5799 96.2007C31.3407 98.73 33.9816 95.373 33.9816 95.373C40.4421 103.01 48.1972 111.167 49.4228 115.259C50.282 118.122 48.21 137.415 48.2486 138.408Z" fill="#3A3D57"/>
<path d="M5.26587 123.44C5.42294 124.276 5.97947 125.541 7.11157 127.026L5.26587 123.44Z" fill="#3B3B4C"/>
<path opacity="0.62" d="M26.7949 98.9375C26.4463 101.242 23.6897 104.813 22.288 105.932C21.5915 103.502 20.8935 101.39 20.5696 100.221C20.5731 100.183 20.5773 100.145 20.5815 100.108L26.7949 98.9375Z" fill="#1F1F39"/>
<path opacity="0.62" d="M37.0175 111.831C34.2172 109.085 31.5241 106.743 31.4513 106.691C31.4506 106.69 31.4498 106.689 31.4498 106.689L31.0308 104.277C31.0956 104.338 34.8615 107.915 37.0175 111.831Z" fill="#1F1F39"/>
<path d="M50.7358 61.2639C52.4063 59.6484 55.6773 55.5105 56.4623 56.3597C56.8887 56.821 54.2422 58.3216 55.101 58.8436C55.4282 59.0425 56.8322 60.3007 55.8798 61.2691C54.8107 62.3563 54.1477 61.0074 52.3885 63.5807C51.565 64.7852 50.7358 61.2639 50.7358 61.2639Z" fill="#EEADA5"/>
<path d="M25.6628 74.9843L28.6948 75.2808C28.6948 75.2808 31.64 75.5302 31.0588 74.9505C30.2811 74.1767 30.2824 73.3024 29.9593 72.7672C29.7537 72.4274 29.6059 71.9179 29.5006 71.404C29.3136 70.4999 29.2587 69.5865 29.2587 69.5865L29.2844 69.3541L28.9272 68.7242L27.8819 66.8809C27.8819 66.8809 26.1806 68.2244 26.1538 69.5195C26.1289 70.7006 25.4288 73.7094 25.6628 74.9843Z" fill="#EFAEA6"/>
<path opacity="0.14" d="M29.4966 71.4046C29.3096 70.5005 29.2548 69.5871 29.2548 69.5871L29.2805 69.3547L28.9233 68.7248L28.5748 68.623C28.5748 68.623 27.6535 69.5137 27.4183 69.868C27.0818 70.3768 28.0766 71.8945 29.4966 71.4046Z" fill="#1F1F39"/>
<path d="M25.6841 71.9661C26.8866 71.4452 27.2949 73.4852 28.5685 73.4002C29.2409 73.3554 29.0537 73.0879 29.3254 72.7365C29.4926 72.5201 29.6446 72.2825 29.9938 72.5504C37.0957 77.9988 32.8513 94.9794 33.7982 95.9825C34.5726 96.8028 29.5886 99.5702 26.1722 99.2508C21.4868 98.8128 21.0801 93.8667 21.0811 92.9105C21.082 91.9543 21.7867 75.6014 21.7867 75.6014C21.7867 75.6014 23.9139 74.0553 25.6841 71.9661Z" fill="white"/>
<path d="M53.2979 63.2097C53.24 63.6621 47.0361 68.9855 44.0616 71.4335C43.1393 72.1922 36.4295 77.5363 35.4413 78.6892C34.6861 79.5702 34.5302 83.902 34.8753 85.0622C35.1535 85.9949 35.4515 86.8907 35.6236 87.5622C36.066 89.2883 38.5237 96.469 36.6613 99.0393C35.4775 100.673 34.3117 100.696 33.381 100.063C31.7829 98.976 32.3854 92.9072 31.0437 87.2462C30.4064 84.5581 30.8052 82.4227 30.9798 80.3412C31.0068 80.0195 31.0278 79.6995 31.0395 79.3777C31.0438 79.2732 31.0459 79.169 31.0474 79.064C31.0493 78.9314 31.0491 78.7991 31.0474 78.6671C31.0429 78.4504 31.0328 78.2339 31.0161 78.0162C30.973 77.4758 30.8847 76.9257 30.7293 76.3585C29.9832 73.6363 29.99 72.5497 29.99 72.5497C33.959 71.9365 40.1878 69.2423 41.5089 68.2314C41.9375 67.903 42.9942 67.0505 44.2526 66.0301C45.5012 65.0177 46.9484 63.8418 48.1775 62.8528C48.5942 62.5171 48.9858 62.2024 49.3359 61.9231C49.6932 61.6394 50.0062 61.3912 50.2603 61.1943C50.5572 60.9638 50.7723 60.8035 50.8742 60.7373C50.9412 60.6946 51.1007 60.7362 51.3089 60.8398C51.3292 60.8494 51.3516 60.8611 51.3739 60.8722C51.99 61.2008 52.9553 62.0046 53.2293 62.7373C53.2897 62.8999 53.3167 63.0598 53.2979 63.2097Z" fill="#6A93CB"/>
<path d="M26.8338 100.372C25.3448 102.458 22.7036 102.806 20.5508 101.862C19.3971 101.355 19.9581 96.9711 20.2806 93.3723L20.2817 93.3708C20.4284 91.7281 20.5258 90.2486 20.3877 89.3769C20.3186 88.9394 20.2534 88.5653 20.1942 88.2304C20.1813 88.1573 20.1687 88.0866 20.156 88.0167L20.1562 88.0159C20.0928 87.6719 20.0354 87.3678 19.9804 87.0743C19.8419 86.3367 19.7219 85.6628 19.5923 84.574C19.5607 84.307 19.5288 84.0156 19.4963 83.692C19.4629 83.3683 19.4278 83.0145 19.3924 82.6198C19.2839 81.4105 19.2875 79.9566 19.4377 78.6479C19.5047 78.0616 19.6006 77.5033 19.7293 77.0097C19.884 76.4166 20.0842 75.9157 20.3362 75.5666C22.5481 72.5026 25.6851 71.9648 25.6851 71.9648C25.8083 72.5191 26.4485 73.3965 26.7298 75.0432C26.8051 75.4877 26.8551 76.4792 26.9333 76.9735C27.0555 77.7435 27.9047 79.5621 28.0195 80.4112C28.2749 82.2783 27.5684 83.5649 27.6755 85.4278C27.6882 85.65 27.3317 87.3309 27.4079 89.164C27.5342 92.1761 28.3183 93.1638 28.2547 95.0488C28.1291 98.7608 28.0689 98.6424 26.8338 100.372Z" fill="#6A93CB"/>
<path d="M21.386 94.3965C23.2323 95.7045 24.632 94.927 24.8932 95.3966C25.2072 95.9613 23.5442 96.045 23.9088 96.2824C24.4321 96.6231 25.4275 96.9582 25.563 97.3152C25.8306 98.0201 24.9909 99.1714 23.3297 99.1776C21.6686 99.1837 21.3105 97.2598 20.0571 96.1747C18.8038 95.0896 21.386 94.3965 21.386 94.3965Z" fill="#EEADA5"/>
<path d="M22.7789 73.2197C18.0846 75.0086 10.9941 85.5091 11.6304 88.0215C12.2666 90.5338 19.1752 96.997 20.116 96.8807C21.0568 96.7643 23.1048 95.2723 22.9792 94.7397C22.8537 94.2071 16.5961 88.7835 16.6646 87.9263C16.773 86.5717 22.9605 79.6374 22.9605 79.6374L22.7789 73.2197Z" fill="#6A93CB"/>
<path opacity="0.18" d="M28.408 74.2195C28.3016 74.1181 26.5849 76.2561 24.7567 76.7393C24.2518 76.8731 23.7255 76.9346 23.2034 76.8722C21.6749 76.689 18.7612 76.2096 18.7612 76.2096C18.7612 76.2096 20.2419 74.6685 21.1443 74.2899C22.4352 74.955 22.5328 75.3069 23.3397 75.3616C23.9378 75.4023 24.5236 75.3397 25.0803 75.2139C26.1274 74.9783 27.0714 74.5189 27.8 74.1037C28.1713 73.8918 28.3017 73.4924 28.6849 73.5447C29.1934 73.6134 28.5449 74.3492 28.408 74.2195Z" fill="#1F1F39"/>
<path d="M29.2921 73.7867C29.3222 73.5672 29.2365 73.1886 28.7611 73.1239C28.403 73.0752 28.3453 73.2105 27.9978 73.4087C26.9543 74.004 25.4368 74.6947 23.8267 74.5854C22.2166 74.476 19.0296 71.8359 16.5971 71.9196C14.1647 72.0034 13.0412 73.9102 9.56834 73.8416C6.09547 73.7729 2.75656 71.7577 1.72959 71.7495C0.702612 71.7412 0.0579748 71.8472 0.00505379 72.2336C-0.0478772 72.62 0.317991 73.3387 0.960608 73.7317C1.60321 74.1248 7.66725 75.6064 9.33328 75.6787C12.0532 75.7966 14.804 73.8733 16.5409 74.025C18.2778 74.1768 21.6765 75.7556 23.6996 75.9977C25.9557 76.2677 28.2861 74.0615 28.4137 74.1829C28.5414 74.3042 28.6588 74.4207 28.9593 74.4009C29.1657 74.3873 29.2621 74.0063 29.2921 73.7867Z" fill="#FFBD6D"/>
<path opacity="0.3" d="M20.2002 88.2311C20.1872 88.158 20.1746 88.0873 20.162 88.0174L20.1621 88.0166C20.0987 87.6725 20.0413 87.3685 19.9863 87.0749C19.8478 86.3374 19.7278 85.6635 19.5982 84.5746C19.5666 84.3077 19.5348 84.0163 19.5022 83.6927L21.4144 81.3594C21.4144 81.3594 20.8096 86.3629 20.2002 88.2311Z" fill="#1F1F39"/>
<path d="M29.0047 64.6074C29.6397 65.5111 31.7923 66.7135 31.1044 67.0972C30.4166 67.4808 32.448 69.0052 31.7302 69.4381C29.9911 70.487 27.3479 70.5828 26.6558 69.9118C25.9637 69.2408 24.7947 66.9373 24.7947 66.9373L29.0047 64.6074Z" fill="#EFAEA6"/>
<path d="M27.8908 66.6536C28.2381 66.1241 28.3955 66.4076 28.6843 66.0109C28.9731 65.6142 28.0045 65.4894 28.6689 64.9667C29.3333 64.4441 29.6587 64.0563 29.2046 63.2722C28.9162 62.7744 28.1941 62.4882 27.6083 62.9905C27.2313 63.3137 26.8912 62.56 26.0196 62.9853C25.3306 63.3215 25.395 63.8746 24.8915 64.4259C24.6156 64.7281 23.5666 64.8522 23.2404 65.5712C22.6354 66.9049 24.0032 66.9172 23.6023 68.2031C23.1347 69.703 26.5748 70.2334 26.9874 70.1202C27.141 70.0781 27.3287 69.6089 26.7329 69.2914C26.4246 69.1271 25.9762 68.6232 26.0703 68.42C26.2362 68.0618 26.4291 67.2404 27.0039 67.8859C27.4127 68.3449 28.2058 70.2835 28.4594 70.3372C29.1113 70.4751 32.1909 69.7469 31.8661 69.0719C31.4635 68.2356 29.6078 70.192 29.2529 69.3029C28.9818 68.6239 31.243 68.1957 31.1302 67.5943C30.9998 66.899 28.8982 69.0451 28.4351 68.5888C27.8697 68.0318 27.6926 66.956 27.8908 66.6536Z" fill="#1F1F39"/>
<path d="M164.921 38.6721C164.055 39.4616 163.292 41.5788 162.924 42.7346C161.706 42.3948 160.207 42.0682 158.214 41.7233C158.522 40.5502 159.173 38.6742 160.469 36.8887C162.105 37.4299 163.587 38.0424 164.921 38.6721Z" fill="#DA0E29"/>
<path d="M32.4082 23.9748C31.9184 24.4215 31.4867 25.6192 31.2783 26.2731C30.5894 26.0808 29.7416 25.8961 28.614 25.7009C28.7878 25.0373 29.1562 23.9759 29.8895 22.9658C30.815 23.272 31.6536 23.6185 32.4082 23.9748Z" fill="#DA0E29"/>
<path d="M171.807 21.2938C170.833 21.5364 169.616 22.3669 168.934 22.8751C167.229 22.4281 166.027 22.0698 164.795 21.7614C165.357 21.2932 166.315 20.6133 167.717 20.0078C169.489 20.5555 170.828 21.0259 171.757 21.28C171.774 21.2846 171.79 21.2892 171.807 21.2938Z" fill="#DEBCDD"/>
<path d="M137.19 31.6736C137.171 31.677 137.151 31.6781 137.128 31.6792C136.318 31.7151 135.398 33.5397 134.892 34.7061C133.701 34.5154 132.392 34.2092 131.056 33.7506C131.383 32.8635 131.984 31.5614 132.996 30.3301C134.445 30.9357 135.839 31.3618 137.19 31.6736Z" fill="#DEBCDD"/>
<path d="M50.9451 29.3449C49.7233 30.3251 49.0854 31.2716 48.7601 31.9229C46.3437 31.7624 44.2291 31.7553 42.4182 31.83C43.2306 31.021 44.54 29.7813 45.5476 29.1367C47.4136 29.1168 49.267 29.172 50.9297 29.3431C50.9351 29.3436 50.9397 29.344 50.9451 29.3449Z" fill="#DEBCDD"/>
<path d="M143.862 44.7697C142.746 41.5712 146.64 39.9023 146.64 39.9023L147.281 41.6304L143.862 44.7697Z" fill="#DA0E29"/>
<path d="M38.8174 56.3498C37.7018 53.1512 41.5956 51.4824 41.5956 51.4824L42.2367 53.2104L38.8174 56.3498Z" fill="#DA0E29"/>
<path d="M57.1309 19.6563C60.4486 18.9726 61.5889 23.0527 61.5889 23.0527L59.7914 23.4601L57.1309 19.6563Z" fill="#DA0E29"/>
<path d="M79.735 15.0264C77.1801 10.02 72.5403 10.02 72.5403 10.02L73.7034 7.09961C73.7034 7.09961 81.1883 8.76841 80.9921 11.063C80.7958 13.3576 79.735 15.0264 79.735 15.0264Z" fill="#DA0E29"/>
<path d="M152.695 27.2654C148.539 28.2036 147.669 31.6117 147.669 31.6117L145.742 30.21C145.742 30.21 148.371 25.0248 150.02 25.5991C151.668 26.1733 152.695 27.2654 152.695 27.2654Z" fill="#DEBCDD"/>
<path d="M77.0527 79.172C76.4964 76.8079 80.5293 75 80.5293 75C80.5293 75 81.5908 76.8079 81.6859 77.086C81.7809 77.3641 78.1652 80.1455 78.5824 81.3971C78.9996 82.6487 77.0527 79.172 77.0527 79.172Z" fill="#DA0E29"/>
<path d="M14.633 42.5079C14.0767 40.1438 18.1097 38.3359 18.1097 38.3359C18.1097 38.3359 19.1712 40.1438 19.2662 40.4219C19.3613 40.7001 15.7455 43.4814 16.1627 44.733C16.5799 45.9846 14.633 42.5079 14.633 42.5079Z" fill="#DA0E29"/>
<path d="M133.058 16.5431C132.502 14.179 136.535 12.3711 136.535 12.3711C136.535 12.3711 137.596 14.179 137.691 14.4571C137.786 14.7352 134.171 17.5166 134.588 18.7682C135.005 20.0198 133.058 16.5431 133.058 16.5431Z" fill="#DA0E29"/>
<path d="M65.4295 86.9983C63.6387 84.6342 63.7437 83.3826 65.4295 82.9654C67.1154 82.5482 65.4466 83.5217 66.9763 84.4951C68.506 85.4686 68.6451 85.3295 67.6716 86.303C66.6982 87.2765 65.4295 86.9983 65.4295 86.9983Z" fill="#DEBCDD"/>
<path d="M162.083 64.0711C159.509 62.5987 159.115 61.4062 160.502 60.3613C161.889 59.3164 160.736 60.8663 162.525 61.1619C164.314 61.4575 164.387 61.275 163.873 62.5522C163.36 63.8295 162.083 64.0711 162.083 64.0711Z" fill="white"/>
<path d="M173.543 44.6126C171.752 42.2485 171.857 40.9969 173.543 40.5797C175.229 40.1625 173.56 41.1359 175.09 42.1094C176.62 43.0829 176.759 42.9438 175.785 43.9173C174.812 44.8907 173.543 44.6126 173.543 44.6126Z" fill="#DEBCDD"/>
<path d="M28.1328 47.0306C27.7687 42.5805 28.464 43.2758 29.0203 43.9712C29.5766 44.6665 31.0204 45.0837 29.5766 46.0572L28.1328 47.0306Z" fill="#DEBCDD"/>
<path d="M184.413 31.5651C184.468 29.7572 184.396 27.6712 183.041 28.0884C181.687 28.5056 183.331 23.7773 183.331 23.7773C183.331 23.7773 186.432 25.3071 186.563 27.6712C186.693 30.0353 184.413 31.5651 184.413 31.5651Z" fill="#DA0E29"/>
<path d="M17.6375 28.7561C16.6255 28.1644 15.4157 27.5592 15.2334 28.4594C15.0511 29.3596 12.8691 26.9586 12.8691 26.9586C12.8691 26.9586 14.7012 25.6673 16.0873 26.3257C17.4735 26.9841 17.6375 28.7561 17.6375 28.7561Z" fill="#DEBCDD"/>
<path d="M125.271 65.843C124.31 66.0503 123.301 66.0688 122.312 65.6235C122.112 65.5335 121.925 65.3933 121.75 65.2125C123.968 64.9145 123.86 63.5661 123.973 61.8447C124.057 62.1437 124.196 62.3862 124.452 62.5414C124.941 62.8377 125.533 62.7222 126.197 62.4744C126.319 63.8474 125.802 65.0247 125.271 65.843Z" fill="#DA0E29"/>
<path d="M129.366 53.3696C128.532 52.7479 127.673 52.3122 126.802 52.2545C126.598 52.2407 126.368 52.2753 126.116 52.3406C126.365 51.4899 126.632 50.2741 126.686 49.5341C127.088 49.5202 127.498 49.5832 127.912 49.7669C128.525 50.0382 129.281 50.5454 130.031 51.1187C130.118 51.9794 129.725 52.8101 129.366 53.3696Z" fill="#DEBCDD"/>
</g>
<defs>
<clipPath id="clip0_2021_35687">
<rect width="210" height="145.747" fill="white"/>
</clipPath>
</defs>
</svg>
