<svg width="38" height="38" viewBox="0 0 38 38" fill="none" xmlns="http://www.w3.org/2000/svg">
<rect width="38" height="38" fill="white"/>
<g clip-path="url(#clip0_3094_32663)">
<path d="M22.3728 19C23.0853 19 23.7123 18.6105 24.0353 18.0215L27.4363 11.856C27.7878 11.229 27.3318 10.45 26.6098 10.45H12.5498L11.6568 8.55H8.55029V10.45H10.4503L13.8703 17.6605L12.5878 19.9785C11.8943 21.2515 12.8063 22.8 14.2503 22.8H25.6503V20.9H14.2503L15.2953 19H22.3728ZM13.4523 12.35H24.9948L22.3728 17.1H15.7038L13.4523 12.35ZM14.2503 23.75C13.2053 23.75 12.3598 24.605 12.3598 25.65C12.3598 26.695 13.2053 27.55 14.2503 27.55C15.2953 27.55 16.1503 26.695 16.1503 25.65C16.1503 24.605 15.2953 23.75 14.2503 23.75ZM23.7503 23.75C22.7053 23.75 21.8598 24.605 21.8598 25.65C21.8598 26.695 22.7053 27.55 23.7503 27.55C24.7953 27.55 25.6503 26.695 25.6503 25.65C25.6503 24.605 24.7953 23.75 23.7503 23.75Z" fill="#626773"/>
</g>
<defs>
<clipPath id="clip0_3094_32663">
<rect width="22.8" height="22.8" fill="white" transform="translate(7.6001 6.65)"/>
</clipPath>
</defs>
</svg>
