<svg width="359" height="156" viewBox="0 0 359 156" fill="none" xmlns="http://www.w3.org/2000/svg">
<g clip-path="url(#clip0_2021_35576)">
<path d="M356.967 -35.5606V76.3058L301.26 74.5294C205.702 64.1454 172.193 34.7134 174.614 18.0224C175.505 11.7156 189.903 1.65041 207.422 -8.41502L207.613 -8.54262C213.538 -11.9187 219.844 -15.2955 226.088 -18.608C241.632 -26.6346 256.921 -33.8334 265.903 -37.9744C271.254 -40.4589 277.052 -41.478 282.913 -41.0958C304.445 -39.5669 281.349 -40.9121 356.967 -35.5606Z" fill="#E8F0FF"/>
<path d="M244.944 -10.5137L253.906 -8.66847C255.539 -8.33233 256.611 -6.76033 256.327 -5.11684L254.612 4.80228C254.308 6.56467 252.574 7.7007 250.837 7.27715L235.649 3.57605C233.318 3.00822 232.496 0.116265 234.179 -1.5926L242.12 -9.65561C242.855 -10.402 243.918 -10.7248 244.944 -10.5137Z" fill="#CFE1FF"/>
<path d="M259.603 -5.43799L257.421 5.87793C257.123 7.42289 258.307 8.85692 259.881 8.85692H277.505C278.779 8.85692 279.85 7.90071 279.993 6.63485L280.585 1.42749C280.68 0.596301 280.353 -0.227113 279.714 -0.76735L273.574 -5.96285C273.182 -6.29437 272.698 -6.49772 272.187 -6.54476L262.292 -7.458C261.01 -7.57653 259.846 -6.70293 259.603 -5.43799Z" fill="#CFE1FF"/>
<path d="M359.343 14.1367H7.9375V17.4852H359.343V14.1367Z" fill="#D1E3FF"/>
<path d="M60.9597 -107H57.6094V148.104H60.9597V-107Z" fill="#D1E3FF"/>
<path d="M337.647 -107H334.297V148.104H337.647V-107Z" fill="#D1E3FF"/>
<path d="M198.569 -107H195.219V148.104H198.569V-107Z" fill="#D0E1FD"/>
<path d="M344.566 125.979H0V151.295H344.566V125.979Z" fill="#D1E3FF"/>
<path d="M163.163 45.8496H117.631C113.835 45.8496 110.758 48.9267 110.758 52.7225V84.4532C110.758 88.249 113.835 91.3261 117.631 91.3261H163.163C166.958 91.3261 170.035 88.249 170.035 84.4532V52.7225C170.035 48.9267 166.958 45.8496 163.163 45.8496Z" fill="#D1E3FF"/>
<path d="M163.181 92.6333H117.648C113.138 92.6333 109.469 88.9643 109.469 84.4537V52.7217C109.469 48.2111 113.138 44.542 117.648 44.542H163.181C167.691 44.542 171.361 48.2111 171.361 52.7217V84.4537C171.361 88.9643 167.691 92.6333 163.181 92.6333ZM117.648 47.1565C114.58 47.1565 112.083 49.6532 112.083 52.7217V84.4537C112.083 87.5219 114.58 90.0186 117.648 90.0186H163.181C166.249 90.0186 168.746 87.5219 168.746 84.4537V52.7217C168.746 49.6532 166.249 47.1565 163.181 47.1565H117.648Z" fill="#D0E1FD"/>
<path d="M170.045 105.249H110.383C110.383 100.637 114.122 96.8984 118.733 96.8984H161.694C166.306 96.8984 170.045 100.637 170.045 105.249Z" fill="#CEDFFF"/>
<path d="M170.041 106.496H43.733C43.0435 106.496 42.4844 105.938 42.4844 105.249C42.4844 104.559 43.0435 104.001 43.733 104.001H170.041C170.73 104.001 171.289 104.559 171.289 105.249C171.289 105.938 170.73 106.496 170.041 106.496Z" fill="#D0E1FD"/>
<path d="M236.78 45.8496H191.248C187.452 45.8496 184.375 48.9267 184.375 52.7225V84.4532C184.375 88.249 187.452 91.3261 191.248 91.3261H236.78C240.575 91.3261 243.652 88.249 243.652 84.4532V52.7225C243.652 48.9267 240.575 45.8496 236.78 45.8496Z" fill="#CEDFFF"/>
<path d="M236.79 92.6333H191.259C186.748 92.6333 183.078 88.9643 183.078 84.4537V52.7217C183.078 48.2111 186.748 44.542 191.259 44.542H236.79C241.301 44.542 244.971 48.2111 244.971 52.7217V84.4537C244.971 88.9643 241.301 92.6333 236.79 92.6333ZM191.259 47.1565C188.189 47.1565 185.693 49.6532 185.693 52.7217V84.4537C185.693 87.5219 188.189 90.0186 191.259 90.0186H236.79C239.86 90.0186 242.356 87.5219 242.356 84.4537V52.7217C242.356 49.6532 239.86 47.1565 236.79 47.1565H191.259Z" fill="#D1E3FF"/>
<path d="M243.662 105.249H184C184 100.637 187.739 96.8984 192.35 96.8984H235.311C239.923 96.8984 243.662 100.637 243.662 105.249Z" fill="#CEDFFF"/>
<path d="M243.651 106.496H117.342C116.653 106.496 116.094 105.938 116.094 105.249C116.094 104.559 116.653 104.001 117.342 104.001H243.651C244.34 104.001 244.899 104.559 244.899 105.249C244.899 105.938 244.34 106.496 243.651 106.496Z" fill="#D0E1FD"/>
<path d="M299.936 45.8496H254.404C250.608 45.8496 247.531 48.9267 247.531 52.7225V84.4532C247.531 88.249 250.608 91.3261 254.404 91.3261H299.936C303.731 91.3261 306.808 88.249 306.808 84.4532V52.7225C306.808 48.9267 303.731 45.8496 299.936 45.8496Z" fill="#CEDFFF"/>
<path d="M299.947 92.6333H254.415C249.904 92.6333 246.234 88.9643 246.234 84.4537V52.7217C246.234 48.2111 249.904 44.542 254.415 44.542H299.947C304.457 44.542 308.126 48.2111 308.126 52.7217V84.4537C308.126 88.9643 304.457 92.6333 299.947 92.6333ZM254.415 47.1565C251.346 47.1565 248.849 49.6532 248.849 52.7217V84.4537C248.849 87.5219 251.346 90.0186 254.415 90.0186H299.947C303.015 90.0186 305.512 87.5219 305.512 84.4537V52.7217C305.512 49.6532 303.015 47.1565 299.947 47.1565H254.415Z" fill="#D1E3FF"/>
<path d="M306.818 105.249H247.156C247.156 100.637 250.895 96.8984 255.507 96.8984H298.468C303.079 96.8984 306.818 100.637 306.818 105.249Z" fill="#CEDFFF"/>
<path d="M306.814 106.496H180.506C179.817 106.496 179.258 105.938 179.258 105.249C179.258 104.559 179.817 104.001 180.506 104.001H306.814C307.503 104.001 308.062 104.559 308.062 105.249C308.062 105.938 307.503 106.496 306.814 106.496Z" fill="#D0E1FD"/>
<path d="M66.7264 147C66.1171 147 65.587 146.579 65.4518 145.982L59.7439 120.891C59.5835 120.188 60.0248 119.487 60.7286 119.327C61.4364 119.168 62.1315 119.609 62.2928 120.311L66.5978 139.235L70.1074 120.362C70.2397 119.653 70.9398 119.182 71.6309 119.317C72.3406 119.448 72.8088 120.13 72.6775 120.841L68.0115 145.932C67.8974 146.54 67.3722 146.986 66.7523 147H66.7264Z" fill="#D0E1FD"/>
<path d="M317.508 120.601H61.9063H29.4141V111.583H317.508V120.601Z" fill="#B0CCFB"/>
<path d="M193.11 46.1109C194.722 45.0404 196.344 43.9644 198.116 43.1867C202.03 41.4688 206.486 41.3052 210.707 41.9803C214.927 42.6555 218.974 44.1264 222.99 45.5895C223.96 45.9429 224.941 46.3018 225.795 46.8811C227.462 48.0114 228.479 49.857 229.377 51.6598C232.54 58.0133 234.987 64.7231 236.657 71.6215C236.957 72.8605 237.231 74.1671 236.889 75.3952C236.466 76.9144 235.351 79.2411 233.894 79.8442C232.436 80.447 221.931 81.881 214.994 79.5832C213.544 79.1028 204.169 79.9614 201.579 80.7348C197.474 81.9607 194.055 83.902 189.774 84.0787C188.449 84.1335 185.878 74.6324 185.57 73.4048C184.618 69.6137 184.161 65.6984 184.225 61.7898C184.335 55.0223 187.436 49.88 193.11 46.1109Z" fill="#D85B66"/>
<path d="M214.129 41.4695C215.449 41.9492 216.864 42.2334 218.26 42.0829C219.657 41.9325 221.035 41.3132 221.925 40.227C220.983 39.7682 220.383 38.8231 219.909 37.8878C218.038 34.193 217.256 29.7771 214.237 26.9414C214.369 31.6643 212.087 36.2875 209.75 40.2633C210.997 40.8666 212.75 40.9685 214.129 41.4695Z" fill="#2E354E"/>
<path d="M128.139 94.6916C126.978 97.5811 126.351 101.004 127.891 103.71C129.024 105.699 131.168 106.949 133.387 107.508C135.607 108.067 137.928 108.02 140.216 107.969C148.083 107.795 155.951 107.621 163.818 107.446C166.36 107.39 168.961 107.323 171.334 106.409C174.313 105.262 176.773 102.688 177.505 99.5805C178.237 96.4734 177.08 92.9299 174.485 91.0705C172.954 89.9729 171.075 89.4973 169.239 89.074C164.535 87.9887 159.789 87.0979 155.035 86.2622C152.248 85.7725 149.409 85.3003 146.601 85.6549C144.819 85.8801 143.097 86.4339 141.387 86.9847C139.305 87.6553 137.224 88.3256 135.143 88.9962C132.077 89.9837 129.378 91.6051 128.139 94.6916Z" fill="#212638"/>
<path d="M139.379 46.0715C129.996 52.0986 133.534 64.7479 132.621 68.988C131.429 74.5224 129.975 80.1765 127.955 85.465C127.669 86.2148 126.967 94.0815 128.412 93.5868C128.978 93.3931 131.261 91.4337 131.7 91.0273C132.657 90.1404 142.483 86.0035 145.403 86.2478C148.322 86.4925 148.26 87.6279 151.135 88.196C156.259 89.2081 161.481 89.6465 166.699 89.8615C171.804 90.0721 177.186 90.0045 181.633 87.49C182.634 86.9243 183.577 86.2389 184.653 85.8359C186.471 85.1555 188.482 85.3424 190.413 85.5385C191.867 80.5111 188.121 75.5636 187.249 70.4035C186.742 67.3982 187.226 64.3205 187.12 61.2743C186.981 57.3204 185.843 53.4537 184.266 49.8252C183.136 47.2266 181.745 44.6827 179.694 42.7275C177.611 40.7415 174.971 39.4959 172.236 38.6845C169.934 38.0018 166.295 36.7765 163.903 37.251C162.617 37.506 161.291 38.2702 160.016 38.6519C158.667 39.0558 157.299 39.3968 155.929 39.7222C153.141 40.3846 150.326 40.961 147.591 41.8255C144.634 42.7601 142.006 44.3834 139.379 46.0715Z" fill="#FFBD6D"/>
<path d="M178.211 28.4986C178.211 28.4986 180.515 28.0417 181.069 25.7488C181.623 23.4564 180.753 21.373 180.753 21.373L179.712 21.9146L178.211 28.4986Z" fill="#2E354E"/>
<path d="M164.561 29.1573C163.383 28.8135 162.641 27.636 162.904 26.4187C163.179 25.1452 164.434 24.336 165.708 24.6113L165.854 24.6429L165.959 24.1581C166.772 20.3975 170.479 18.0078 174.24 18.8209C178.001 19.6337 180.39 23.3417 179.577 27.1022L178.795 30.7222C178.113 33.8766 175.16 39.0378 172.31 36.1831L170.425 43.0101C168.44 45.8109 161.924 44.2474 161.422 40.5243L164.561 29.1573Z" fill="#F69784"/>
<path d="M180.989 19.1591C180.846 20.987 180.046 22.8598 178.192 23.5736C176.258 24.3181 174.148 24.014 172.135 23.9021C171.124 23.8458 170.035 23.7884 169.041 24.0268C165.861 24.7907 166.868 28.4046 167.104 30.6726C167.144 31.0601 167.188 31.4593 167.376 31.8007C167.561 32.1357 167.872 32.3861 168.208 32.5693C169.495 33.2714 171.06 33.0478 172.526 33.078C174.095 33.1104 175.658 33.461 177.09 34.1026C177.236 34.168 177.39 34.2446 177.466 34.3852C177.54 34.5215 177.524 34.6871 177.504 34.8408C177.365 35.9459 176.778 38.5128 176.529 39.5987C176.471 39.8555 176.405 40.1196 176.247 40.3304C175.773 40.9629 174.788 40.7955 174.055 40.4984C171.307 39.3849 169.022 37.3927 166.794 35.4362C166.434 35.1206 166.068 34.7967 165.832 34.3809C165.29 33.426 165.941 30.775 166.069 29.6849C166.209 28.4998 166.619 25.6975 164.945 25.2921C163.168 24.862 163.462 27.3499 163.979 28.3031C164.167 28.6493 164.413 28.9632 164.57 29.3245C165.032 30.3887 164.638 31.6108 164.242 32.7011C163.941 32.6169 163.848 32.2452 163.787 31.9383C163.643 31.2145 163.395 30.5117 163.051 29.859C162.823 29.4273 162.55 29.0047 162.469 28.5239C162.369 27.9397 162.586 27.3547 162.397 26.7939C162.225 26.287 162.102 25.7847 162.025 25.2486C161.869 24.1524 161.838 22.9409 162.304 21.9107C162.893 20.6048 163.463 19.2276 164.426 18.1432C165.07 17.4167 165.737 16.9218 166.653 16.7863C167.586 16.6479 168.318 16.0529 169.234 15.8804C169.466 15.8367 169.716 15.8354 169.927 15.9423C170.137 16.0497 170.294 16.2866 170.25 16.5186C170.952 16.7214 171.701 16.7622 172.421 16.637C172.871 16.5588 173.31 16.4172 173.765 16.3805C174.714 16.3046 174.991 17.0022 175.759 17.2352C176.116 17.343 176.391 17.2676 176.772 17.4508C177.143 17.6291 177.344 17.8627 177.794 17.766C178.148 17.6895 178.386 17.3515 178.803 17.3737C178.931 17.3804 179.066 17.4287 179.131 17.5376C179.244 17.7254 179.115 18.0175 179.281 18.1608C179.381 18.2477 179.532 18.2238 179.663 18.201C179.992 18.1442 180.328 18.1286 180.661 18.1555C180.743 18.1621 180.829 18.1731 180.895 18.2236C181.005 18.3088 181.014 18.4694 181.013 18.6085C181.011 18.7909 181.004 18.9748 180.989 19.1591Z" fill="#2E354E"/>
<path d="M154.221 129.277L151.109 150.269L144.216 148.84L143.523 127.006L154.221 129.277Z" fill="#F69784"/>
<path d="M146.351 147.473H147.794C150.378 147.473 152.473 149.567 152.473 152.151V153.667C152.473 154.617 151.702 155.387 150.752 155.387H138.438C138.438 151.016 141.981 147.473 146.351 147.473Z" fill="#232716"/>
<path d="M171.255 126.393L168.023 147.366L175.03 148.039L182.146 127.385L171.255 126.393Z" fill="#F69784"/>
<path d="M173.373 146.099L171.995 145.673C169.527 144.909 166.906 146.291 166.142 148.76L165.694 150.208C165.414 151.116 165.922 152.079 166.829 152.359L178.594 156C179.886 151.824 177.548 147.391 173.373 146.099Z" fill="#232716"/>
<path d="M204.689 68.4268H182.203C180.84 68.4268 179.734 69.5321 179.734 70.8957V85.7692C179.734 87.1327 180.84 88.2381 182.203 88.2381H204.689C206.053 88.2381 207.158 87.1327 207.158 85.7692V70.8957C207.158 69.5321 206.053 68.4268 204.689 68.4268Z" fill="#151824"/>
<path d="M136.847 87.8425C141.624 85.1985 146.43 86.0049 149.256 86.3025C152.083 86.5998 154.846 88.2068 156.108 90.7533C156.957 92.4661 156.747 95.4942 156.839 97.4036C157.436 109.923 155.355 132.446 154.134 137.255C150.519 135.385 146.895 135.985 143.028 137.255C141.364 128.919 140.964 124.783 140.964 116.912C140.964 112.064 141.361 112.191 141.609 107.349C140.028 107.576 136.702 107.689 133.708 106.882C132.967 106.682 128.397 104.937 126.868 101.819C125.511 99.0488 126.753 94.9636 129.024 92.961C130.348 91.7942 135.038 88.8439 136.847 87.8425Z" fill="#2E354E"/>
<path d="M157.292 103.847C157.275 104.5 157.331 105.223 157.797 105.68C158.096 105.973 158.777 106.754 159.173 106.891C163.842 108.512 170.809 108.35 176.12 105.079C174.031 108.685 173.301 111.14 172.381 115.205C171.828 117.644 171.498 120.127 171.086 122.593C170.238 127.673 169.868 131.276 168.332 136.192C170.686 136.843 176.404 138.72 178.073 139.245C179.885 136.083 181.515 131.954 182.565 129.854C187.49 120.004 190.587 109.566 192.08 98.6551C192.402 96.2977 192.329 91.73 190.967 89.7785C189.111 87.1186 185.373 86.7823 182.131 86.698C171.761 86.4291 157.637 90.4565 157.292 103.847Z" fill="#2E354E"/>
<path d="M180.126 136.467C180.08 136.413 180.016 136.37 179.955 136.331C177.957 135.061 175.395 134.595 173.145 133.899C172.404 133.67 171.664 133.439 170.923 133.211C170.505 133.083 169.658 132.6 169.239 132.705C168.092 132.994 167.306 136.511 168.269 137.149C168.512 137.31 168.796 137.397 169.075 137.483C171.214 138.137 173.292 138.89 175.434 139.552C176.393 139.849 178.195 140.945 178.986 140.129C179.786 139.306 179.833 137.861 180.158 136.82C180.182 136.743 180.205 136.663 180.188 136.584C180.178 136.54 180.155 136.501 180.126 136.467Z" fill="#4F5D70"/>
<path d="M210.188 131.9L212.848 150.431L218.934 149.199L219.634 129.94L210.188 131.9Z" fill="#F69784"/>
<path d="M217.05 147.984L215.777 147.978C213.498 147.967 211.642 149.807 211.631 152.086L211.625 153.423C211.621 154.261 212.297 154.944 213.135 154.948L223.999 154.998C224.017 151.142 220.906 148.001 217.05 147.984Z" fill="#232716"/>
<path d="M142.752 136.273C142.812 136.235 142.886 136.213 142.955 136.194C145.24 135.571 147.824 135.883 150.18 135.883C150.956 135.883 151.731 135.881 152.506 135.883C152.943 135.884 153.895 135.673 154.264 135.897C155.275 136.512 154.987 140.105 153.878 140.429C153.598 140.511 153.301 140.511 153.008 140.51C150.773 140.503 148.564 140.607 146.323 140.607C145.319 140.607 143.273 141.122 142.758 140.108C142.238 139.086 142.62 137.691 142.617 136.601C142.617 136.521 142.618 136.436 142.658 136.367C142.681 136.327 142.714 136.297 142.752 136.273Z" fill="#4F5D70"/>
<path d="M237.7 111.062L246.361 128.76L240.336 131.292L228.32 114.952L237.7 111.062Z" fill="#F69784"/>
<path d="M241.256 129.12L242.36 128.361C244.336 127.002 247.041 127.503 248.4 129.48L249.198 130.64C249.697 131.367 249.513 132.361 248.787 132.861L239.364 139.339C237.065 135.995 237.912 131.42 241.256 129.12Z" fill="#232716"/>
<path d="M213.607 32.9281C212.756 38.4464 209.11 42.4637 205.465 41.9014C201.819 41.339 199.554 36.4094 200.406 30.8911C201.257 25.3728 204.903 21.3552 208.548 21.9178C212.194 22.4801 214.459 27.4096 213.607 32.9281Z" fill="#F69784"/>
<path d="M201.06 32.2527C201.06 33.5689 200.67 34.6361 200.19 34.6361C199.71 34.6361 199.32 33.5689 199.32 32.2527C199.32 30.9365 199.71 29.8691 200.19 29.8691C200.671 29.8691 201.06 30.9363 201.06 32.2527Z" fill="#F69784"/>
<path d="M214.125 34.171C213.708 35.3255 213.029 36.1382 212.608 35.9863C212.187 35.8345 212.182 34.7753 212.599 33.6207C213.015 32.4662 213.694 31.6535 214.115 31.8054C214.537 31.957 214.541 33.0164 214.125 34.171Z" fill="#F69784"/>
<path d="M205.454 27.2187C206.525 28.3144 208.015 29.1956 209.095 29.9703C210.329 30.856 211.537 31.8894 212.144 33.2823C212.272 33.5747 212.38 33.8922 212.618 34.1042C212.857 34.3163 213.865 32.3239 214.222 32.5383C214.681 32.8378 214.302 33.834 214.077 34.2567C214.666 33.5394 215.702 29.4777 215.402 27.0326C215.193 25.3323 214.255 23.7491 212.915 22.6826C211.574 21.616 209.853 21.0607 208.14 21.0567C207.529 21.0554 206.911 21.1228 206.335 21.3265C204.736 21.8925 203.674 23.9181 204.329 25.5786C204.565 26.1768 204.966 26.72 205.454 27.2187Z" fill="#2E354E"/>
<path d="M205.337 25.5993C205.442 25.921 205.573 26.2549 205.514 26.5883C205.417 27.1337 204.871 27.4575 204.405 27.7556C202.661 28.8695 201.202 31.8138 201.059 31.2941C200.242 28.339 199.391 30.8908 199.544 31.9094C199.601 32.2853 200.317 34.1718 200.438 34.5326C201.075 36.4439 201.223 38.4104 201.861 40.3217C200.412 39.1082 198.053 38.6589 196.18 38.4096C194.675 38.2094 193.201 37.7811 191.823 37.1438C189.995 36.2985 188.225 34.9213 187.75 32.9645C188.936 32.8615 190.088 32.3948 191.011 31.6432C192.07 30.7809 192.799 29.5908 193.622 28.5013C195.45 26.0832 197.844 24.101 200.542 22.7233C201.44 22.2651 203.422 21.0305 204.465 21.576C205.508 22.1219 204.982 24.5196 205.337 25.5993Z" fill="#2E354E"/>
<path d="M209.787 43.9889L204.984 58.462L201.047 37.1016H209.787V43.9889Z" fill="#F69784"/>
<path d="M187.76 91.0463C187.508 92.9341 188.298 95.6882 188.526 97.579C188.755 99.4699 190.057 101.004 191.489 102.261C194.375 104.796 203.085 103.77 204.934 103.019C209.251 101.268 214.028 96.7526 218.264 94.8111C222.029 105.462 227.313 115.747 234.59 124.389C237.477 122.249 238.951 122.123 242.384 121.062C240.794 116.003 230.873 87.8373 229.622 86.2223C227.092 82.955 228.027 80.8672 216.299 80.6307C210.833 80.5205 205.243 80.4145 199.982 82.0021C197.405 82.7798 192.977 84.3731 190.747 85.8923C188.605 87.3515 188.092 88.5544 187.76 91.0463Z" fill="#2E354E"/>
<path d="M210.463 140.931C214.208 141.068 215.973 140.69 219.655 139.995C221.681 132.204 222.937 112.355 223.049 110.316C223.332 105.157 223.084 94.5932 216.289 93.706C206.472 92.4244 207.136 102.692 207.169 104.538C207.209 106.78 209.624 135.474 210.463 140.931Z" fill="#212638"/>
<path d="M220.908 138.085C220.853 138.052 220.785 138.033 220.721 138.017C218.624 137.493 216.269 137.829 214.119 137.875C213.411 137.89 212.703 137.904 211.996 137.921C211.596 137.93 210.723 137.756 210.391 137.968C209.48 138.549 209.814 141.823 210.832 142.097C211.089 142.167 211.361 142.161 211.628 142.154C213.669 142.104 215.687 142.156 217.733 142.112C218.65 142.092 220.527 142.522 220.978 141.587C221.433 140.643 221.057 139.377 221.038 138.382C221.036 138.309 221.033 138.232 220.996 138.169C220.974 138.133 220.944 138.107 220.908 138.085Z" fill="#4F5D70"/>
<path d="M232.461 122.895C232.488 122.832 232.535 122.774 232.58 122.721C234.054 120.979 236.278 119.815 238.149 118.529C238.765 118.105 239.379 117.68 239.996 117.259C240.344 117.021 240.984 116.333 241.4 116.31C242.538 116.246 244.272 119.257 243.568 120.12C243.39 120.338 243.154 120.5 242.922 120.659C241.142 121.874 239.445 123.163 237.665 124.388C236.867 124.936 235.523 126.461 234.561 125.938C233.589 125.41 233.131 124.093 232.534 123.229C232.49 123.165 232.444 123.098 232.438 123.021C232.435 122.977 232.444 122.935 232.461 122.895Z" fill="#4F5D70"/>
<path d="M96.5219 45.8496H50.9901C47.1943 45.8496 44.1172 48.9267 44.1172 52.7225V84.4532C44.1172 88.249 47.1943 91.3261 50.9901 91.3261H96.5219C100.318 91.3261 103.395 88.249 103.395 84.4532V52.7225C103.395 48.9267 100.318 45.8496 96.5219 45.8496Z" fill="#D1E3FF"/>
<path d="M96.5238 92.6333H50.9931C46.4821 92.6333 42.8125 88.9643 42.8125 84.4537V52.7217C42.8125 48.2111 46.4821 44.542 50.9931 44.542H96.5238C101.034 44.542 104.704 48.2111 104.704 52.7217V84.4537C104.704 88.9643 101.034 92.6333 96.5238 92.6333ZM50.9931 47.1565C47.9237 47.1565 45.427 49.6532 45.427 52.7217V84.4537C45.427 87.5219 47.9237 90.0186 50.9931 90.0186H96.5238C99.593 90.0186 102.09 87.5219 102.09 84.4537V52.7217C102.09 49.6532 99.593 47.1565 96.5238 47.1565H50.9931Z" fill="#D0E1FD"/>
<path d="M103.388 105.249H43.7266C43.7266 100.637 47.4651 96.8984 52.077 96.8984H95.0378C99.6496 96.8984 103.388 100.637 103.388 105.249Z" fill="#CEDFFF"/>
<path d="M69.7126 153.005H63.8672L65.4725 145.691H68.1072L69.7126 153.005Z" fill="#D0E1FD"/>
<path d="M291.009 147C290.399 147 289.87 146.579 289.734 145.982L284.025 120.891C283.865 120.188 284.306 119.487 285.01 119.327C285.713 119.168 286.414 119.609 286.574 120.311L290.88 139.235L294.389 120.362C294.521 119.653 295.221 119.182 295.912 119.317C296.622 119.448 297.09 120.13 296.959 120.841L292.294 145.932C292.18 146.54 291.654 146.986 291.034 147H291.009Z" fill="#D0E1FD"/>
<path d="M293.986 153.005H288.141L289.746 145.691H292.381L293.986 153.005Z" fill="#D0E1FD"/>
<path d="M103.395 106.496H43.733C43.0435 106.496 42.4844 105.938 42.4844 105.249C42.4844 104.559 43.0435 104.001 43.733 104.001H103.395C104.084 104.001 104.643 104.559 104.643 105.249C104.643 105.938 104.084 106.496 103.395 106.496Z" fill="#D0E1FD"/>
<path d="M80.7637 146.21C80.4779 146.21 80.2068 146.281 79.944 146.381C79.8014 146.046 79.698 145.676 79.698 145.265L79.6704 143.527H76.2734V146.508C76.2734 147.205 76.4203 147.839 76.6772 148.385V148.398C76.7324 148.499 76.7876 148.588 76.8424 148.677L77.691 150.136C77.6838 150.255 77.6651 150.369 77.6651 150.491C77.6651 152.855 79.0524 154.772 80.7637 154.772C82.475 154.772 83.8621 152.855 83.8621 150.491C83.8621 148.127 82.475 146.21 80.7637 146.21Z" fill="#282A41"/>
<path d="M90.2396 33.4648H88.25V71.7865H90.2396V33.4648Z" fill="#AFBBC7"/>
<path d="M104.17 33.4648H102.18V71.7865H104.17V33.4648Z" fill="#AFBBC7"/>
<path d="M101.899 26.9131H99.2054H93.3063H90.6125H87.9219V30.5573V34.5736H90.6125V30.5573H93.3063H99.2054H101.899V34.5736H104.59V30.5573V26.9131H101.899Z" fill="#23253C"/>
<path d="M87.0781 150.491C87.0781 148.126 88.4653 146.21 90.1766 146.21C91.8879 146.21 93.2752 148.126 93.2752 150.491C93.2752 152.855 91.8879 154.771 90.1766 154.771C88.4653 154.771 87.0781 152.854 87.0781 150.491Z" fill="#282A41"/>
<path d="M113.306 78.6098V138.525C113.306 142.292 111.007 145.348 108.184 145.348H78.3714C75.8917 145.348 73.813 142.989 73.355 139.856C73.2882 139.425 73.25 138.981 73.25 138.525V78.6098C73.25 74.8427 75.5486 71.7861 78.3714 71.7861H108.184C111.007 71.7861 113.306 74.8427 113.306 78.6098Z" fill="#D85B66"/>
<path d="M92.4383 150.528C92.4383 152.241 91.4285 153.636 90.1801 153.636C89.5645 153.636 89.0046 153.293 88.6007 152.735L86.241 148.677C86.186 148.588 86.131 148.499 86.0758 148.398V148.385C85.8187 147.839 85.6719 147.206 85.6719 146.508V143.527H89.0689L89.0965 145.265C89.0965 146.407 89.7299 147.396 90.5379 147.459C91.6121 147.688 92.4383 148.969 92.4383 150.528Z" fill="#282A41"/>
<path d="M117.227 78.6098V138.525C117.227 142.292 115.259 145.348 112.841 145.348H87.3147C85.1916 145.348 83.4112 142.989 83.0195 139.856C82.9621 139.425 82.9297 138.981 82.9297 138.525V78.6098C82.9297 74.8427 84.8975 71.7861 87.3147 71.7861H112.841C115.259 71.7861 117.227 74.8427 117.227 78.6098Z" fill="#D85B66"/>
<path d="M90.9118 144.41V145.348H87.3187C85.1955 145.348 83.4151 142.989 83.0234 139.856H87.98C89.597 139.856 90.9118 141.899 90.9118 144.41Z" fill="#282A41"/>
<path d="M109.336 144.41V145.348H112.929C115.052 145.348 116.832 142.989 117.224 139.856H112.267C110.651 139.856 109.336 141.899 109.336 144.41Z" fill="#282A41"/>
<path d="M82.9422 83.6377H72.7344V89.1468H82.9422V83.6377Z" fill="#282A41"/>
<path d="M82.9422 129.495H72.7344V135.004H82.9422V129.495Z" fill="#282A41"/>
<path d="M87.7734 150.49C87.7734 148.656 88.8495 147.17 90.177 147.17C91.5045 147.17 92.5809 148.656 92.5809 150.49C92.5809 152.324 91.5045 153.811 90.177 153.811C88.8495 153.811 87.7734 152.324 87.7734 150.49Z" fill="#FDFDFD"/>
<path d="M111.984 150.491C111.984 148.126 113.372 146.21 115.083 146.21C116.794 146.21 118.181 148.126 118.181 150.491C118.181 152.855 116.794 154.771 115.083 154.771C113.372 154.771 111.984 152.854 111.984 150.491Z" fill="#282A41"/>
<path d="M117.368 150.528C117.368 152.241 116.358 153.636 115.109 153.636C114.494 153.636 113.934 153.293 113.53 152.735L111.171 148.677C111.116 148.588 111.061 148.499 111.005 148.398V148.385C110.748 147.839 110.602 147.206 110.602 146.508V143.527H113.998L114.026 145.265C114.026 146.407 114.66 147.396 115.468 147.459C116.541 147.688 117.368 148.969 117.368 150.528Z" fill="#282A41"/>
<path d="M112.68 150.49C112.68 148.656 113.756 147.17 115.083 147.17C116.411 147.17 117.487 148.656 117.487 150.49C117.487 152.324 116.411 153.811 115.083 153.811C113.755 153.811 112.68 152.324 112.68 150.49Z" fill="#FDFDFD"/>
<path d="M90.0439 134.541C89.8507 134.539 89.6944 134.383 89.6953 134.19L89.8883 81.3349C89.8883 81.1438 90.0448 80.9873 90.237 80.9873C90.4302 80.9893 90.5865 81.1457 90.5856 81.3388L90.3924 134.194C90.3924 134.385 90.2359 134.541 90.0439 134.541Z" fill="#D8A4A8"/>
<path d="M95.5906 134.541C95.3976 134.539 95.2413 134.383 95.2422 134.19L95.4342 81.3349C95.4342 81.1438 95.5906 80.9873 95.7828 80.9873C95.976 80.9893 96.1325 81.1457 96.1313 81.3388L95.9393 134.194C95.9393 134.385 95.7828 134.541 95.5906 134.541Z" fill="#D8A4A8"/>
<path d="M101.294 134.541C101.101 134.539 100.944 134.383 100.945 134.19L101.136 81.3349C101.136 81.1438 101.293 80.9873 101.485 80.9873C101.678 80.9893 101.834 81.1457 101.834 81.3388L101.642 134.194C101.642 134.385 101.486 134.541 101.294 134.541Z" fill="#D8A4A8"/>
<path d="M106.833 134.541C106.64 134.539 106.483 134.383 106.484 134.19L106.676 81.3349C106.676 81.1438 106.833 80.9873 107.025 80.9873C107.218 80.9893 107.374 81.1457 107.374 81.3388L107.181 134.194C107.181 134.385 107.025 134.541 106.833 134.541Z" fill="#D8A4A8"/>
<path d="M111.888 134.174C111.694 134.172 111.538 134.016 111.539 133.823L111.73 80.9677C111.73 80.7764 111.887 80.6201 112.079 80.6201C112.272 80.622 112.428 80.7785 112.427 80.9715L112.236 133.826C112.236 134.018 112.08 134.174 111.888 134.174Z" fill="#D8A4A8"/>
<path d="M262.926 44.8662L263.787 44.5203C265.519 43.8242 267.49 44.6654 268.187 46.3976L270.071 51.0859L263.911 53.5613L261.634 47.8946C261.155 46.7024 261.734 45.3453 262.926 44.8662Z" fill="#5B80AF"/>
<path d="M264.124 44.3874L263.586 44.6035L266.729 52.4312L267.268 52.215L264.124 44.3874Z" fill="#FFBD6D"/>
<path d="M286.469 53.457L280.309 50.9816L282.193 46.2937C282.889 44.5611 284.861 43.7198 286.594 44.4161L287.454 44.7618C288.646 45.241 289.225 46.598 288.746 47.7903L286.469 53.457Z" fill="#5B80AF"/>
<path d="M283.118 52.1118L283.656 52.3281L286.802 44.5014L286.264 44.2851L283.118 52.1118Z" fill="#FFBD6D"/>
<path d="M283.181 101.871H267.72C266.281 101.871 264.928 101.562 263.706 101.005C260.063 99.3422 257.658 95.483 258.099 91.2059L261.425 58.9472C261.548 57.7715 261.873 56.6655 262.376 55.66C263.953 52.4428 267.272 50.2617 271.046 50.2617H279.855C284.812 50.2617 288.966 54.0128 289.476 58.9472L292.802 91.2059C293.389 96.9137 288.911 101.871 283.181 101.871Z" fill="#5B80AF"/>
<path d="M266.985 64.539L264.912 96.9062C264.82 98.3988 264.387 99.7909 263.706 101.005C260.063 99.3424 257.658 95.4831 258.099 91.206L261.425 58.9473C261.548 57.7717 261.873 56.6656 262.376 55.6602C265.361 57.4855 267.225 60.8577 266.985 64.539Z" fill="#FFBD6D"/>
<path d="M283.911 64.539L285.984 96.9062C286.077 98.3988 286.51 99.7909 287.191 101.005C290.833 99.3424 293.238 95.4831 292.798 91.206L289.472 58.9473C289.348 57.7717 289.024 56.6656 288.521 55.6602C285.535 57.4855 283.672 60.8577 283.911 64.539Z" fill="#FFBD6D"/>
<path d="M290.201 65.9851H260.695L261.422 58.9472C261.933 54.0128 266.086 50.2617 271.044 50.2617H279.853C284.81 50.2617 288.963 54.0128 289.474 58.9472L290.201 65.9851Z" fill="#6A93CB"/>
<path d="M283.173 101.871H267.72C261.981 101.871 257.511 96.9129 258.099 91.2052L258.138 90.8418C258.779 95.5054 262.778 99.1791 267.72 99.1791H283.173C288.115 99.1791 292.113 95.5054 292.755 90.8418L292.794 91.2052C293.382 96.9129 288.912 101.871 283.173 101.871Z" fill="#6A93CB"/>
<path d="M272.367 50.5877V46.7849V45.8184L272.12 46.1864L270.305 48.8938V50.609L272.367 50.5877Z" fill="#FFBD6D"/>
<path d="M278.234 50.5877V46.7849V45.8184L278.481 46.1864L280.297 48.8938V50.609L278.234 50.5877Z" fill="#FFBD6D"/>
<path d="M272.375 46.9782V45.8181C272.375 45.8181 273.794 44.042 275.309 44.042C277.145 44.042 278.278 45.8542 278.241 45.8181V46.7847C278.241 46.7847 276.952 45.338 275.324 45.338C273.858 45.338 272.375 46.9782 272.375 46.9782Z" fill="#FFBD6D"/>
<path d="M286.164 63.168H264.219V63.9416H286.164V63.168Z" fill="#5B80AF"/>
<path d="M283.659 91.3319L286.56 90.6224L286.25 89.3545L283.215 90.0966L276.421 85.6408L283.824 80.7859L286.133 80.2212L285.823 78.9535L283.143 79.6089L276.421 75.2L283.511 70.5503L286.133 69.9093L285.823 68.6416L282.943 69.3455C278.017 67.5457 273.245 67.5585 268.725 69.3813L265.698 68.6416L265.388 69.9093L268.51 70.6727L268.511 70.6679L275.422 75.2L268.612 79.666L265.698 78.9535L265.388 80.2212L268.211 80.9115L275.422 85.6408L268.541 90.1542L265.271 89.3545L264.961 90.6224L268.374 91.4569L275.505 96.13C275.277 96.5191 274.938 97.2464 275.005 98.1398C275.147 100.054 276.021 101.116 276.058 101.16L276.296 101.444L276.498 101.134C276.523 101.095 277.109 100.173 277.091 98.3384C277.078 97.1231 276.687 96.4569 276.39 96.1L283.659 91.3319ZM268.65 70.1028L268.678 69.9884C273.161 68.1089 277.91 68.0678 282.815 69.8739L282.916 70.2849L275.922 74.8722L268.65 70.1028ZM268.622 80.5261L268.684 80.2744L275.922 75.5278L282.776 80.0229L282.943 80.7083L275.922 85.3132L268.622 80.5261ZM282.757 90.4511L282.929 91.1556L275.987 95.7096L275.853 95.6216L275.811 95.6759L268.637 90.9743L268.703 90.7026L275.922 85.9686L282.757 90.4511ZM276.225 100.423C275.98 99.9902 275.633 99.2016 275.552 98.0991C275.498 97.3777 275.776 96.7515 275.965 96.4163C276.193 96.6904 276.532 97.2766 276.543 98.3445C276.552 99.3294 276.373 100.023 276.225 100.423Z" fill="#FFBD6D"/>
<path d="M275.639 100.727H276.783C276.894 100.727 276.984 100.817 276.984 100.928V101.986C276.984 102.411 276.639 102.757 276.214 102.757H276.208C275.783 102.757 275.438 102.411 275.438 101.986V100.928C275.438 100.817 275.528 100.727 275.639 100.727Z" fill="#23253C"/>
<path d="M277.214 95.7148H274.906C274.729 95.7148 274.586 95.8583 274.586 96.0353V96.2164C274.586 96.3933 274.729 96.5368 274.906 96.5368H277.214C277.391 96.5368 277.535 96.3933 277.535 96.2164V96.0353C277.535 95.8583 277.391 95.7148 277.214 95.7148Z" fill="#23253C"/>
<path d="M213.642 74.2154C211.721 74.178 209.805 73.9255 207.94 73.4642C207.25 73.2938 206.563 73.0942 205.855 73.036C205.121 72.9754 202.1 72.9501 201.431 73.1214C199.727 73.559 196.743 75.1636 197.1 76.1352C197.341 76.7932 199.1 75.5164 199.735 75.2207C201.537 74.3813 202.901 74.238 204.871 74.5078C204.041 74.6471 202.42 74.8123 201.231 75.2999C200.419 75.6329 196.692 78.4095 197.196 79.1283C197.638 79.7585 198.922 78.6049 199.514 78.113C201.763 76.2446 203.249 76.3767 205.495 75.825C204.849 76.5402 204.034 76.616 203.176 77.0551C201.808 77.7552 200.372 78.473 199.371 79.64C198.073 81.1557 200.179 80.4052 200.509 80.188C200.84 79.9704 202.799 78.6799 203.48 78.4315C204.501 78.0596 205.214 77.8391 206.26 77.542C204.529 78.939 202.888 78.2363 200.964 81.7306C200.833 81.968 201.457 81.8804 201.703 81.7667C202.613 81.3463 202.713 80.7158 203.594 80.2395C205.892 78.9984 207.662 79.1764 208.6 79.4705C209.538 79.7648 210.47 80.1528 211.452 80.1693C212 80.1784 212.543 80.0711 213.08 79.9641C213.719 79.837 214.357 79.7102 214.996 79.5831C214.68 78.2726 214.364 76.9627 214.048 75.6526C213.92 75.1214 213.787 74.5804 213.5 74.1154L213.642 74.2154Z" fill="#F69784"/>
<path d="M187.784 71.3375C186.233 71.1396 184.276 71.4563 183.256 71.5546C185.486 70.6162 187.135 70.3545 189.518 70.7727C190.358 70.9201 192.828 71.8657 192.904 71.0164C193.017 69.7617 189.003 68.8171 186.862 68.8403C186.023 68.8495 182.479 69.832 181.636 70.1348C180.822 70.4264 180.078 70.8781 179.321 71.2959C177.773 72.1508 176.136 72.8286 174.467 73.4114C167.935 74.8557 161.759 73.9232 155.078 74.2814C149.557 74.5773 144.082 74.3541 138.676 76.434C136.235 77.3737 134.071 80.0375 135.042 82.4662C135.756 84.2514 137.802 85.0761 139.682 85.4769C150.745 87.8342 172.955 80.6383 172.956 80.7131C173.747 80.6609 174.538 80.609 175.329 80.5568C175.994 80.5131 176.666 80.4681 177.307 80.2843C178.456 79.955 179.429 79.2052 180.439 78.5638C181.448 77.9223 183.473 77.1544 186.565 77.8887C187.751 78.1703 188.068 78.8798 189.269 79.0874C189.594 79.1435 190.355 79.0492 190.127 78.8116C186.763 75.3115 185.057 76.6551 182.581 75.5592C183.904 75.5781 184.811 75.6124 186.129 75.7274C187.008 75.8043 189.718 76.704 190.174 76.8549C190.631 77.0064 193.344 77.2239 191.339 75.8524C189.795 74.7962 187.881 74.4049 186.052 74.0139C184.905 73.7685 183.924 73.9365 182.938 73.2998C185.753 73.2396 187.457 72.6158 190.69 74.1028C191.541 74.4938 193.414 75.4446 193.735 74.5647C194.101 73.5605 188.844 71.4731 187.784 71.3375Z" fill="#F69784"/>
<path d="M135.782 87.7652C135.12 87.7652 134.471 87.6685 133.837 87.4368C130.898 86.3634 129.815 82.9454 129.782 80.3443C129.769 79.3693 129.87 78.5987 130.101 77.9229C130.464 76.8628 131.206 75.8664 132.368 74.8778C136.547 71.321 142.865 70.6083 147.732 73.1419L147.914 73.2345C148.136 73.3426 148.352 73.4527 148.539 73.5703C148.351 71.4502 148.173 69.2741 148.149 67.1191C148.116 64.2129 148.359 61.2874 148.871 58.4238C148.898 58.2712 149.046 58.1786 149.197 58.1978C149.349 58.2249 149.45 58.3716 149.423 58.5242C148.917 61.353 148.677 64.242 148.709 67.1113C148.736 69.5058 148.954 71.9349 149.166 74.2829C149.179 74.4278 149.078 74.5591 148.934 74.5841C148.79 74.6093 148.651 74.5185 148.614 74.3757C148.565 74.1788 147.888 73.8466 147.666 73.7364L147.472 73.6399C142.803 71.2032 136.741 71.8923 132.731 75.3045C131.648 76.2276 130.961 77.1428 130.632 78.1044C130.423 78.7185 130.331 79.4271 130.342 80.3367C130.376 82.9512 131.529 85.9983 134.031 86.9116C135.828 87.574 137.845 87.0064 139.925 86.3169L142.012 85.6255C142.159 85.5774 142.318 85.6566 142.367 85.8052C142.415 85.952 142.335 86.1102 142.188 86.1587L140.102 86.8499C138.624 87.3383 137.175 87.7652 135.782 87.7652Z" fill="#AF982D"/>
<path d="M180.97 68.5401C180.828 68.5401 180.706 68.434 180.691 68.2892C180.614 67.5398 180.389 66.8274 180.151 66.0743C179.965 65.4796 179.771 64.8675 179.658 64.2378C179.518 63.4539 179.502 62.6662 179.487 61.9035L179.422 58.7597C179.418 58.6053 179.542 58.4778 179.696 58.474C179.859 58.4664 179.978 58.5936 179.982 58.7482L180.047 61.8919C180.062 62.6333 180.078 63.4 180.21 64.1375C180.316 64.7323 180.504 65.3291 180.686 65.9045C180.921 66.6536 181.165 67.4259 181.249 68.2314C181.264 68.3858 181.152 68.5227 180.999 68.5383C180.989 68.5401 180.979 68.5401 180.97 68.5401Z" fill="#AF982D"/>
<path d="M213.968 74.2023C213.855 74.2023 213.748 74.1345 213.706 74.0227C213.651 73.8778 213.723 73.7156 213.868 73.6597C217.996 72.0858 222.451 71.3541 226.88 71.5606C225.914 70.9118 225.034 69.8304 224.218 68.2955C223.659 67.2448 223.21 66.459 222.834 65.8024C221.686 63.7941 221.211 62.9638 220.415 59.5248C220.38 59.3742 220.474 59.2236 220.626 59.1888C220.777 59.1425 220.927 59.2468 220.961 59.3974C221.738 62.7573 222.201 63.5665 223.32 65.5243C223.699 66.1847 224.151 66.9746 224.713 68.0328C225.891 70.2514 227.18 71.4448 228.653 71.6862C228.801 71.7093 228.905 71.8484 228.886 71.999C228.866 72.1495 228.723 72.2771 228.58 72.2403C223.679 71.7613 218.665 72.4334 214.067 74.1849C214.034 74.1966 214 74.2023 213.968 74.2023Z" fill="#B34B54"/>
</g>
<defs>
<clipPath id="clip0_2021_35576">
<rect width="359" height="157" fill="white" transform="translate(0 -1)"/>
</clipPath>
</defs>
</svg>
