<svg width="48" height="48" viewBox="0 0 48 48" fill="none" xmlns="http://www.w3.org/2000/svg">
<path d="M13 38.9999C10.2359 38.9999 7.8782 38.0397 5.9269 36.1192C3.97563 34.1987 3 31.8563 3 29.0923C3 26.6461 3.78333 24.4705 5.35 22.5654C6.91667 20.6603 8.91538 19.5333 11.3462 19.1846C11.9872 16.1949 13.4904 13.75 15.8558 11.85C18.2211 9.95 20.9359 9 24 9C27.6179 9 30.689 10.2622 33.2134 12.7866C35.7377 15.3109 36.9999 18.382 36.9999 22V23H37.6153C39.723 23.1641 41.4807 24.0115 42.8884 25.5423C44.2961 27.0731 44.9999 28.8923 44.9999 31C44.9999 33.2307 44.2243 35.1217 42.673 36.673C41.1217 38.2243 39.2307 38.9999 37 38.9999H25.4999V24.4307L28.1654 27.0653C28.4423 27.3422 28.7852 27.4807 29.1942 27.4807C29.6032 27.4807 29.9564 27.332 30.2538 27.0345C30.5435 26.7576 30.6852 26.4063 30.6788 25.9807C30.6724 25.5551 30.5307 25.2038 30.2538 24.9269L25.2653 19.9385C24.9038 19.5769 24.482 19.3962 24 19.3962C23.5179 19.3962 23.0961 19.5769 22.7346 19.9385L17.7462 24.9269C17.4692 25.2038 17.3224 25.55 17.3058 25.9654C17.2891 26.3807 17.4359 26.7371 17.7462 27.0345C18.0231 27.3114 18.3692 27.4518 18.7846 27.4557C19.2 27.4595 19.5564 27.323 19.8538 27.046L22.5 24.4307V38.9999H13Z" fill="#B0B5BF"/>
</svg>
