<svg width="62" height="62" viewBox="0 0 62 62" fill="none" xmlns="http://www.w3.org/2000/svg">
<g id="computer_FILL0_wght300_GRAD0_opsz24 (1) 1" clip-path="url(#clip0_4146_5216)">
<path id="Vector" d="M5.51458 63.2629C4.96481 63.2629 4.50446 63.0774 4.13353 62.7065C3.76261 62.3356 3.57715 61.8752 3.57715 61.3254C3.57715 60.7757 3.76259 60.3153 4.13347 59.9444C4.50439 59.5735 4.96474 59.388 5.51452 59.388H56.4856C57.0354 59.388 57.4957 59.5735 57.8667 59.9444C58.2376 60.3153 58.4231 60.7757 58.4231 61.3254C58.4231 61.8752 58.2376 62.3356 57.8667 62.7065C57.4957 63.0774 57.0354 63.2629 56.4856 63.2629H5.51458ZM11.1284 56.8047C9.8235 56.8047 8.71895 56.3526 7.81478 55.4484C6.91062 54.5442 6.45853 53.4397 6.45853 52.1348V25.308C6.45853 24.0031 6.91062 22.8986 7.81478 21.9944C8.71895 21.0903 9.8235 20.6382 11.1284 20.6382H50.8718C52.1768 20.6382 53.2813 21.0903 54.1855 21.9944C55.0897 22.8986 55.5417 24.0031 55.5417 25.308V52.1348C55.5417 53.4397 55.0897 54.5442 54.1855 55.4484C53.2813 56.3526 52.1768 56.8047 50.8718 56.8047H11.1284ZM11.1284 52.9297H50.8718C51.0706 52.9297 51.2528 52.8469 51.4184 52.6813C51.584 52.5157 51.6668 52.3336 51.6668 52.1348V25.308C51.6668 25.1093 51.584 24.9271 51.4184 24.7615C51.2528 24.5959 51.0706 24.5131 50.8718 24.5131H11.1284C10.9297 24.5131 10.7475 24.5959 10.5819 24.7615C10.4163 24.9271 10.3335 25.1093 10.3335 25.308V52.1348C10.3335 52.3336 10.4163 52.5157 10.5819 52.6813C10.7475 52.8469 10.9297 52.9297 11.1284 52.9297Z" fill="#531251"/>
</g>
<defs>
<clipPath id="clip0_4146_5216">
<rect width="62" height="62" fill="white"/>
</clipPath>
</defs>
</svg>
