<svg width="34" height="50" viewBox="0 0 34 50" fill="none" xmlns="http://www.w3.org/2000/svg">
<path d="M4.8779 46.9569C3.59368 46.9569 2.49432 46.4996 1.57982 45.5851C0.665279 44.6706 0.208008 43.5712 0.208008 42.287V14.5659C0.208008 13.3107 0.647669 12.2434 1.52699 11.3641C2.40632 10.4848 3.4736 10.0451 4.72884 10.0451H9.89551V3.5868C9.89551 2.71743 10.1998 1.97846 10.8083 1.36992C11.4169 0.761327 12.1558 0.457031 13.0252 0.457031H20.974C21.8434 0.457031 22.5823 0.761327 23.1909 1.36992C23.7994 1.97846 24.1037 2.71743 24.1037 3.5868V10.0451H29.1213C30.4055 10.0451 31.5049 10.5024 32.4194 11.4169C33.3339 12.3314 33.7912 13.4308 33.7912 14.715V42.287C33.7912 43.5712 33.3339 44.6706 32.4194 45.5851C31.5049 46.4996 30.4055 46.9569 29.1213 46.9569V47.255C29.1213 47.8875 28.8986 48.4265 28.4531 48.872C28.0077 49.3175 27.4687 49.5402 26.8361 49.5402C26.2035 49.5402 25.6645 49.3175 25.2191 48.872C24.7736 48.4265 24.5509 47.8875 24.5509 47.255V46.9569H9.44833V47.255C9.44833 47.8875 9.22561 48.4265 8.78015 48.872C8.3347 49.3175 7.79569 49.5402 7.16312 49.5402C6.53054 49.5402 5.99153 49.3175 5.54608 48.872C5.10063 48.4265 4.8779 47.8875 4.8779 47.255V46.9569ZM4.8779 43.082H29.1213C29.3532 43.082 29.5436 43.0074 29.6927 42.8584C29.8417 42.7093 29.9163 42.5189 29.9163 42.287V14.715C29.9163 14.4831 29.8417 14.2927 29.6927 14.1436C29.5436 13.9946 29.3532 13.9201 29.1213 13.9201H4.8779C4.64604 13.9201 4.45559 13.9946 4.30653 14.1436C4.15747 14.2927 4.08294 14.4831 4.08294 14.715V42.287C4.08294 42.5189 4.15747 42.7093 4.30653 42.8584C4.45559 43.0074 4.64604 43.082 4.8779 43.082ZM8.65228 39.505C9.09687 39.505 9.46489 39.3595 9.75633 39.0686C10.0478 38.7778 10.1935 38.4099 10.1935 37.965V19.0371C10.1935 18.5922 10.0482 18.2243 9.75749 17.9334C9.46683 17.6425 9.09919 17.497 8.6546 17.497C8.21005 17.497 7.84206 17.6425 7.55061 17.9334C7.25917 18.2243 7.11345 18.5922 7.11345 19.0371V37.965C7.11345 38.4099 7.25878 38.7778 7.54945 39.0686C7.84012 39.3595 8.20773 39.505 8.65228 39.505ZM16.9984 39.505C17.443 39.505 17.811 39.3595 18.1025 39.0686C18.3939 38.7778 18.5397 38.4099 18.5397 37.965V19.0371C18.5397 18.5922 18.3943 18.2243 18.1036 17.9334C17.8129 17.6425 17.4453 17.497 17.0008 17.497C16.5562 17.497 16.1882 17.6425 15.8967 17.9334C15.6053 18.2243 15.4596 18.5922 15.4596 19.0371V37.965C15.4596 38.4099 15.6049 38.7778 15.8956 39.0686C16.1863 39.3595 16.5539 39.505 16.9984 39.505ZM25.3446 39.505C25.7892 39.505 26.1572 39.3595 26.4486 39.0686C26.74 38.7778 26.8858 38.4099 26.8858 37.965V19.0371C26.8858 18.5922 26.7404 18.2243 26.4498 17.9334C26.1591 17.6425 25.7915 17.497 25.3469 17.497C24.9023 17.497 24.5343 17.6425 24.2429 17.9334C23.9514 18.2243 23.8057 18.5922 23.8057 19.0371V37.965C23.8057 38.4099 23.9511 38.7778 24.2417 39.0686C24.5324 39.3595 24.9 39.505 25.3446 39.505ZM12.9755 10.0451H21.0237V3.53714H12.9755V10.0451Z" fill="#3A3D57"/>
</svg>
