<svg width="19" height="19" viewBox="0 0 19 19" fill="none" xmlns="http://www.w3.org/2000/svg">
<rect x="0.11377" y="0.105469" width="18.1714" height="18.1714" rx="4.03809" fill="url(#paint0_linear_5611_83966)"/>
<g clip-path="url(#clip0_5611_83966)">
<path d="M14.4531 11.9271C14.5846 10.9726 14.3472 10.1476 14.157 9.6103C14.0236 9.23284 13.9139 8.92538 13.8174 8.65482C13.3774 7.42404 13.2989 7.20173 12.9943 5.96811L12.8931 5.55943L12.4929 5.42888C11.2857 5.03344 11.07 4.93789 9.87508 4.40812C9.61207 4.29176 9.31405 4.15931 8.94698 3.99849C8.51935 3.81023 7.85899 3.55669 7.06996 3.52642C5.85331 3.48007 4.68585 3.97389 3.59881 4.99371L3.61963 4.98898C3.34337 5.23305 3.0605 5.51497 2.771 5.84513C2.771 5.84513 2.77856 5.86499 2.84006 5.8158C3.22038 5.50834 4.46163 4.34852 7.83912 5.86783C9.50327 6.61614 11.0936 7.28025 11.0936 7.28025H11.0927C11.0927 7.28025 11.6149 8.92349 12.2147 10.6462C13.4314 14.1437 12.1674 15.2789 11.8278 15.6299C11.7729 15.6866 11.7928 15.6961 11.7928 15.6961C12.2791 15.3385 12.6774 14.9866 13.0037 14.6422C13.8325 13.8097 14.3207 12.8977 14.4541 11.9262L14.4531 11.9271Z" fill="url(#paint1_linear_5611_83966)"/>
<path d="M12.894 5.55943L12.4938 5.42888C11.2866 5.03344 11.0709 4.93789 9.87602 4.40812C9.61301 4.29176 9.315 4.15931 8.94792 3.99849C8.51935 3.81023 7.85899 3.55669 7.06996 3.52642C5.85331 3.48007 4.68585 3.97389 3.59881 4.99371L3.61963 4.98898C3.34337 5.23305 3.0605 5.51497 2.771 5.84513C2.771 5.84513 2.77856 5.86499 2.84006 5.8158C3.22038 5.50834 4.46163 4.34852 7.83912 5.86783C9.50327 6.61614 11.0936 7.28025 11.0936 7.28025H11.0927L12.894 5.55943Z" fill="#FED9A0"/>
</g>
<defs>
<linearGradient id="paint0_linear_5611_83966" x1="10.3888" y1="-1.95097" x2="10.3888" y2="18.2769" gradientUnits="userSpaceOnUse">
<stop stop-color="#DA0E29"/>
<stop offset="1" stop-color="#B61032"/>
</linearGradient>
<linearGradient id="paint1_linear_5611_83966" x1="19.0321" y1="20.9361" x2="6.22318" y2="3.51157" gradientUnits="userSpaceOnUse">
<stop offset="0.18" stop-color="#FED9A0"/>
<stop offset="0.31" stop-color="#ECC78F"/>
<stop offset="0.57" stop-color="#BF9A65"/>
<stop offset="0.75" stop-color="#9E7947"/>
</linearGradient>
<clipPath id="clip0_5611_83966">
<rect width="11.7209" height="12.1973" fill="white" transform="translate(2.771 3.51172)"/>
</clipPath>
</defs>
</svg>
