<svg width="211" height="143" viewBox="0 0 211 143" fill="none" xmlns="http://www.w3.org/2000/svg">
<g clip-path="url(#clip0_2021_35809)">
<path d="M129.004 138.423L123.769 106.846L118.534 75.2695C118.534 75.2695 115.232 83.5341 111.762 93.0863C108.292 102.638 104.655 113.478 103.987 118.628L102.68 118.563L101.374 118.497L74.7675 117.416L48.1611 116.335L48.2103 121.242L48.2595 126.15C48.2595 126.15 55.5013 129.171 65.6288 132.192C75.7564 135.213 88.7698 138.233 100.313 138.233H106.72C106.743 138.294 106.76 138.341 106.772 138.373C106.785 138.406 106.791 138.423 106.791 138.423H129.004Z" fill="#DA8C8D"/>
<mask id="mask0_2021_35809" style="mask-type:luminance" maskUnits="userSpaceOnUse" x="48" y="75" width="81" height="64">
<path d="M128.991 138.423L123.756 106.846L118.522 75.2695C118.522 75.2695 115.219 83.5341 111.749 93.0863C108.28 102.638 104.643 113.478 103.974 118.628L102.668 118.563L101.361 118.497L74.7548 117.416L48.1484 116.335L48.1976 121.242L48.2468 126.15C48.2468 126.15 55.4886 129.171 65.6161 132.192C75.7437 135.213 88.7571 138.233 100.3 138.233H106.708C106.73 138.294 106.748 138.341 106.76 138.373C106.772 138.406 106.779 138.423 106.779 138.423H128.991Z" fill="white"/>
</mask>
<g mask="url(#mask0_2021_35809)">
<path d="M104.414 106.846C104.414 106.846 103.142 112.536 104.082 119.304C105.021 126.072 108.173 133.919 117.02 138.233C122.918 141.109 125.13 142.188 123.656 141.469C121.444 140.39 117.02 138.233 117.02 138.233H137.654L129.255 113.793L120.855 89.3533L115.312 88.9125L109.77 88.4717L107.092 97.6589L104.414 106.846Z" fill="#C17276"/>
</g>
<path d="M125.666 138.233H192.174C192.174 138.233 191.743 135.461 191.122 131.027C190.501 126.593 189.691 120.497 188.934 113.849C188.064 106.202 188.811 97.8527 189.243 90.7197C189.674 83.5868 189.791 77.6698 187.659 74.8865C181.599 66.974 170.532 63.0178 160.98 61.0397C151.429 59.0615 143.392 59.0615 143.392 59.0615C143.392 59.0615 137.938 60.9027 132.103 63.8492C126.268 66.7957 120.052 70.8475 118.526 75.269C117.688 77.7004 116.1 82.5046 114.806 88.5819C113.511 94.6593 112.509 102.01 112.841 109.534C113.112 115.693 116.318 122.868 119.457 128.503C122.595 134.138 125.666 138.233 125.666 138.233Z" fill="#FFBD6D"/>
<path d="M137.666 138.422H23.5608V134.55H137.666C137.898 134.55 138.109 134.646 138.262 134.801C138.414 134.956 138.508 135.171 138.508 135.408V137.564C138.508 137.801 138.414 138.016 138.262 138.171C138.109 138.326 137.898 138.422 137.666 138.422Z" fill="#7DA9F0"/>
<path d="M95.171 138.423H22.9834C22.5195 138.423 22.025 138.231 21.6006 137.922C21.1761 137.612 20.8218 137.184 20.6381 136.712L10.3827 110.334L0.127364 83.956C-0.0563255 83.4836 -0.0345484 83.0559 0.149118 82.7462C0.332784 82.4366 0.678362 82.2451 1.14232 82.2451H73.3299C73.7939 82.2451 74.2884 82.4366 74.7128 82.7462C75.1372 83.0559 75.4915 83.4836 75.6752 83.956L85.9306 110.334L96.186 136.712C96.3697 137.184 96.3479 137.612 96.1642 137.922C95.9805 138.231 95.635 138.423 95.171 138.423Z" fill="#D1E3FF"/>
<path d="M50.6749 108.443C51.3958 110.411 51.4914 112.404 51.0631 114.037C50.6347 115.669 49.6825 116.939 48.3079 117.461C46.9334 117.983 45.3967 117.658 44.0234 116.71C42.6501 115.763 41.4402 114.192 40.7193 112.224C39.9983 110.256 39.9027 108.262 40.3311 106.63C40.7594 104.998 41.7116 103.727 43.0862 103.205C44.4608 102.683 45.9974 103.008 47.3707 103.956C48.744 104.904 49.9539 106.474 50.6749 108.443Z" fill="#8296C9"/>
<path d="M187.664 74.8867L194.637 85.9966L201.609 97.1065C201.609 97.1065 198.293 97.3714 194.523 99.6222C190.752 101.873 186.527 106.11 184.706 114.054C184.706 114.054 181.699 107.578 180.566 99.4445C179.432 91.3106 180.172 81.5188 187.664 74.8867Z" fill="#FFBD6D"/>
<path d="M112.932 101.894L109.658 98.905L106.384 95.9164C106.384 95.9164 108.216 91.8357 110.919 86.7807C113.623 81.7257 117.196 75.6963 120.679 71.7988L116.806 86.8462L112.932 101.894Z" fill="#FFBD6D"/>
<path d="M112.936 101.893C112.936 101.893 113.484 98.2478 114.488 93.591C115.492 88.9342 116.952 83.2656 118.772 79.2188C118.772 79.2188 116.814 82.3803 114.699 86.4239C112.583 90.4676 110.311 95.3934 109.681 98.9218L111.308 100.407L112.936 101.893Z" fill="#FFAD49"/>
<path d="M180.909 109.78L179.982 111.595L179.055 113.41L174.971 101.983L170.888 90.5566L172.38 103.3L173.873 116.043C173.873 116.043 175.988 116.158 178.37 116.305C180.751 116.452 183.398 116.631 184.461 116.759L182.685 113.269L180.909 109.78Z" fill="#FFAD49"/>
<path d="M210.342 125.726L204.755 111.667L199.169 97.6074C192.807 99.0496 188.243 102.093 185.27 104.775C182.296 107.458 180.913 109.78 180.913 109.78L182.268 113.225L183.624 116.671C174.256 115.713 163.819 115.843 155.018 116.296C146.217 116.749 139.051 117.524 136.227 117.856C135.356 117.661 133.749 117.324 131.992 117.067C130.234 116.81 128.325 116.633 126.85 116.758C126.256 116.809 125.599 117.114 124.915 117.59C124.23 118.066 123.518 118.714 122.813 119.449C120.905 121.441 119.635 123.898 119.061 126.517C118.487 129.136 118.609 131.915 119.487 134.55H131.267L133.62 132.607L135.972 130.663L164.077 134.543L192.181 138.423H201.936C203.985 138.423 205.907 137.723 207.449 136.52C208.992 135.317 210.156 133.61 210.69 131.596C210.948 130.624 211.046 129.623 210.987 128.632C210.928 127.64 210.712 126.659 210.342 125.726Z" fill="#DA8C8D"/>
<mask id="mask1_2021_35809" style="mask-type:luminance" maskUnits="userSpaceOnUse" x="118" y="97" width="93" height="42">
<path d="M210.332 125.726L204.746 111.667L199.159 97.6074C192.798 99.0496 188.234 102.093 185.261 104.775C182.287 107.458 180.903 109.78 180.903 109.78L182.259 113.225L183.615 116.671C174.247 115.713 163.81 115.843 155.008 116.296C146.207 116.749 139.042 117.524 136.217 117.856C135.346 117.661 133.74 117.324 131.982 117.067C130.225 116.81 128.316 116.633 126.84 116.758C126.247 116.809 125.59 117.114 124.905 117.59C124.221 118.066 123.508 118.714 122.804 119.449C120.896 121.441 119.625 123.898 119.051 126.517C118.477 129.136 118.6 131.915 119.478 134.55H131.258L133.61 132.607L135.963 130.663L164.068 134.543L192.172 138.423H201.927C203.976 138.423 205.897 137.723 207.44 136.52C208.983 135.317 210.147 133.61 210.681 131.596C210.939 130.624 211.037 129.623 210.978 128.632C210.919 127.64 210.703 126.659 210.332 125.726Z" fill="white"/>
</mask>
<g mask="url(#mask1_2021_35809)">
<path d="M181.88 115.545C181.88 115.545 183.892 113.644 187.901 111.67C191.91 109.696 197.916 107.647 205.904 107.35L202.697 100.543L199.49 93.7354C199.49 93.7354 194.971 95.9514 190.204 98.8058C185.437 101.66 180.422 105.153 179.431 107.706L180.655 111.625L181.88 115.545Z" fill="#C17276"/>
</g>
<path d="M118.582 23.4967C118.582 23.4967 118.133 32.8797 119.907 41.6066C121.681 50.3334 125.678 58.4041 134.569 55.7794C143.461 53.1546 149.449 45.9534 152.068 37.9287C154.687 29.9041 153.936 21.056 149.348 15.1374C144.76 9.21888 136.988 5.18834 130.404 5.69763C123.82 6.20689 118.422 11.256 118.582 23.4967Z" fill="#DA8C8D"/>
<mask id="mask2_2021_35809" style="mask-type:luminance" maskUnits="userSpaceOnUse" x="118" y="5" width="36" height="52">
<path d="M118.576 23.4967C118.576 23.4967 118.127 32.8797 119.901 41.6066C121.675 50.3334 125.672 58.4041 134.563 55.7794C143.454 53.1546 149.443 45.9534 152.062 37.9287C154.68 29.9041 153.929 21.056 149.341 15.1374C144.753 9.21888 136.982 5.18834 130.398 5.69763C123.813 6.20689 118.416 11.256 118.576 23.4967Z" fill="white"/>
</mask>
<g mask="url(#mask2_2021_35809)">
<path d="M125.691 47.8849C125.691 47.8849 126.957 48.4644 128.801 48.6188C130.645 48.773 133.067 48.502 135.38 46.8008C135.38 46.8008 134.896 47.8846 133.978 48.9611C133.06 50.0376 131.708 51.1068 129.971 51.0773C128.234 51.0479 127.164 50.2498 126.528 49.459C125.893 48.6682 125.691 47.8849 125.691 47.8849Z" fill="#EEF2F8"/>
<path d="M114.464 30.9689C114.499 30.8942 119.809 30.6043 126.834 28.8054C133.859 27.0065 142.599 23.6987 149.493 17.5881C154.088 13.5144 155.811 11.9867 154.662 13.0052C152.939 14.5328 149.493 17.5881 149.493 17.5881L145.477 13.9288L141.462 10.2695L129.284 14.3921L117.105 18.5147L115.785 24.7418L114.464 30.9689Z" fill="#C17276"/>
</g>
<path d="M153.787 25.2744C153.787 25.2744 153.012 29.6469 153.053 36.2482C153.094 42.8495 153.951 51.6796 157.215 60.5948C157.215 60.5948 154.9 64.6164 151.458 68.666C148.016 72.7155 143.447 76.793 138.937 76.9046C134.427 77.0162 134.248 67.1035 135.197 57.1628C136.146 47.2221 138.223 37.2534 138.223 37.2534L146.005 31.2639L153.787 25.2744Z" fill="#DA8C8D"/>
<path d="M135.356 55.5309C135.356 55.5309 137.775 54.7572 140.565 53.1489C143.356 51.5405 146.518 49.0975 148.003 45.7588C148.003 45.7588 147.167 48.908 145.114 52.3209C143.06 55.7337 139.789 59.4102 134.919 60.4648C134.919 60.4648 135 59.4863 135.095 58.3803C135.19 57.2743 135.299 56.0408 135.356 55.5309Z" fill="#C17276"/>
<path d="M118.585 23.4969C118.585 23.4969 121.498 20.9098 125.815 18.6475C130.132 16.3852 135.853 14.4476 141.469 15.7469C141.469 15.7469 141.766 18.166 142.295 20.9322C142.825 23.6985 143.587 26.812 144.516 28.2011L145.245 29.2381L145.974 30.275C145.974 30.275 145.803 28.6568 145.971 27.027C146.14 25.3972 146.649 23.7558 148.011 23.7094C149.372 23.6629 150.428 24.513 151.116 25.6202C151.805 26.7275 152.127 28.0919 152.019 29.0743C151.912 30.0567 151.001 31.7759 150.144 33.3314C149.286 34.8868 148.482 36.2786 148.589 36.6061C148.696 36.9335 149.942 39.0005 151.16 40.9857C152.378 42.9708 153.57 44.8741 153.57 44.8741C153.57 44.8741 156.023 40.4329 158.047 34.6956C160.071 28.9582 161.667 21.9246 159.952 16.7397C158.237 11.5548 154.083 8.00726 150.358 5.75592C146.633 3.50459 143.337 2.54949 143.337 2.54949C143.337 2.54949 142.72 1.73082 140.255 1.02131C137.79 0.311777 133.475 -0.288558 126.079 0.148058C118.683 0.584673 113.001 5.66041 109.169 10.627C105.337 15.5936 103.354 20.451 103.354 20.451C103.354 20.451 105.364 19.0047 107.869 17.0808C110.375 15.157 113.377 12.7555 115.36 10.8453C115.36 10.8453 112.707 12.892 109.879 16.0166C107.052 19.1411 104.051 23.3437 103.354 27.6553C103.354 27.6553 106.248 25.1174 109.424 22.3476C112.599 19.5778 116.056 16.576 117.182 15.6482C117.182 15.6482 115.574 17.1218 114.288 20.1099C113.001 23.098 112.037 27.6007 113.323 33.6589C113.323 33.6589 113.783 32.4256 114.671 30.5388C115.559 28.6519 116.874 26.1114 118.585 23.4969Z" fill="#343766"/>
<path d="M148.856 22.4371C147.855 12.4837 143.952 6.87443 140.298 3.7535C136.644 0.632582 133.241 0 133.241 0H130.182C138.012 3.24641 141.96 9.0345 143.951 14.011C145.941 18.9875 145.974 23.1523 145.974 23.1523L145.984 23.1498L145.994 23.1473C144.987 23.6765 144.139 24.4747 143.543 25.4489C142.946 26.4231 142.601 27.5734 142.601 28.8066C142.601 30.5655 143.301 32.1578 144.433 33.3105C145.565 34.4631 147.129 35.176 148.856 35.176C150.584 35.176 152.147 34.4631 153.279 33.3105C154.411 32.1578 155.111 30.5655 155.111 28.8066C155.111 27.0477 154.411 25.4553 153.279 24.3026C152.147 23.15 150.584 22.4371 148.856 22.4371Z" fill="#FFBD6D"/>
<path d="M148.121 33.2741L147.59 33.1946L147.058 33.1152C147.058 33.1152 146.602 35.4065 144.759 38.2013C142.917 40.9961 139.688 44.2944 134.143 46.3086C133.747 45.9404 133.133 45.701 132.399 45.6151C131.664 45.5293 130.808 45.5971 129.929 45.8436C128.816 46.1557 127.878 46.6942 127.26 47.3125C126.643 47.9308 126.346 48.6289 126.517 49.2602C126.688 49.8916 127.293 50.3368 128.135 50.546C128.976 50.7553 130.053 50.7286 131.166 50.4165C132.258 50.1102 133.181 49.5858 133.798 48.9819C134.414 48.378 134.724 47.6946 134.59 47.0702C135.919 46.6004 138.476 45.5079 141.114 43.3546C143.752 41.2013 146.47 37.9872 148.121 33.2741Z" fill="#343766"/>
<path d="M157.044 60.1426L159.773 60.7564L162.503 61.3703L157.489 73.0877L152.475 84.8051L146.968 80.6278L141.461 76.4504L149.252 68.2965L157.044 60.1426Z" fill="white"/>
<path d="M137.296 76.3989L133.42 79.9254L129.543 83.452L129.86 74.1558L130.177 64.8597L132.549 63.6769L134.921 62.4941L136.109 69.4465L137.296 76.3989Z" fill="white"/>
</g>
<defs>
<clipPath id="clip0_2021_35809">
<rect width="211" height="142.068" fill="white"/>
</clipPath>
</defs>
</svg>
