<svg width="56" height="42" viewBox="0 0 56 42" fill="none" xmlns="http://www.w3.org/2000/svg">
<path d="M2.51458 43.2615C1.96481 43.2615 1.50446 43.076 1.13353 42.705C0.76261 42.3341 0.577148 41.8737 0.577148 41.324C0.577148 40.7742 0.762589 40.3138 1.13347 39.9429C1.50439 39.572 1.96474 39.3865 2.51452 39.3865H53.4856C54.0354 39.3865 54.4957 39.572 54.8667 39.9429C55.2376 40.3138 55.4231 40.7742 55.4231 41.324C55.4231 41.8737 55.2376 42.3341 54.8667 42.705C54.4957 43.076 54.0354 43.2615 53.4856 43.2615H2.51458ZM8.12843 36.8032C6.8235 36.8032 5.71895 36.3511 4.81478 35.4469C3.91062 34.5428 3.45853 33.4383 3.45853 32.1334V5.30655C3.45853 4.00166 3.91062 2.89714 4.81478 1.99297C5.71895 1.0888 6.8235 0.636719 8.12843 0.636719H47.8718C49.1768 0.636719 50.2813 1.0888 51.1855 1.99297C52.0897 2.89714 52.5417 4.00166 52.5417 5.30655V32.1334C52.5417 33.4383 52.0897 34.5428 51.1855 35.4469C50.2813 36.3511 49.1768 36.8032 47.8718 36.8032H8.12843ZM8.12843 32.9283H47.8718C48.0706 32.9283 48.2528 32.8455 48.4184 32.6799C48.584 32.5143 48.6668 32.3321 48.6668 32.1334V5.30655C48.6668 5.1078 48.584 4.92564 48.4184 4.76004C48.2528 4.59441 48.0706 4.51159 47.8718 4.51159H8.12843C7.92968 4.51159 7.74749 4.59441 7.58186 4.76004C7.41626 4.92564 7.33347 5.1078 7.33347 5.30655V32.1334C7.33347 32.3321 7.41626 32.5143 7.58186 32.6799C7.74749 32.8455 7.92968 32.9283 8.12843 32.9283Z" fill="#3A3D57"/>
</svg>
