<svg width="62" height="62" viewBox="0 0 62 62" fill="none" xmlns="http://www.w3.org/2000/svg">
<g id="luggage_FILL0_wght300_GRAD0_opsz24 1">
<path id="Vector" d="M18.8784 52.9583C17.5942 52.9583 16.4948 52.501 15.5803 51.5865C14.6658 50.672 14.2085 49.5726 14.2085 48.2884V20.5673C14.2085 19.3121 14.6482 18.2448 15.5275 17.3655C16.4068 16.4862 17.4741 16.0465 18.7293 16.0465H23.896V9.58818C23.896 8.7188 24.2003 7.97984 24.8088 7.37129C25.4174 6.7627 26.1563 6.4584 27.0257 6.4584H34.9745C35.8439 6.4584 36.5828 6.7627 37.1914 7.37129C37.7999 7.97984 38.1042 8.7188 38.1042 9.58818V16.0465H43.1218C44.406 16.0465 45.5054 16.5038 46.4199 17.4183C47.3344 18.3328 47.7917 19.4322 47.7917 20.7163V48.2884C47.7917 49.5726 47.3344 50.672 46.4199 51.5865C45.5054 52.501 44.406 52.9583 43.1218 52.9583V53.2563C43.1218 53.8889 42.8991 54.4279 42.4536 54.8734C42.0082 55.3189 41.4692 55.5416 40.8366 55.5416C40.204 55.5416 39.665 55.3189 39.2196 54.8734C38.7741 54.4279 38.5514 53.8889 38.5514 53.2563V52.9583H23.4488V53.2563C23.4488 53.8889 23.2261 54.4279 22.7806 54.8734C22.3352 55.3189 21.7962 55.5416 21.1636 55.5416C20.531 55.5416 19.992 55.3189 19.5466 54.8734C19.1011 54.4279 18.8784 53.8889 18.8784 53.2563V52.9583ZM18.8784 49.0833H43.1218C43.3537 49.0833 43.5441 49.0088 43.6932 48.8598C43.8422 48.7107 43.9168 48.5202 43.9168 48.2884V20.7163C43.9168 20.4845 43.8422 20.294 43.6932 20.145C43.5441 19.996 43.3537 19.9214 43.1218 19.9214H18.8784C18.6465 19.9214 18.4561 19.996 18.307 20.145C18.158 20.294 18.0834 20.4845 18.0834 20.7163V48.2884C18.0834 48.5202 18.158 48.7107 18.307 48.8598C18.4561 49.0088 18.6465 49.0833 18.8784 49.0833ZM22.6528 45.5063C23.0974 45.5063 23.4654 45.3609 23.7568 45.07C24.0483 44.7791 24.194 44.4112 24.194 43.9663V25.0385C24.194 24.5936 24.0486 24.2257 23.758 23.9348C23.4673 23.6439 23.0997 23.4984 22.6551 23.4984C22.2105 23.4984 21.8425 23.6439 21.5511 23.9348C21.2597 24.2257 21.1139 24.5936 21.1139 25.0385V43.9663C21.1139 44.4112 21.2593 44.7791 21.5499 45.07C21.8406 45.3609 22.2082 45.5063 22.6528 45.5063ZM30.9989 45.5063C31.4435 45.5063 31.8115 45.3609 32.103 45.07C32.3944 44.7791 32.5402 44.4112 32.5402 43.9663V25.0385C32.5402 24.5936 32.3948 24.2257 32.1041 23.9348C31.8134 23.6439 31.4458 23.4984 31.0013 23.4984C30.5567 23.4984 30.1887 23.6439 29.8972 23.9348C29.6058 24.2257 29.46 24.5936 29.46 25.0385V43.9663C29.46 44.4112 29.6054 44.7791 29.8961 45.07C30.1868 45.3609 30.5544 45.5063 30.9989 45.5063ZM39.3451 45.5063C39.7897 45.5063 40.1576 45.3609 40.4491 45.07C40.7405 44.7791 40.8863 44.4112 40.8863 43.9663V25.0385C40.8863 24.5936 40.7409 24.2257 40.4503 23.9348C40.1596 23.6439 39.792 23.4984 39.3474 23.4984C38.9028 23.4984 38.5348 23.6439 38.2434 23.9348C37.9519 24.2257 37.8062 24.5936 37.8062 25.0385V43.9663C37.8062 44.4112 37.9515 44.7791 38.2422 45.07C38.5329 45.3609 38.9005 45.5063 39.3451 45.5063ZM26.976 16.0465H35.0242V9.53851H26.976V16.0465Z" fill="#531251"/>
</g>
</svg>
