<svg width="50" height="50" viewBox="0 0 50 50" fill="none" xmlns="http://www.w3.org/2000/svg">
<path d="M26.494 48.9788C26.1686 49.0484 25.8432 49.0832 25.5178 49.0832H24.5416C21.1467 49.0832 17.9563 48.4391 14.9704 47.1509C11.9845 45.8627 9.38719 44.1144 7.17844 41.9061C4.96969 39.6977 3.22109 37.1008 1.93266 34.1154C0.644218 31.1301 0 27.9403 0 24.5459C0 21.1516 0.644112 17.9611 1.93233 14.9744C3.22056 11.9877 4.96883 9.38969 7.17715 7.18038C9.38551 4.97103 11.9824 3.22196 14.9678 1.93318C17.9531 0.644394 21.143 0 24.5373 0C27.9316 0 31.1221 0.644222 34.1088 1.93266C37.0955 3.2211 39.6935 4.96969 41.9028 7.17844C44.1122 9.38719 45.8613 11.9845 47.15 14.9704C48.4388 17.9563 49.0832 21.1467 49.0832 24.5416V25.5054C49.0832 25.8266 49.0484 26.1479 48.9788 26.4692L45.2083 25.3166V24.5416C45.2083 18.7722 43.2062 13.8854 39.202 9.88119C35.1979 5.87702 30.311 3.87494 24.5416 3.87494C18.7722 3.87494 13.8854 5.87702 9.88119 9.88119C5.87702 13.8854 3.87494 18.7722 3.87494 24.5416C3.87494 30.3111 5.87702 35.1979 9.88119 39.202C13.8854 43.2062 18.7722 45.2083 24.5416 45.2083H25.3166L26.494 48.9788ZM43.6483 47.4934L33.8564 37.7164L32.217 42.6992C32.0183 43.2523 31.6423 43.5222 31.0893 43.509C30.5362 43.4957 30.1685 43.2125 29.9864 42.6594L25.1775 26.643C25.0384 26.2191 25.1419 25.8341 25.488 25.488C25.8341 25.1419 26.2191 25.0384 26.643 25.1775L42.6594 29.9864C43.2125 30.1685 43.4957 30.5362 43.509 31.0893C43.5222 31.6423 43.2523 32.0183 42.6992 32.217L37.7164 33.8564L47.5331 43.6483C48.0829 44.1981 48.3578 44.8389 48.3578 45.5708C48.3578 46.3028 48.0829 46.9436 47.5331 47.4934C46.9834 48.0432 46.3359 48.3181 45.5907 48.3181C44.8456 48.3181 44.1981 48.0432 43.6483 47.4934Z" fill="#3A3D57"/>
</svg>
