<svg width="16" height="16" viewBox="0 0 16 16" fill="none" xmlns="http://www.w3.org/2000/svg">
<g id="timelapse" clip-path="url(#clip0_3456_1504)">
<path id="Vector" d="M10.8266 5.17333C10.0466 4.39333 9.02659 4 7.99992 4V8L5.17325 10.8267C6.73325 12.3867 9.26659 12.3867 10.8333 10.8267C12.3933 9.26667 12.3933 6.73333 10.8266 5.17333ZM7.99992 1.33333C4.31992 1.33333 1.33325 4.32 1.33325 8C1.33325 11.68 4.31992 14.6667 7.99992 14.6667C11.6799 14.6667 14.6666 11.68 14.6666 8C14.6666 4.32 11.6799 1.33333 7.99992 1.33333ZM7.99992 13.3333C5.05325 13.3333 2.66659 10.9467 2.66659 8C2.66659 5.05333 5.05325 2.66667 7.99992 2.66667C10.9466 2.66667 13.3333 5.05333 13.3333 8C13.3333 10.9467 10.9466 13.3333 7.99992 13.3333Z" fill="white"/>
</g>
<defs>
<clipPath id="clip0_3456_1504">
<rect width="16" height="16" fill="white"/>
</clipPath>
</defs>
</svg>
