<svg width="60" height="60" viewBox="0 0 60 60" fill="none" xmlns="http://www.w3.org/2000/svg">
<path d="M60 30C60 46.5685 46.5685 60 30 60C13.4315 60 0 46.5685 0 30C0 13.4315 13.4315 0 30 0C46.5685 0 60 13.4315 60 30ZM6.04942 30C6.04942 43.2275 16.7725 53.9506 30 53.9506C43.2275 53.9506 53.9506 43.2275 53.9506 30C53.9506 16.7725 43.2275 6.04942 30 6.04942C16.7725 6.04942 6.04942 16.7725 6.04942 30Z" fill="url(#paint0_angular_10364_21452)"/>
<g filter="url(#filter0_d_10364_21452)">
<circle cx="30.0036" cy="29.9958" r="20.7692" fill="white"/>
<circle cx="30.0036" cy="29.9958" r="20.6442" stroke="#2F80FF" stroke-opacity="0.06" stroke-width="0.25"/>
</g>
<path d="M24.8654 39.5024C24.2179 39.5024 23.6619 39.2851 23.1971 38.8505C22.7324 38.4159 22.5 37.878 22.5 37.237V23.5851C22.5 23.0095 22.6862 22.4989 23.0587 22.0534C23.4311 21.6079 23.9051 21.3249 24.4808 21.2044L31.6442 19.7486C32.2032 19.6281 32.7035 19.747 33.1452 20.1053C33.5868 20.4637 33.8077 20.9306 33.8077 21.5063V33.1332C33.8077 33.5652 33.6721 33.9479 33.4009 34.2812C33.1298 34.6146 32.7865 34.8229 32.3711 34.9062L24.6404 36.5197C24.4647 36.5595 24.3141 36.645 24.1884 36.7764C24.0628 36.9079 24 37.0614 24 37.237C24 37.4588 24.0862 37.6418 24.2586 37.7861C24.4311 37.9303 24.6333 38.0024 24.8654 38.0024H35.6922C35.782 38.0024 35.8557 37.9736 35.9134 37.9159C35.9711 37.8582 36 37.7844 36 37.6947V23.2524C36 23.0396 36.0718 22.8614 36.2154 22.7178C36.3589 22.5742 36.5371 22.5024 36.75 22.5024C36.9628 22.5024 37.141 22.5742 37.2845 22.7178C37.4281 22.8614 37.5 23.0396 37.5 23.2524V37.6947C37.5 38.1934 37.3233 38.6194 36.9701 38.9726C36.6169 39.3258 36.191 39.5024 35.6922 39.5024H24.8654ZM26.0942 34.7082C26.2698 34.671 26.4134 34.5848 26.5249 34.4496C26.6365 34.3143 26.6923 34.1589 26.6923 33.9832V23.212C26.6923 22.9723 26.6019 22.7781 26.4211 22.6293C26.2404 22.4806 26.0301 22.4332 25.7903 22.487C25.6147 22.5242 25.4711 22.6104 25.3596 22.7457C25.2481 22.8809 25.1923 23.0364 25.1923 23.212V33.9832C25.1923 34.223 25.2827 34.4172 25.4634 34.5659C25.6442 34.7146 25.8545 34.7621 26.0942 34.7082Z" fill="#3174E0"/>
<defs>
<filter id="filter0_d_10364_21452" x="5.23438" y="5.22656" width="49.5391" height="49.5391" filterUnits="userSpaceOnUse" color-interpolation-filters="sRGB">
<feFlood flood-opacity="0" result="BackgroundImageFix"/>
<feColorMatrix in="SourceAlpha" type="matrix" values="0 0 0 0 0 0 0 0 0 0 0 0 0 0 0 0 0 0 127 0" result="hardAlpha"/>
<feOffset/>
<feGaussianBlur stdDeviation="2"/>
<feComposite in2="hardAlpha" operator="out"/>
<feColorMatrix type="matrix" values="0 0 0 0 0.690196 0 0 0 0 0.709804 0 0 0 0 0.74902 0 0 0 0.25 0"/>
<feBlend mode="normal" in2="BackgroundImageFix" result="effect1_dropShadow_10364_21452"/>
<feBlend mode="normal" in="SourceGraphic" in2="effect1_dropShadow_10364_21452" result="shape"/>
</filter>
<radialGradient id="paint0_angular_10364_21452" cx="0" cy="0" r="1" gradientUnits="userSpaceOnUse" gradientTransform="translate(30 30) rotate(90) scale(30)">
<stop offset="0.405054" stop-color="#D1E3FF"/>
<stop offset="1" stop-color="#106EFF" stop-opacity="0.88"/>
</radialGradient>
</defs>
</svg>
