<svg width="24" height="25" viewBox="0 0 24 25" fill="none" xmlns="http://www.w3.org/2000/svg">
<path d="M8 2.28369V5.28369" stroke="#585858" stroke-width="1.5" stroke-miterlimit="10" stroke-linecap="round" stroke-linejoin="round"/>
<path d="M16 2.28369V5.28369" stroke="#585858" stroke-width="1.5" stroke-miterlimit="10" stroke-linecap="round" stroke-linejoin="round"/>
<path opacity="0.4" d="M3.5 9.37354H20.5" stroke="#585858" stroke-width="1.5" stroke-miterlimit="10" stroke-linecap="round" stroke-linejoin="round"/>
<path d="M22 19.2837C22 20.0337 21.79 20.7437 21.42 21.3437C20.73 22.5037 19.46 23.2837 18 23.2837C16.99 23.2837 16.07 22.9137 15.37 22.2837C15.06 22.0237 14.79 21.7037 14.58 21.3437C14.21 20.7437 14 20.0337 14 19.2837C14 17.0737 15.79 15.2837 18 15.2837C19.2 15.2837 20.27 15.8137 21 16.6437C21.62 17.3537 22 18.2737 22 19.2837Z" stroke="#585858" stroke-width="1.5" stroke-miterlimit="10" stroke-linecap="round" stroke-linejoin="round"/>
<path d="M16.44 19.2837L17.43 20.2737L19.56 18.3037" stroke="#585858" stroke-width="1.5" stroke-linecap="round" stroke-linejoin="round"/>
<path d="M21 8.78369V16.6437C20.27 15.8137 19.2 15.2837 18 15.2837C15.79 15.2837 14 17.0737 14 19.2837C14 20.0337 14.21 20.7437 14.58 21.3437C14.79 21.7037 15.06 22.0237 15.37 22.2837H8C4.5 22.2837 3 20.2837 3 17.2837V8.78369C3 5.78369 4.5 3.78369 8 3.78369H16C19.5 3.78369 21 5.78369 21 8.78369Z" stroke="#585858" stroke-width="1.5" stroke-miterlimit="10" stroke-linecap="round" stroke-linejoin="round"/>
<path opacity="0.4" d="M11.9955 13.9839H12.0045" stroke="#585858" stroke-width="2" stroke-linecap="round" stroke-linejoin="round"/>
<path opacity="0.4" d="M8.29431 13.9839H8.30329" stroke="#585858" stroke-width="2" stroke-linecap="round" stroke-linejoin="round"/>
<path opacity="0.4" d="M8.29443 16.9839H8.30342" stroke="#585858" stroke-width="2" stroke-linecap="round" stroke-linejoin="round"/>
</svg>
