<svg width="32" height="32" viewBox="0 0 32 32" fill="none" xmlns="http://www.w3.org/2000/svg">
<path d="M16.7216 7.48059C14.7973 7.46989 12.9299 8.03819 11.3473 9.08893L11.3473 9.08892L11.3464 9.08954C9.82043 10.1512 8.65817 11.6423 8.06549 13.3596C7.47283 15.0768 7.47283 16.9337 8.06549 18.6509C8.65819 20.3682 9.82058 21.8596 11.381 22.9107C12.9414 23.9725 14.809 24.53 16.7217 24.5193C17.5309 24.5192 18.3295 24.4176 19.1068 24.2142V26.3594C18.3184 26.5242 17.5197 26.6166 16.7214 26.6166C14.3411 26.6166 12.0062 25.9154 10.0665 24.5986C8.12672 23.2817 6.68384 21.4236 5.95125 19.2903L5.95109 19.2899C5.196 17.1567 5.19595 14.8537 5.93987 12.7096C6.6838 10.5762 8.12676 8.71813 10.0665 7.40129L10.0666 7.40121C11.9949 6.08444 14.3297 5.38325 16.7214 5.38325C22.179 5.38325 26.6167 9.56629 26.6167 14.7093C26.6167 16.7449 25.8963 18.7387 24.5787 20.3618C24.2741 20.691 23.7548 21.1979 22.9174 21.1979C22.3305 21.1979 21.9445 20.9981 21.6597 20.695C21.3722 20.3891 21.1854 19.976 21.0039 19.5432L21.0037 19.5427L19.1913 15.3507L19.1454 15.2446L19.0995 15.3507L17.2872 19.5427L17.287 19.5433C17.273 19.5768 17.2589 19.6107 17.2447 19.6451C17.108 19.9753 16.9565 20.3414 16.702 20.6366C16.4239 20.9591 16.0213 21.1979 15.3735 21.1979C14.7257 21.1979 14.326 20.9592 14.0478 20.6366C13.807 20.3573 13.6566 20.0151 13.5177 19.6991C13.4944 19.646 13.4714 19.5936 13.4483 19.5424C13.4482 19.5423 13.4482 19.5422 13.4481 19.542L10.4428 12.5513H12.8936L15.3274 18.334L15.373 18.4422L15.4194 18.3344L17.2431 14.0997L17.2432 14.0993C17.2595 14.0608 17.2758 14.0213 17.2925 13.9811C17.4225 13.6674 17.5706 13.3101 17.8186 13.0176C18.0956 12.691 18.4981 12.4446 19.1454 12.4446C19.7754 12.4446 20.1753 12.6907 20.4554 13.0178C20.7072 13.3119 20.8625 13.6714 20.9985 13.9861C21.0152 14.0247 21.0316 14.0628 21.0479 14.0999C21.0479 14.0999 21.0479 14.1 21.0479 14.1L23.0301 18.6864L23.0657 18.7689L23.117 18.6951C24.1321 17.2344 24.5659 15.4724 24.3148 13.7421C24.0638 12.0121 23.1624 10.4224 21.7598 9.2733C20.3688 8.12451 18.5679 7.48062 16.7216 7.48059ZM16.7216 7.48059C16.7216 7.48059 16.7217 7.48059 16.7217 7.48059L16.7214 7.53059V7.48059C16.7215 7.48059 16.7215 7.48059 16.7216 7.48059ZM23.076 18.6666L23.0349 18.6381C23.0408 18.6295 23.0467 18.621 23.0526 18.6125L23.076 18.6666ZM23.076 18.6666L23.1219 18.6468L23.1094 18.618C23.0983 18.6342 23.0872 18.6504 23.076 18.6666ZM19.1068 24.1626C19.1234 24.1582 19.1401 24.1537 19.1568 24.1493V24.201L19.1068 24.1626Z" fill="white" stroke="#D9D9D9" stroke-width="0.1"/>
</svg>
