<svg width="10" height="11" viewBox="0 0 10 11" fill="none" xmlns="http://www.w3.org/2000/svg">
<path d="M1.77846 8.68586L0.293065 7.89742C0.204258 7.85323 0.154154 7.78657 0.142752 7.69744C0.13136 7.60832 0.15867 7.53177 0.224682 7.46777L0.361432 7.33522C0.394443 7.30323 0.43315 7.28171 0.477553 7.27066C0.521957 7.25962 0.563806 7.25714 0.6031 7.26323L1.98122 7.44721L4.51349 4.99271L0.215257 2.71991C0.0973625 2.65972 0.027611 2.5645 0.00600197 2.43425C-0.015607 2.30398 0.0211334 2.19276 0.116223 2.10059L0.234107 1.98061C0.289913 1.92652 0.351414 1.89147 0.418611 1.87548C0.485798 1.85949 0.555545 1.85949 0.627851 1.87548L6.25586 3.28555L8.70561 0.929341C8.85178 0.787645 9.03097 0.716797 9.24316 0.716797C9.45536 0.716797 9.63455 0.787645 9.78072 0.929341C9.92691 1.07103 10 1.24471 10 1.45039C10 1.65607 9.92691 1.82976 9.78072 1.97144L7.34986 4.34595L8.80461 9.77714C8.82111 9.85712 8.81855 9.93272 8.79695 10.0039C8.77534 10.0752 8.73663 10.1378 8.68082 10.1919L8.62188 10.2491C8.51028 10.3534 8.38159 10.3946 8.2358 10.3725C8.09001 10.3504 7.98097 10.2742 7.90868 10.1439L5.58862 6.03482L3.05635 8.48933L3.24616 9.80113C3.25637 9.85522 3.25323 9.9053 3.23672 9.95139C3.22022 9.99747 3.19232 10.0396 3.15302 10.0777L3.09408 10.1348C3.01156 10.2148 2.9145 10.2483 2.8029 10.2353C2.6913 10.2224 2.6076 10.1668 2.5518 10.0685L1.77846 8.68586Z" fill="white" fill-opacity="0.4"/>
</svg>
