<svg width="62" height="62" viewBox="0 0 62 62" fill="none" xmlns="http://www.w3.org/2000/svg">
<g id="highlight_mouse_cursor_FILL0_wght300_GRAD0_opsz24 (1) 1">
<path id="Vector" d="M32.494 54.9788C32.1686 55.0484 31.8432 55.0832 31.5178 55.0832H30.5416C27.1467 55.0832 23.9563 54.4391 20.9704 53.1509C17.9845 51.8627 15.3872 50.1144 13.1784 47.9061C10.9697 45.6977 9.22109 43.1008 7.93266 40.1154C6.64422 37.1301 6 33.9403 6 30.5459C6 27.1516 6.64411 23.9611 7.93233 20.9744C9.22056 17.9877 10.9688 15.3897 13.1771 13.1804C15.3855 10.971 17.9824 9.22196 20.9678 7.93318C23.9531 6.64439 27.143 6 30.5373 6C33.9316 6 37.1221 6.64422 40.1088 7.93266C43.0955 9.2211 45.6935 10.9697 47.9028 13.1784C50.1122 15.3872 51.8613 17.9845 53.15 20.9704C54.4388 23.9563 55.0832 27.1467 55.0832 30.5416V31.5054C55.0832 31.8266 55.0484 32.1479 54.9788 32.4692L51.2083 31.3166V30.5416C51.2083 24.7722 49.2062 19.8854 45.202 15.8812C41.1979 11.877 36.311 9.87494 30.5416 9.87494C24.7722 9.87494 19.8854 11.877 15.8812 15.8812C11.877 19.8854 9.87494 24.7722 9.87494 30.5416C9.87494 36.3111 11.877 41.1979 15.8812 45.202C19.8854 49.2062 24.7722 51.2083 30.5416 51.2083H31.3166L32.494 54.9788ZM49.6483 53.4934L39.8564 43.7164L38.217 48.6992C38.0183 49.2523 37.6423 49.5222 37.0893 49.509C36.5362 49.4957 36.1685 49.2125 35.9864 48.6594L31.1775 32.643C31.0384 32.2191 31.1419 31.8341 31.488 31.488C31.8341 31.1419 32.2191 31.0384 32.643 31.1775L48.6594 35.9864C49.2125 36.1685 49.4957 36.5362 49.509 37.0893C49.5222 37.6423 49.2523 38.0183 48.6992 38.217L43.7164 39.8564L53.5331 49.6483C54.0829 50.1981 54.3578 50.8389 54.3578 51.5708C54.3578 52.3028 54.0829 52.9436 53.5331 53.4934C52.9834 54.0432 52.3359 54.3181 51.5907 54.3181C50.8456 54.3181 50.1981 54.0432 49.6483 53.4934Z" fill="#3A3D57"/>
</g>
</svg>
