<svg width="62" height="62" viewBox="0 0 62 62" fill="none" xmlns="http://www.w3.org/2000/svg">
<g id="computer_FILL0_wght300_GRAD0_opsz24 (1) 1" clip-path="url(#clip0_1112_31094)">
<path id="Vector" d="M5.51556 63.2634C4.96578 63.2634 4.50543 63.0779 4.13451 62.707C3.76359 62.336 3.57812 61.8757 3.57812 61.3259C3.57812 60.7761 3.76357 60.3158 4.13445 59.9449C4.50537 59.5739 4.96572 59.3885 5.5155 59.3885H56.4866C57.0364 59.3885 57.4967 59.5739 57.8676 59.9449C58.2386 60.3158 58.424 60.7761 58.424 61.3259C58.424 61.8757 58.2386 62.336 57.8676 62.707C57.4967 63.0779 57.0364 63.2634 56.4866 63.2634H5.51556ZM11.1294 56.8051C9.82447 56.8051 8.71993 56.3531 7.81576 55.4489C6.91159 54.5447 6.45951 53.4402 6.45951 52.1353V25.3085C6.45951 24.0036 6.91159 22.8991 7.81576 21.9949C8.71993 21.0908 9.82447 20.6387 11.1294 20.6387H50.8728C52.1777 20.6387 53.2823 21.0908 54.1865 21.9949C55.0906 22.8991 55.5427 24.0036 55.5427 25.3085V52.1353C55.5427 53.4402 55.0906 54.5447 54.1865 55.4489C53.2823 56.3531 52.1777 56.8051 50.8728 56.8051H11.1294ZM11.1294 52.9302H50.8728C51.0716 52.9302 51.2538 52.8474 51.4194 52.6818C51.585 52.5162 51.6678 52.3341 51.6678 52.1353V25.3085C51.6678 25.1098 51.585 24.9276 51.4194 24.762C51.2538 24.5964 51.0716 24.5135 50.8728 24.5135H11.1294C10.9307 24.5135 10.7485 24.5964 10.5828 24.762C10.4172 24.9276 10.3344 25.1098 10.3344 25.3085V52.1353C10.3344 52.3341 10.4172 52.5162 10.5828 52.6818C10.7485 52.8474 10.9307 52.9302 11.1294 52.9302Z" fill="#3A3D57"/>
</g>
<defs>
<clipPath id="clip0_1112_31094">
<rect width="62" height="62" fill="white"/>
</clipPath>
</defs>
</svg>
