<svg width="184" height="27" viewBox="0 0 184 27" fill="none" xmlns="http://www.w3.org/2000/svg">
<path opacity="0.2" d="M0.962541 23.6739L6.5649 26.1465L9.03746 20.5441L3.4351 18.0716L0.962541 23.6739ZM183.304 23.6739L180.831 18.0716L175.229 20.5441L177.701 26.1465L183.304 23.6739ZM6.16136 22.4833C6.55185 22.3452 6.75639 21.9166 6.61822 21.5261C6.48005 21.1356 6.05149 20.9311 5.661 21.0693L6.16136 22.4833ZM9.42067 19.8318C9.02501 19.9543 8.80362 20.3744 8.92618 20.7701C9.04874 21.1658 9.46885 21.3872 9.86452 21.2646L9.42067 19.8318ZM11.7237 20.703C12.121 20.5859 12.3482 20.1689 12.2311 19.7715C12.1139 19.3742 11.6969 19.1471 11.2996 19.2642L11.7237 20.703ZM15.1 18.1937C14.7 18.3015 14.4632 18.713 14.5709 19.113C14.6787 19.5129 15.0903 19.7498 15.4902 19.642L15.1 18.1937ZM17.3806 19.1433C17.7816 19.0396 18.0228 18.6305 17.9191 18.2295C17.8155 17.8284 17.4064 17.5873 17.0054 17.6909L17.3806 19.1433ZM20.8315 16.7418C20.4285 16.8378 20.1797 17.2422 20.2756 17.6452C20.3716 18.0481 20.776 18.297 21.179 18.201L20.8315 16.7418ZM23.0927 17.7544C23.4965 17.662 23.749 17.2598 23.6566 16.856C23.5642 16.4522 23.162 16.1998 22.7582 16.2921L23.0927 17.7544ZM26.5987 15.4478C26.1935 15.5334 25.9343 15.9313 26.0199 16.3366C26.1055 16.7419 26.5034 17.001 26.9087 16.9155L26.5987 15.4478ZM28.8271 16.5184C29.233 16.436 29.4954 16.0402 29.413 15.6343C29.3307 15.2283 28.9349 14.966 28.5289 15.0483L28.8271 16.5184ZM32.3943 14.2954C31.9871 14.3715 31.7187 14.7633 31.7948 15.1704C31.8709 15.5776 32.2627 15.846 32.6699 15.7699L32.3943 14.2954ZM34.5994 15.4166C35.0071 15.3435 35.2784 14.9538 35.2053 14.5461C35.1322 14.1383 34.7425 13.8671 34.3347 13.9402L34.5994 15.4166ZM38.2119 13.2739C37.8032 13.3412 37.5264 13.727 37.5936 14.1358C37.6608 14.5445 38.0467 14.8213 38.4554 14.754L38.2119 13.2739ZM40.4057 14.4402C40.8149 14.3758 41.0944 13.9919 41.03 13.5828C40.9656 13.1736 40.5817 12.8941 40.1726 12.9584L40.4057 14.4402ZM44.0599 12.3739C43.6499 12.4327 43.3652 12.8128 43.424 13.2228C43.4829 13.6329 43.863 13.9175 44.273 13.8587L44.0599 12.3739ZM46.2047 13.588C46.6151 13.5319 46.9022 13.1537 46.8461 12.7433C46.79 12.3329 46.4118 12.0457 46.0014 12.1018L46.2047 13.588ZM49.9067 11.5935C49.4956 11.6443 49.2035 12.0188 49.2544 12.4298C49.3052 12.8409 49.6796 13.133 50.0907 13.0822L49.9067 11.5935ZM52.0394 12.8475C52.4508 12.7993 52.7452 12.4268 52.697 12.0154C52.6488 11.604 52.2762 11.3095 51.8648 11.3577L52.0394 12.8475ZM55.7786 10.9239C55.3667 10.9669 55.0676 11.3358 55.1107 11.7478C55.1538 12.1598 55.5227 12.4588 55.9347 12.4157L55.7786 10.9239ZM57.8782 12.2184C58.2904 12.1778 58.5917 11.8108 58.5511 11.3986C58.5105 10.9863 58.1434 10.6851 57.7312 10.7256L57.8782 12.2184ZM61.6499 10.3637C61.2372 10.3993 60.9315 10.7628 60.9672 11.1754C61.0028 11.5881 61.3662 11.8938 61.7789 11.8581L61.6499 10.3637ZM63.7459 11.6942C64.1588 11.6611 64.4666 11.2995 64.4335 10.8866C64.4003 10.4737 64.0387 10.1659 63.6258 10.1991L63.7459 11.6942ZM67.5494 9.90692C67.1362 9.93528 66.8242 10.2933 66.8525 10.7065C66.8809 11.1197 67.2389 11.4318 67.6521 11.4034L67.5494 9.90692ZM69.5955 11.2756C70.0089 11.2496 70.323 10.8934 70.297 10.48C70.271 10.0666 69.9148 9.75257 69.5014 9.77857L69.5955 11.2756ZM73.4353 9.55362C73.0217 9.57493 72.7036 9.92755 72.7249 10.3412C72.7462 10.7549 73.0988 11.0729 73.5125 11.0516L73.4353 9.55362ZM75.4653 10.9565C75.8791 10.9375 76.1991 10.5867 76.1801 10.1729C76.1611 9.75914 75.8103 9.43911 75.3965 9.4581L75.4653 10.9565ZM79.328 9.29941C78.914 9.31384 78.5901 9.66112 78.6046 10.0751C78.619 10.489 78.9663 10.8129 79.3802 10.7985L79.328 9.29941ZM81.3478 10.7354C81.7618 10.7232 82.0876 10.3777 82.0754 9.96367C82.0633 9.54963 81.7178 9.22385 81.3037 9.236L81.3478 10.7354ZM85.2307 9.14195C84.8166 9.14964 84.4871 9.49161 84.4948 9.90575C84.5025 10.3199 84.8444 10.6494 85.2586 10.6417L85.2307 9.14195ZM87.2311 10.6104C87.6452 10.6049 87.9766 10.2647 87.9711 9.85054C87.9657 9.43636 87.6255 9.10504 87.2113 9.1105L87.2311 10.6104ZM91.1386 9.07944C90.7244 9.08054 90.3895 9.41721 90.3906 9.83142C90.3917 10.2456 90.7283 10.5805 91.1425 10.5794L91.1386 9.07944ZM93.1239 10.5794C93.5381 10.5805 93.8747 10.2456 93.8758 9.83142C93.8769 9.41721 93.542 9.08054 93.1278 9.07944L93.1239 10.5794ZM97.0551 9.1105C96.6409 9.10504 96.3008 9.43636 96.2953 9.85054C96.2898 10.2647 96.6212 10.6049 97.0353 10.6104L97.0551 9.1105ZM99.0078 10.6417C99.422 10.6494 99.7639 10.3199 99.7716 9.90575C99.7793 9.49161 99.4498 9.14964 99.0357 9.14195L99.0078 10.6417ZM102.963 9.236C102.549 9.22385 102.203 9.54963 102.191 9.96367C102.179 10.3777 102.505 10.7232 102.919 10.7354L102.963 9.236ZM104.886 10.7985C105.3 10.8129 105.647 10.489 105.662 10.0751C105.676 9.66112 105.352 9.31384 104.938 9.29941L104.886 10.7985ZM108.87 9.4581C108.456 9.43911 108.105 9.75914 108.086 10.1729C108.067 10.5867 108.387 10.9375 108.801 10.9565L108.87 9.4581ZM110.754 11.0516C111.168 11.0729 111.52 10.7549 111.541 10.3412C111.563 9.92755 111.245 9.57493 110.831 9.55362L110.754 11.0516ZM114.765 9.77857C114.352 9.75257 113.995 10.0666 113.969 10.48C113.943 10.8934 114.257 11.2496 114.671 11.2756L114.765 9.77857ZM116.614 11.4034C117.028 11.4318 117.386 11.1197 117.414 10.7065C117.442 10.2933 117.13 9.93528 116.717 9.90692L116.614 11.4034ZM120.641 10.1991C120.228 10.1659 119.866 10.4737 119.833 10.8866C119.8 11.2995 120.108 11.6611 120.52 11.6942L120.641 10.1991ZM122.488 11.8581C122.9 11.8938 123.264 11.5881 123.299 11.1754C123.335 10.7628 123.029 10.3993 122.617 10.3637L122.488 11.8581ZM126.535 10.7256C126.123 10.6851 125.756 10.9863 125.715 11.3986C125.675 11.8108 125.976 12.1778 126.388 12.2184L126.535 10.7256ZM128.332 12.4157C128.744 12.4588 129.113 12.1598 129.156 11.7478C129.199 11.3358 128.9 10.9669 128.488 10.9239L128.332 12.4157ZM132.402 11.3577C131.99 11.3095 131.618 11.604 131.569 12.0154C131.521 12.4268 131.816 12.7993 132.227 12.8475L132.402 11.3577ZM134.176 13.0822C134.587 13.133 134.961 12.8409 135.012 12.4298C135.063 12.0188 134.771 11.6443 134.36 11.5935L134.176 13.0822ZM138.265 12.1018C137.855 12.0457 137.476 12.3329 137.42 12.7433C137.364 13.1537 137.651 13.5319 138.062 13.588L138.265 12.1018ZM139.993 13.8587C140.403 13.9175 140.784 13.6329 140.842 13.2228C140.901 12.8128 140.617 12.4327 140.206 12.3739L139.993 13.8587ZM144.094 12.9584C143.685 12.8941 143.301 13.1736 143.236 13.5828C143.172 13.9919 143.452 14.3758 143.861 14.4402L144.094 12.9584ZM145.811 14.754C146.22 14.8213 146.606 14.5445 146.673 14.1358C146.74 13.727 146.463 13.3412 146.054 13.2739L145.811 14.754ZM149.932 13.9402C149.524 13.8671 149.134 14.1383 149.061 14.5461C148.988 14.9538 149.259 15.3435 149.667 15.4166L149.932 13.9402ZM151.597 15.7699C152.004 15.846 152.395 15.5776 152.472 15.1704C152.548 14.7633 152.279 14.3715 151.872 14.2954L151.597 15.7699ZM155.737 15.0483C155.332 14.966 154.936 15.2283 154.853 15.6343C154.771 16.0402 155.033 16.436 155.439 16.5184L155.737 15.0483ZM157.358 16.9155C157.763 17.001 158.161 16.7419 158.247 16.3366C158.332 15.9313 158.073 15.5334 157.668 15.4478L157.358 16.9155ZM161.508 16.2921C161.104 16.1998 160.702 16.4522 160.61 16.856C160.517 17.2598 160.77 17.662 161.174 17.7544L161.508 16.2921ZM163.087 18.201C163.49 18.297 163.895 18.0481 163.991 17.6452C164.087 17.2422 163.838 16.8378 163.435 16.7418L163.087 18.201ZM167.261 17.6909C166.86 17.5873 166.451 17.8284 166.347 18.2295C166.244 18.6305 166.485 19.0396 166.886 19.1432L167.261 17.6909ZM168.776 19.642C169.176 19.7498 169.588 19.5129 169.695 19.113C169.803 18.713 169.566 18.3015 169.166 18.1937L168.776 19.642ZM172.967 19.2642C172.569 19.1471 172.152 19.3742 172.035 19.7715C171.918 20.1689 172.145 20.5859 172.543 20.703L172.967 19.2642ZM174.402 21.2646C174.798 21.3872 175.218 21.1658 175.34 20.7701C175.463 20.3744 175.241 19.9543 174.846 19.8318L174.402 21.2646ZM178.605 21.0692C178.215 20.9311 177.786 21.1356 177.648 21.5261C177.51 21.9166 177.715 22.3452 178.105 22.4833L178.605 21.0692ZM5 22.109C5.27105 22.8083 5.27103 22.8084 5.27101 22.8084C5.27101 22.8084 5.27099 22.8084 5.27098 22.8084C5.27097 22.8084 5.27095 22.8084 5.27095 22.8084C5.27093 22.8084 5.27093 22.8084 5.27096 22.8084C5.271 22.8084 5.27112 22.8083 5.27131 22.8082C5.2717 22.8081 5.27238 22.8078 5.27337 22.8075C5.27533 22.8067 5.27849 22.8055 5.28285 22.8038C5.29155 22.8005 5.30502 22.7953 5.32325 22.7884C5.35969 22.7746 5.41515 22.7537 5.4895 22.7261C5.6382 22.671 5.86247 22.5891 6.16136 22.4833L5.661 21.0693C5.35495 21.1775 5.12362 21.262 4.96797 21.3197C4.89014 21.3486 4.83123 21.3708 4.79136 21.3859C4.77142 21.3934 4.75624 21.3992 4.74583 21.4032C4.74063 21.4052 4.73662 21.4068 4.73381 21.4079C4.7324 21.4084 4.73129 21.4088 4.73048 21.4091C4.73008 21.4093 4.72975 21.4094 4.72949 21.4095C4.72936 21.4096 4.72926 21.4096 4.72917 21.4096C4.72912 21.4097 4.72908 21.4097 4.72904 21.4097C4.72903 21.4097 4.729 21.4097 4.72899 21.4097C4.72897 21.4097 4.72895 21.4097 5 22.109ZM9.86452 21.2646C10.4327 21.0886 11.0527 20.9008 11.7237 20.703L11.2996 19.2642C10.6219 19.464 9.9954 19.6537 9.42067 19.8318L9.86452 21.2646ZM15.4902 19.642C16.0944 19.4792 16.7246 19.3127 17.3806 19.1433L17.0054 17.6909C16.3443 17.8617 15.7091 18.0295 15.1 18.1937L15.4902 19.642ZM21.179 18.201C21.7994 18.0533 22.4374 17.9043 23.0927 17.7544L22.7582 16.2921C22.0986 16.443 21.4563 16.5931 20.8315 16.7418L21.179 18.201ZM26.9087 16.9155C27.5352 16.7832 28.1747 16.6507 28.8271 16.5184L28.5289 15.0483C27.8726 15.1815 27.2291 15.3147 26.5987 15.4478L26.9087 16.9155ZM32.6699 15.7699C33.3027 15.6516 33.9459 15.5338 34.5994 15.4166L34.3347 13.9402C33.6775 14.058 33.0307 14.1764 32.3943 14.2954L32.6699 15.7699ZM38.4554 14.754C39.0968 14.6485 39.7469 14.5439 40.4057 14.4402L40.1726 12.9584C39.5103 13.0626 38.8567 13.1679 38.2119 13.2739L38.4554 14.754ZM44.273 13.8587C44.9096 13.7673 45.5535 13.6771 46.2047 13.588L46.0014 12.1018C45.3469 12.1914 44.6998 12.2821 44.0599 12.3739L44.273 13.8587ZM50.0907 13.0822C50.7338 13.0027 51.3834 12.9244 52.0394 12.8475L51.8648 11.3577C51.2056 11.435 50.5529 11.5136 49.9067 11.5935L50.0907 13.0822ZM55.9347 12.4157C56.5769 12.3485 57.2247 12.2828 57.8782 12.2184L57.7312 10.7256C57.0747 10.7903 56.4238 10.8564 55.7786 10.9239L55.9347 12.4157ZM61.7789 11.8581C62.4294 11.802 63.0851 11.7473 63.7459 11.6942L63.6258 10.1991C62.962 10.2524 62.3033 10.3073 61.6499 10.3637L61.7789 11.8581ZM67.6521 11.4034C68.2953 11.3593 68.9432 11.3166 69.5955 11.2756L69.5014 9.77857C68.8462 9.81978 68.1955 9.86258 67.5494 9.90692L67.6521 11.4034ZM73.5125 11.0516C74.1592 11.0183 74.8102 10.9866 75.4653 10.9565L75.3965 9.4581C74.7386 9.48831 74.0849 9.52017 73.4353 9.55362L73.5125 11.0516ZM79.3802 10.7985C80.0322 10.7758 80.688 10.7547 81.3478 10.7354L81.3037 9.236C80.6413 9.25545 79.9827 9.2766 79.328 9.29941L79.3802 10.7985ZM85.2586 10.6417C85.9125 10.6295 86.57 10.6191 87.2311 10.6104L87.2113 9.1105C86.5475 9.11926 85.8873 9.12976 85.2307 9.14195L85.2586 10.6417ZM91.1425 10.5794C91.4719 10.5786 91.8021 10.5781 92.1332 10.5781L92.1332 9.07812C91.8008 9.07812 91.4693 9.07857 91.1386 9.07944L91.1425 10.5794ZM92.1332 10.5781C92.4643 10.5781 92.7945 10.5786 93.1239 10.5794L93.1278 9.07944C92.7971 9.07857 92.4656 9.07812 92.1332 9.07812L92.1332 10.5781ZM97.0353 10.6104C97.6964 10.6191 98.354 10.6295 99.0078 10.6417L99.0357 9.14195C98.3791 9.12976 97.7189 9.11926 97.0551 9.1105L97.0353 10.6104ZM102.919 10.7354C103.578 10.7547 104.234 10.7758 104.886 10.7985L104.938 9.29941C104.284 9.2766 103.625 9.25545 102.963 9.236L102.919 10.7354ZM108.801 10.9565C109.456 10.9866 110.107 11.0183 110.754 11.0516L110.831 9.55362C110.182 9.52017 109.528 9.48831 108.87 9.4581L108.801 10.9565ZM114.671 11.2756C115.323 11.3166 115.971 11.3593 116.614 11.4034L116.717 9.90692C116.071 9.86258 115.42 9.81978 114.765 9.77857L114.671 11.2756ZM120.52 11.6942C121.181 11.7473 121.837 11.802 122.488 11.8581L122.617 10.3637C121.963 10.3073 121.304 10.2524 120.641 10.1991L120.52 11.6942ZM126.388 12.2184C127.042 12.2828 127.69 12.3485 128.332 12.4157L128.488 10.9239C127.843 10.8564 127.192 10.7903 126.535 10.7256L126.388 12.2184ZM132.227 12.8475C132.883 12.9244 133.533 13.0027 134.176 13.0822L134.36 11.5935C133.713 11.5136 133.061 11.435 132.402 11.3577L132.227 12.8475ZM138.062 13.588C138.713 13.6771 139.357 13.7673 139.993 13.8587L140.206 12.3739C139.567 12.2821 138.919 12.1914 138.265 12.1018L138.062 13.588ZM143.861 14.4402C144.52 14.5439 145.17 14.6485 145.811 14.754L146.054 13.2739C145.41 13.1679 144.756 13.0626 144.094 12.9584L143.861 14.4402ZM149.667 15.4166C150.321 15.5338 150.964 15.6516 151.597 15.7699L151.872 14.2954C151.236 14.1764 150.589 14.058 149.932 13.9402L149.667 15.4166ZM155.439 16.5184C156.092 16.6507 156.731 16.7832 157.358 16.9155L157.668 15.4478C157.037 15.3147 156.394 15.1815 155.737 15.0483L155.439 16.5184ZM161.174 17.7544C161.829 17.9043 162.467 18.0533 163.087 18.201L163.435 16.7418C162.81 16.593 162.168 16.443 161.508 16.2921L161.174 17.7544ZM166.886 19.1432C167.542 19.3127 168.172 19.4792 168.776 19.642L169.166 18.1937C168.557 18.0295 167.922 17.8617 167.261 17.6909L166.886 19.1432ZM172.543 20.703C173.214 20.9008 173.834 21.0886 174.402 21.2646L174.846 19.8318C174.271 19.6537 173.644 19.464 172.967 19.2642L172.543 20.703ZM178.105 22.4833C178.404 22.5891 178.628 22.671 178.777 22.7261C178.851 22.7537 178.907 22.7746 178.943 22.7884C178.961 22.7953 178.975 22.8005 178.984 22.8038C178.988 22.8055 178.991 22.8067 178.993 22.8075C178.994 22.8078 178.995 22.8081 178.995 22.8082C178.995 22.8083 178.995 22.8084 178.995 22.8084C178.995 22.8084 178.995 22.8084 178.995 22.8084C178.995 22.8084 178.995 22.8084 178.995 22.8084C178.995 22.8084 178.995 22.8084 178.995 22.8084C178.995 22.8084 178.995 22.8083 179.266 22.109C179.537 21.4097 179.537 21.4097 179.537 21.4097C179.537 21.4097 179.537 21.4097 179.537 21.4097C179.537 21.4097 179.537 21.4097 179.537 21.4096C179.537 21.4096 179.537 21.4096 179.537 21.4095C179.537 21.4094 179.536 21.4093 179.536 21.4091C179.535 21.4088 179.534 21.4084 179.533 21.4079C179.53 21.4068 179.526 21.4052 179.521 21.4032C179.51 21.3992 179.495 21.3934 179.475 21.3859C179.435 21.3708 179.376 21.3486 179.298 21.3197C179.143 21.262 178.911 21.1775 178.605 21.0692L178.105 22.4833Z" fill="white"/>
<path d="M95.5484 16.7205L97.2234 12.8261L97.5901 11.9588C97.6568 11.8254 97.8318 11.7087 97.9818 11.7087L100.532 11.7087C101.332 11.7087 102.282 11.1166 102.648 10.3994C102.773 10.1492 102.773 9.84903 102.648 9.59885C102.282 8.89002 101.323 8.29794 100.523 8.29794L97.9734 8.29794C97.8234 8.29794 97.6484 8.18119 97.5818 8.04776L95.5401 3.29442C95.3234 2.76905 94.6651 2.34375 94.0984 2.34375L92.9984 2.34375C92.2901 2.34375 91.9401 2.87746 92.2234 3.53625L94.0234 7.71419C94.1651 8.03942 93.9901 8.30628 93.6318 8.30628L92.7068 8.30628L91.2068 8.30628C91.0151 8.30628 90.7401 8.19787 90.6068 8.06444L88.6651 6.12974C88.4651 5.9296 88.0734 5.83787 87.7901 5.9296L86.6568 6.30487C86.1651 6.45497 85.9318 7.0137 86.1651 7.47236L87.8318 9.45708C88.0901 9.7573 88.0901 10.2493 87.8318 10.5495L86.1651 12.5342C85.9401 12.9929 86.1651 13.5516 86.6568 13.7184L87.7901 14.0937C88.0651 14.1854 88.4651 14.0937 88.6651 13.8935L90.6068 11.9588C90.7401 11.8171 91.0151 11.7087 91.2068 11.7087L93.6318 11.7087C93.9901 11.7087 94.1568 11.9672 94.0234 12.3008L92.2234 16.4787C91.9401 17.1375 92.2901 17.6712 92.9984 17.6712L94.0984 17.6712C94.6651 17.6712 95.3234 17.2459 95.5484 16.7205Z" fill="white"/>
</svg>
