<svg width="184" height="18" viewBox="0 0 184 18" fill="none" xmlns="http://www.w3.org/2000/svg">
<path opacity="0.2" d="M0.962541 14.67L6.5649 17.1426L9.03746 11.5402L3.4351 9.06768L0.962541 14.67ZM183.304 14.67L180.831 9.06768L175.229 11.5402L177.701 17.1426L183.304 14.67ZM6.16136 13.4794C6.55185 13.3413 6.75639 12.9127 6.61822 12.5222C6.48005 12.1317 6.05149 11.9272 5.661 12.0653L6.16136 13.4794ZM9.42067 10.8279C9.02501 10.9504 8.80362 11.3705 8.92618 11.7662C9.04874 12.1619 9.46885 12.3833 9.86452 12.2607L9.42067 10.8279ZM11.7237 11.6991C12.121 11.582 12.3482 11.165 12.2311 10.7676C12.1139 10.3703 11.6969 10.1432 11.2996 10.2603L11.7237 11.6991ZM15.1 9.18978C14.7 9.29755 14.4632 9.70914 14.5709 10.1091C14.6787 10.509 15.0903 10.7459 15.4902 10.6381L15.1 9.18978ZM17.3806 10.1393C17.7816 10.0357 18.0228 9.62662 17.9191 9.22557C17.8155 8.82453 17.4064 8.58342 17.0054 8.68704L17.3806 10.1393ZM20.8315 7.73793C20.4285 7.83389 20.1797 8.23833 20.2756 8.64128C20.3716 9.04422 20.776 9.29309 21.179 9.19713L20.8315 7.73793ZM23.0927 8.75046C23.4965 8.65809 23.749 8.25589 23.6566 7.8521C23.5642 7.44832 23.162 7.19586 22.7582 7.28822L23.0927 8.75046ZM26.5987 6.44393C26.1935 6.52951 25.9343 6.92743 26.0199 7.33271C26.1055 7.73798 26.5034 7.99714 26.9087 7.91156L26.5987 6.44393ZM28.8271 7.51448C29.233 7.43214 29.4954 7.03631 29.413 6.63036C29.3307 6.22441 28.9349 5.96208 28.5289 6.04442L28.8271 7.51448ZM32.3943 5.29148C31.9871 5.36758 31.7187 5.75935 31.7948 6.16651C31.8709 6.57367 32.2627 6.84205 32.6699 6.76595L32.3943 5.29148ZM34.5994 6.41272C35.0071 6.33963 35.2784 5.94987 35.2053 5.54215C35.1322 5.13444 34.7425 4.86317 34.3347 4.93625L34.5994 6.41272ZM38.2119 4.27004C37.8032 4.33728 37.5264 4.72313 37.5936 5.13185C37.6608 5.54057 38.0467 5.81739 38.4554 5.75014L38.2119 4.27004ZM40.4057 5.43631C40.8149 5.37194 41.0944 4.98804 41.03 4.57886C40.9656 4.16968 40.5817 3.89016 40.1726 3.95454L40.4057 5.43631ZM44.0599 3.37C43.6499 3.42884 43.3652 3.80892 43.424 4.21893C43.4829 4.62895 43.863 4.91363 44.273 4.85479L44.0599 3.37ZM46.2047 4.5841C46.6151 4.52796 46.9022 4.14977 46.8461 3.73938C46.79 3.32899 46.4118 3.0418 46.0014 3.09794L46.2047 4.5841ZM49.9067 2.58959C49.4956 2.64041 49.2035 3.01486 49.2544 3.42594C49.3052 3.83703 49.6796 4.12908 50.0907 4.07826L49.9067 2.58959ZM52.0394 3.84364C52.4508 3.79543 52.7452 3.42285 52.697 3.01145C52.6488 2.60005 52.2762 2.30563 51.8648 2.35384L52.0394 3.84364ZM55.7786 1.91995C55.3667 1.96303 55.0676 2.33193 55.1107 2.7439C55.1538 3.15586 55.5227 3.4549 55.9347 3.41181L55.7786 1.91995ZM57.8782 3.21452C58.2904 3.17394 58.5917 2.80687 58.5511 2.39465C58.5105 1.98243 58.1434 1.68115 57.7312 1.72173L57.8782 3.21452ZM61.6499 1.3598C61.2372 1.39543 60.9315 1.75885 60.9672 2.17153C61.0028 2.58421 61.3662 2.88987 61.7789 2.85424L61.6499 1.3598ZM63.7459 2.69033C64.1588 2.65717 64.4666 2.29557 64.4335 1.88269C64.4003 1.4698 64.0387 1.16198 63.6258 1.19515L63.7459 2.69033ZM67.5494 0.903012C67.1362 0.93137 66.8242 1.28936 66.8525 1.7026C66.8809 2.11584 67.2389 2.42785 67.6521 2.39949L67.5494 0.903012ZM69.5955 2.27171C70.0089 2.24571 70.323 1.88951 70.297 1.47611C70.271 1.06271 69.9148 0.748666 69.5014 0.774665L69.5955 2.27171ZM73.4353 0.549717C73.0217 0.571024 72.7036 0.923639 72.7249 1.3373C72.7462 1.75097 73.0988 2.06904 73.5125 2.04773L73.4353 0.549717ZM75.4653 1.95262C75.8791 1.93362 76.1991 1.58279 76.1801 1.16901C76.1611 0.755232 75.8103 0.4352 75.3965 0.454197L75.4653 1.95262ZM79.328 0.295508C78.914 0.309933 78.5901 0.65721 78.6046 1.07117C78.619 1.48513 78.9663 1.80902 79.3802 1.7946L79.328 0.295508ZM81.3478 1.73145C81.7618 1.71929 82.0876 1.3738 82.0754 0.959763C82.0633 0.545728 81.7178 0.219939 81.3037 0.232093L81.3478 1.73145ZM85.2307 0.138045C84.8166 0.145736 84.4871 0.4877 84.4948 0.901842C84.5025 1.31598 84.8444 1.64548 85.2586 1.63779L85.2307 0.138045ZM87.2311 1.60646C87.6452 1.601 87.9766 1.26081 87.9711 0.846635C87.9657 0.432457 87.6255 0.10113 87.2113 0.106595L87.2311 1.60646ZM91.1386 0.0755348C90.7244 0.0766316 90.3895 0.413306 90.3906 0.827518C90.3917 1.24173 90.7283 1.57663 91.1425 1.57553L91.1386 0.0755348ZM93.1239 1.57553C93.5381 1.57663 93.8747 1.24173 93.8758 0.827518C93.8769 0.413306 93.542 0.0766317 93.1278 0.0755349L93.1239 1.57553ZM97.0551 0.106595C96.6409 0.10113 96.3008 0.432457 96.2953 0.846635C96.2898 1.26081 96.6212 1.601 97.0353 1.60646L97.0551 0.106595ZM99.0078 1.63779C99.422 1.64548 99.7639 1.31598 99.7716 0.901842C99.7793 0.4877 99.4498 0.145737 99.0357 0.138045L99.0078 1.63779ZM102.963 0.232093C102.549 0.219939 102.203 0.545728 102.191 0.959763C102.179 1.3738 102.505 1.71929 102.919 1.73145L102.963 0.232093ZM104.886 1.7946C105.3 1.80902 105.647 1.48513 105.662 1.07117C105.676 0.65721 105.352 0.309934 104.938 0.295509L104.886 1.7946ZM108.87 0.454198C108.456 0.4352 108.105 0.755232 108.086 1.16901C108.067 1.58279 108.387 1.93362 108.801 1.95262L108.87 0.454198ZM110.754 2.04773C111.168 2.06904 111.52 1.75097 111.541 1.3373C111.563 0.92364 111.245 0.571025 110.831 0.549718L110.754 2.04773ZM114.765 0.774666C114.352 0.748667 113.995 1.06272 113.969 1.47611C113.943 1.88951 114.257 2.24571 114.671 2.27171L114.765 0.774666ZM116.614 2.39949C117.028 2.42785 117.386 2.11584 117.414 1.7026C117.442 1.28936 117.13 0.931371 116.717 0.903013L116.614 2.39949ZM120.641 1.19515C120.228 1.16198 119.866 1.4698 119.833 1.88269C119.8 2.29557 120.108 2.65717 120.52 2.69033L120.641 1.19515ZM122.488 2.85424C122.9 2.88987 123.264 2.58421 123.299 2.17153C123.335 1.75885 123.029 1.39543 122.617 1.3598L122.488 2.85424ZM126.535 1.72173C126.123 1.68115 125.756 1.98243 125.715 2.39465C125.675 2.80687 125.976 3.17394 126.388 3.21452L126.535 1.72173ZM128.332 3.41181C128.744 3.4549 129.113 3.15586 129.156 2.7439C129.199 2.33193 128.9 1.96304 128.488 1.91995L128.332 3.41181ZM132.402 2.35384C131.99 2.30563 131.618 2.60005 131.569 3.01145C131.521 3.42285 131.816 3.79543 132.227 3.84364L132.402 2.35384ZM134.176 4.07826C134.587 4.12908 134.961 3.83703 135.012 3.42594C135.063 3.01486 134.771 2.64041 134.36 2.58959L134.176 4.07826ZM138.265 3.09794C137.855 3.0418 137.476 3.32899 137.42 3.73938C137.364 4.14977 137.651 4.52796 138.062 4.5841L138.265 3.09794ZM139.993 4.85479C140.403 4.91363 140.784 4.62895 140.842 4.21893C140.901 3.80892 140.617 3.42884 140.206 3.37L139.993 4.85479ZM144.094 3.95454C143.685 3.89016 143.301 4.16968 143.236 4.57886C143.172 4.98804 143.452 5.37194 143.861 5.43631L144.094 3.95454ZM145.811 5.75014C146.22 5.81738 146.606 5.54056 146.673 5.13185C146.74 4.72313 146.463 4.33728 146.054 4.27004L145.811 5.75014ZM149.932 4.93625C149.524 4.86317 149.134 5.13444 149.061 5.54215C148.988 5.94987 149.259 6.33963 149.667 6.41272L149.932 4.93625ZM151.597 6.76595C152.004 6.84205 152.395 6.57367 152.472 6.16651C152.548 5.75935 152.279 5.36758 151.872 5.29148L151.597 6.76595ZM155.737 6.04441C155.332 5.96208 154.936 6.22441 154.853 6.63036C154.771 7.03631 155.033 7.43214 155.439 7.51448L155.737 6.04441ZM157.358 7.91156C157.763 7.99714 158.161 7.73798 158.247 7.3327C158.332 6.92743 158.073 6.52951 157.668 6.44392L157.358 7.91156ZM161.508 7.28822C161.104 7.19586 160.702 7.44832 160.61 7.8521C160.517 8.25589 160.77 8.65809 161.174 8.75045L161.508 7.28822ZM163.087 9.19713C163.49 9.29308 163.895 9.04422 163.991 8.64127C164.087 8.23833 163.838 7.83389 163.435 7.73793L163.087 9.19713ZM167.261 8.68703C166.86 8.58341 166.451 8.82453 166.347 9.22557C166.244 9.62661 166.485 10.0357 166.886 10.1393L167.261 8.68703ZM168.776 10.6381C169.176 10.7459 169.588 10.509 169.695 10.1091C169.803 9.70914 169.566 9.29755 169.166 9.18977L168.776 10.6381ZM172.967 10.2603C172.569 10.1432 172.152 10.3703 172.035 10.7676C171.918 11.1649 172.145 11.582 172.543 11.6991L172.967 10.2603ZM174.402 12.2607C174.798 12.3833 175.218 12.1619 175.34 11.7662C175.463 11.3705 175.241 10.9504 174.846 10.8279L174.402 12.2607ZM178.605 12.0653C178.215 11.9272 177.786 12.1317 177.648 12.5222C177.51 12.9127 177.715 13.3413 178.105 13.4794L178.605 12.0653ZM5 13.1051C5.27105 13.8044 5.27103 13.8045 5.27101 13.8045C5.27101 13.8045 5.27099 13.8045 5.27098 13.8045C5.27097 13.8045 5.27095 13.8045 5.27095 13.8045C5.27093 13.8045 5.27093 13.8045 5.27096 13.8045C5.271 13.8045 5.27112 13.8044 5.27131 13.8043C5.2717 13.8042 5.27238 13.8039 5.27337 13.8035C5.27533 13.8028 5.27849 13.8016 5.28285 13.7999C5.29155 13.7966 5.30502 13.7914 5.32325 13.7845C5.35969 13.7707 5.41515 13.7498 5.4895 13.7222C5.6382 13.6671 5.86247 13.5852 6.16136 13.4794L5.661 12.0653C5.35495 12.1736 5.12362 12.2581 4.96797 12.3158C4.89014 12.3447 4.83123 12.3669 4.79136 12.382C4.77142 12.3895 4.75624 12.3953 4.74583 12.3993C4.74063 12.4013 4.73662 12.4029 4.73381 12.404C4.7324 12.4045 4.73129 12.4049 4.73048 12.4052C4.73008 12.4054 4.72975 12.4055 4.72949 12.4056C4.72936 12.4057 4.72926 12.4057 4.72917 12.4057C4.72912 12.4058 4.72908 12.4058 4.72904 12.4058C4.72903 12.4058 4.729 12.4058 4.72899 12.4058C4.72897 12.4058 4.72895 12.4058 5 13.1051ZM9.86452 12.2607C10.4327 12.0847 11.0527 11.8969 11.7237 11.6991L11.2996 10.2603C10.6219 10.4601 9.9954 10.6498 9.42067 10.8279L9.86452 12.2607ZM15.4902 10.6381C16.0944 10.4753 16.7246 10.3088 17.3806 10.1393L17.0054 8.68704C16.3443 8.85783 15.7091 9.02563 15.1 9.18978L15.4902 10.6381ZM21.179 9.19713C21.7994 9.04937 22.4374 8.90035 23.0927 8.75046L22.7582 7.28822C22.0986 7.43911 21.4563 7.58914 20.8315 7.73793L21.179 9.19713ZM26.9087 7.91156C27.5352 7.77926 28.1747 7.64681 28.8271 7.51448L28.5289 6.04442C27.8726 6.17755 27.2291 6.3108 26.5987 6.44393L26.9087 7.91156ZM32.6699 6.76595C33.3027 6.64767 33.9459 6.52987 34.5994 6.41272L34.3347 4.93625C33.6775 5.05406 33.0307 5.17253 32.3943 5.29148L32.6699 6.76595ZM38.4554 5.75014C39.0968 5.64462 39.7469 5.53997 40.4057 5.43631L40.1726 3.95454C39.5103 4.05874 38.8567 4.16395 38.2119 4.27004L38.4554 5.75014ZM44.273 4.85479C44.9096 4.76344 45.5535 4.67317 46.2047 4.5841L46.0014 3.09794C45.3469 3.18746 44.6998 3.27818 44.0599 3.37L44.273 4.85479ZM50.0907 4.07826C50.7338 3.99875 51.3834 3.92052 52.0394 3.84364L51.8648 2.35384C51.2056 2.43108 50.5529 2.5097 49.9067 2.58959L50.0907 4.07826ZM55.9347 3.41181C56.5769 3.34464 57.2247 3.27885 57.8782 3.21452L57.7312 1.72173C57.0747 1.78636 56.4238 1.85246 55.7786 1.91995L55.9347 3.41181ZM61.7789 2.85424C62.4294 2.79808 63.0851 2.74342 63.7459 2.69033L63.6258 1.19515C62.962 1.24848 62.3033 1.30338 61.6499 1.3598L61.7789 2.85424ZM67.6521 2.39949C68.2953 2.35535 68.9432 2.31273 69.5955 2.27171L69.5014 0.774665C68.8462 0.815872 68.1955 0.858674 67.5494 0.903012L67.6521 2.39949ZM73.5125 2.04773C74.1592 2.01442 74.8102 1.9827 75.4653 1.95262L75.3965 0.454197C74.7386 0.484404 74.0849 0.516262 73.4353 0.549717L73.5125 2.04773ZM79.3802 1.7946C80.0322 1.77188 80.688 1.75081 81.3478 1.73145L81.3037 0.232093C80.6413 0.25154 79.9827 0.272695 79.328 0.295508L79.3802 1.7946ZM85.2586 1.63779C85.9125 1.62564 86.57 1.61519 87.2311 1.60646L87.2113 0.106595C86.5475 0.115353 85.8873 0.125852 85.2307 0.138045L85.2586 1.63779ZM91.1425 1.57553C91.4719 1.57466 91.8021 1.57422 92.1332 1.57422L92.1332 0.0742188C91.8008 0.0742188 91.4693 0.0746592 91.1386 0.0755348L91.1425 1.57553ZM92.1332 1.57422C92.4643 1.57422 92.7945 1.57466 93.1239 1.57553L93.1278 0.0755349C92.7971 0.0746592 92.4656 0.0742188 92.1332 0.0742188L92.1332 1.57422ZM97.0353 1.60646C97.6964 1.61519 98.354 1.62564 99.0078 1.63779L99.0357 0.138045C98.3791 0.125852 97.7189 0.115354 97.0551 0.106595L97.0353 1.60646ZM102.919 1.73145C103.578 1.75081 104.234 1.77188 104.886 1.7946L104.938 0.295509C104.284 0.272696 103.625 0.251541 102.963 0.232093L102.919 1.73145ZM108.801 1.95262C109.456 1.9827 110.107 2.01442 110.754 2.04773L110.831 0.549718C110.182 0.516263 109.528 0.484405 108.87 0.454198L108.801 1.95262ZM114.671 2.27171C115.323 2.31274 115.971 2.35535 116.614 2.39949L116.717 0.903013C116.071 0.858675 115.42 0.815873 114.765 0.774666L114.671 2.27171ZM120.52 2.69033C121.181 2.74342 121.837 2.79808 122.488 2.85424L122.617 1.3598C121.963 1.30339 121.304 1.24848 120.641 1.19515L120.52 2.69033ZM126.388 3.21452C127.042 3.27885 127.69 3.34464 128.332 3.41181L128.488 1.91995C127.843 1.85246 127.192 1.78636 126.535 1.72173L126.388 3.21452ZM132.227 3.84364C132.883 3.92052 133.533 3.99875 134.176 4.07826L134.36 2.58959C133.713 2.5097 133.061 2.43108 132.402 2.35384L132.227 3.84364ZM138.062 4.5841C138.713 4.67317 139.357 4.76344 139.993 4.85479L140.206 3.37C139.567 3.27818 138.919 3.18746 138.265 3.09794L138.062 4.5841ZM143.861 5.43631C144.52 5.53997 145.17 5.64462 145.811 5.75014L146.054 4.27004C145.41 4.16395 144.756 4.05874 144.094 3.95454L143.861 5.43631ZM149.667 6.41272C150.321 6.52987 150.964 6.64767 151.597 6.76595L151.872 5.29148C151.236 5.17253 150.589 5.05406 149.932 4.93625L149.667 6.41272ZM155.439 7.51448C156.092 7.64681 156.731 7.77925 157.358 7.91156L157.668 6.44392C157.037 6.3108 156.394 6.17755 155.737 6.04441L155.439 7.51448ZM161.174 8.75045C161.829 8.90035 162.467 9.04936 163.087 9.19713L163.435 7.73793C162.81 7.58914 162.168 7.43911 161.508 7.28822L161.174 8.75045ZM166.886 10.1393C167.542 10.3088 168.172 10.4753 168.776 10.6381L169.166 9.18977C168.557 9.02562 167.922 8.85782 167.261 8.68703L166.886 10.1393ZM172.543 11.6991C173.214 11.8969 173.834 12.0847 174.402 12.2607L174.846 10.8279C174.271 10.6498 173.644 10.4601 172.967 10.2603L172.543 11.6991ZM178.105 13.4794C178.404 13.5852 178.628 13.6671 178.777 13.7222C178.851 13.7498 178.907 13.7707 178.943 13.7845C178.961 13.7914 178.975 13.7966 178.984 13.7999C178.988 13.8016 178.991 13.8028 178.993 13.8035C178.994 13.8039 178.995 13.8042 178.995 13.8043C178.995 13.8044 178.995 13.8045 178.995 13.8045C178.995 13.8045 178.995 13.8045 178.995 13.8045C178.995 13.8045 178.995 13.8045 178.995 13.8045C178.995 13.8045 178.995 13.8045 178.995 13.8045C178.995 13.8045 178.995 13.8044 179.266 13.1051C179.537 12.4058 179.537 12.4058 179.537 12.4058C179.537 12.4058 179.537 12.4058 179.537 12.4058C179.537 12.4058 179.537 12.4058 179.537 12.4057C179.537 12.4057 179.537 12.4057 179.537 12.4056C179.537 12.4055 179.536 12.4054 179.536 12.4052C179.535 12.4049 179.534 12.4045 179.533 12.404C179.53 12.4029 179.526 12.4013 179.521 12.3993C179.51 12.3953 179.495 12.3895 179.475 12.382C179.435 12.3669 179.376 12.3447 179.298 12.3158C179.143 12.2581 178.911 12.1736 178.605 12.0653L178.105 13.4794Z" fill="white"/>
</svg>
