<svg width="384" height="38" viewBox="0 0 384 38" fill="none" xmlns="http://www.w3.org/2000/svg">
<path d="M13.3172 28.6409C13.3144 30.1136 14.506 31.3098 15.9787 31.3127C17.4515 31.3155 18.6477 30.1239 18.6505 28.6511C18.6533 27.1784 17.4617 25.9822 15.9889 25.9794C14.5162 25.9765 13.32 27.1681 13.3172 28.6409ZM365.317 29.3183C365.314 30.791 366.505 31.9872 367.978 31.9901C369.451 31.9929 370.647 30.8013 370.65 29.3285C370.653 27.8558 369.461 26.6596 367.988 26.6567C366.516 26.6539 365.319 27.8455 365.317 29.3183ZM16.3226 29.0846L16.8115 28.9798L16.6017 28.002L16.1128 28.1069L16.3226 29.0846ZM19.9828 27.2946L19.493 27.3952L19.6943 28.3747L20.184 28.2741L19.9828 27.2946ZM20.6829 28.1719L21.1728 28.0718L20.9726 27.092L20.4827 27.1921L20.6829 28.1719ZM24.3702 26.4139L23.8796 26.5101L24.0721 27.4914L24.5627 27.3952L24.3702 26.4139ZM25.0522 27.2994L25.5429 27.2036L25.3513 26.2221L24.8606 26.3179L25.0522 27.2994ZM28.7974 25.5645L28.306 25.6567L28.4905 26.6395L28.9819 26.5473L28.7974 25.5645ZM29.4625 26.4573L29.954 26.3656L29.7704 25.3826L29.2789 25.4743L29.4625 26.4573ZM33.2226 24.7517L32.7305 24.8402L32.9075 25.8244L33.3996 25.736L33.2226 24.7517ZM33.9031 25.6457L34.3953 25.5576L34.2192 24.5732L33.727 24.6613L33.9031 25.6457ZM37.611 23.9791L37.1183 24.064L37.2882 25.0495L37.781 24.9645L37.611 23.9791ZM38.2733 24.8798L38.7661 24.7952L38.5969 23.8096L38.1041 23.8942L38.2733 24.8798ZM42.061 23.2274L41.5677 23.309L41.7309 24.2956L42.2242 24.214L42.061 23.2274ZM42.7066 24.1344L43.2 24.0531L43.0374 23.0664L42.5441 23.1477L42.7066 24.1344ZM46.4772 22.5116L45.9834 22.59L46.1403 23.5776L46.6341 23.4992L46.4772 22.5116ZM47.1335 23.4201L47.6274 23.342L47.4712 22.3543L46.9774 22.4323L47.1335 23.4201ZM50.9038 21.8228L50.4095 21.8981L50.5602 22.8867L51.0545 22.8114L50.9038 21.8228ZM51.5431 22.737L52.0375 22.662L51.8874 21.6733L51.3931 21.7484L51.5431 22.737ZM55.3672 21.1562L54.8724 21.2286L55.0172 22.2181L55.5119 22.1457L55.3672 21.1562ZM56.0154 22.0722L56.5102 22.0002L56.3661 21.0106L55.8713 21.0827L56.0154 22.0722ZM59.7771 20.5243L59.282 20.5938L59.421 21.5841L59.9162 21.5146L59.7771 20.5243ZM60.4086 21.4456L60.9038 21.3764L60.7654 20.386L60.2702 20.4552L60.4086 21.4456ZM64.267 19.9072L63.7715 19.9738L63.9048 20.9649L64.4003 20.8983L64.267 19.9072ZM64.8877 20.8328L65.3832 20.7665L65.2505 19.7753L64.7549 19.8417L64.8877 20.8328ZM68.6691 19.3272L68.1732 19.3912L68.3011 20.383L68.797 20.319L68.6691 19.3272ZM69.2915 20.2554L69.7874 20.1917L69.6601 19.1999L69.1642 19.2635L69.2915 20.2554ZM73.1628 18.7602L72.6666 18.8214L72.7891 19.8139L73.2853 19.7526L73.1628 18.7602ZM73.7702 19.6929L74.2665 19.632L74.1446 18.6394L73.6483 18.7004L73.7702 19.6929ZM77.5739 18.2275L77.0773 18.2862L77.1946 19.2793L77.6912 19.2206L77.5739 18.2275ZM78.1865 19.1623L78.6831 19.1039L78.5663 18.1108L78.0698 18.1691L78.1865 19.1623ZM82.0735 17.7082L81.5767 17.7642L81.6888 18.7579L82.1856 18.7019L82.0735 17.7082ZM82.6716 18.6472L83.1684 18.5914L83.0569 17.5977L82.56 17.6534L82.6716 18.6472ZM86.4895 17.2216L85.9923 17.2751L86.0994 18.2693L86.5965 18.2158L86.4895 17.2216ZM87.0917 18.1627L87.5889 18.1094L87.4824 17.1151L86.9853 17.1683L87.0917 18.1627ZM90.9887 16.749L90.4913 16.7999L90.5933 17.7947L91.0907 17.7437L90.9887 16.749ZM91.5892 17.6928L92.0866 17.6421L91.9852 16.6473L91.4878 16.698L91.5892 17.6928ZM95.4156 16.3064L94.918 16.3549L95.015 17.3502L95.5127 17.3017L95.4156 16.3064ZM96.0073 17.2536L96.505 17.2054L96.4085 16.2101L95.9108 16.2583L96.0073 17.2536ZM99.9054 15.8801L99.4075 15.9261L99.4996 16.9219L99.9975 16.8758L99.9054 15.8801ZM100.5 16.8295L100.998 16.7837L100.907 15.7879L100.409 15.8337L100.5 16.8295ZM104.353 15.4798L103.855 15.5234L103.942 16.5196L104.44 16.4759L104.353 15.4798ZM104.934 16.4329L105.432 16.3895L105.345 15.3933L104.847 15.4366L104.934 16.4329ZM108.83 15.0987L108.332 15.1399L108.414 16.1365L108.913 16.0953L108.83 15.0987ZM109.414 16.054L109.912 16.0131L109.83 15.0164L109.332 15.0574L109.414 16.054ZM113.303 14.7397L112.805 14.7785L112.882 15.7755L113.381 15.7367L113.303 14.7397ZM113.873 15.6985L114.372 15.66L114.294 14.6629L113.796 14.7015L113.873 15.6985ZM117.765 14.403L117.267 14.4395L117.34 15.4368L117.838 15.4004L117.765 14.403ZM118.337 15.364L118.836 15.3279L118.764 14.3305L118.265 14.3667L118.337 15.364ZM122.267 14.0849L121.768 14.119L121.836 15.1167L122.335 15.0826L122.267 14.0849ZM122.826 15.0492L123.324 15.0154L123.257 14.0177L122.758 14.0515L122.826 15.0492ZM126.713 13.7918L126.214 13.8235L126.278 14.8215L126.777 14.7898L126.713 13.7918ZM127.273 14.7583L127.772 14.7268L127.71 13.7288L127.211 13.7603L127.273 14.7583ZM131.215 13.5162L130.716 13.5455L130.775 14.5438L131.274 14.5144L131.215 13.5162ZM131.777 14.4849L132.276 14.4558L132.218 13.4575L131.719 13.4866L131.777 14.4849ZM135.675 13.264L135.175 13.2911L135.229 14.2896L135.729 14.2626L135.675 13.264ZM136.223 14.2359L136.723 14.2091L136.669 13.2105L136.17 13.2373L136.223 14.2359ZM140.155 13.0316L139.656 13.0563L139.705 14.0551L140.205 14.0303L140.155 13.0316ZM140.705 14.0057L141.205 13.9812L141.156 12.9824L140.656 13.0069L140.705 14.0057ZM144.651 12.8192L144.151 12.8417L144.196 13.8407L144.696 13.8182L144.651 12.8192ZM145.189 13.7962L145.688 13.774L145.644 12.775L145.144 12.7972L145.189 13.7962ZM149.111 12.6292L148.611 12.6493L148.651 13.6485L149.151 13.6284L149.111 12.6292ZM149.649 13.6084L150.149 13.5886L150.109 12.5893L149.609 12.6092L149.649 13.6084ZM153.617 12.458L153.117 12.4758L153.153 13.4752L153.652 13.4573L153.617 12.458ZM154.155 13.4395L154.655 13.4219L154.62 12.4225L154.12 12.4401L154.155 13.4395ZM158.082 12.3088L157.583 12.3244L157.614 13.3239L158.114 13.3083L158.082 12.3088ZM158.609 13.293L159.109 13.2777L159.078 12.2782L158.578 12.2935L158.609 13.293ZM162.564 12.1796L162.064 12.1929L162.091 13.1925L162.591 13.1793L162.564 12.1796ZM163.091 13.1661L163.591 13.1531L163.565 12.1535L163.065 12.1665L163.091 13.1661ZM167.071 12.0704L166.571 12.0814L166.593 13.0811L167.093 13.0702L167.071 12.0704ZM167.586 13.0595L168.086 13.0488L168.064 12.049L167.564 12.0597L167.586 13.0595ZM171.53 11.9827L171.03 11.9914L171.047 12.9913L171.547 12.9826L171.53 11.9827ZM172.044 12.974L172.544 12.9656L172.527 11.9657L172.027 11.9742L172.044 12.974ZM176.027 11.9148L175.527 11.9212L175.54 12.9211L176.04 12.9147L176.027 11.9148ZM176.542 12.9084L177.041 12.9022L177.029 11.9023L176.529 11.9085L176.542 12.9084ZM180.513 11.8675L180.013 11.8716L180.021 12.8716L180.521 12.8675L180.513 11.8675ZM181.016 12.8635L181.516 12.8596L181.508 11.8597L181.008 11.8636L181.016 12.8635ZM184.985 11.8408L184.485 11.8426L184.489 12.8426L184.989 12.8408L184.985 11.8408ZM185.488 12.839L185.988 12.8374L185.984 11.8374L185.484 11.839L185.488 12.839ZM189.493 11.8344L188.993 11.8339L188.992 12.8339L189.492 12.8344L189.493 11.8344ZM189.995 12.835L190.495 12.8356L190.496 11.8356L189.996 11.835L189.995 12.835ZM193.962 11.8485L193.462 11.8458L193.457 12.8457L193.957 12.8484L193.962 11.8485ZM194.453 12.8513L194.953 12.8542L194.958 11.8542L194.458 11.8513L194.453 12.8513ZM198.444 11.883L197.944 11.878L197.934 12.878L198.434 12.8829L198.444 11.883ZM198.933 12.8881L199.433 12.8933L199.444 11.8934L198.944 11.8881L198.933 12.8881ZM202.957 11.9384L202.457 11.9312L202.443 12.931L202.943 12.9383L202.957 11.9384ZM203.436 12.9457L203.936 12.9532L203.951 11.9533L203.451 11.9458L203.436 12.9457ZM207.414 12.0136L206.914 12.004L206.895 13.0038L207.395 13.0134L207.414 12.0136ZM207.892 13.023L208.391 13.0329L208.411 12.033L207.911 12.0232L207.892 13.023ZM211.901 12.1097L211.401 12.0979L211.378 13.0976L211.877 13.1095L211.901 12.1097ZM212.377 13.1214L212.877 13.1336L212.901 12.1338L212.401 12.1217L212.377 13.1214ZM216.403 12.2269L215.903 12.2127L215.875 13.2123L216.375 13.2265L216.403 12.2269ZM216.868 13.2406L217.368 13.255L217.397 12.2554L216.897 12.241L216.868 13.2406ZM220.865 12.3635L220.365 12.3471L220.332 13.3465L220.832 13.363L220.865 12.3635ZM221.329 13.3794L221.828 13.3961L221.862 12.3967L221.362 12.38L221.329 13.3794ZM225.354 12.5216L224.854 12.5028L224.816 13.5021L225.316 13.5209L225.354 12.5216ZM225.816 13.5398L226.316 13.5588L226.354 12.5595L225.854 12.5405L225.816 13.5398ZM229.847 12.7006L229.347 12.6795L229.305 13.6786L229.804 13.6997L229.847 12.7006ZM230.299 13.7207L230.798 13.742L230.841 12.7429L230.341 12.7216L230.299 13.7207ZM234.31 12.899L233.81 12.8757L233.764 13.8746L234.263 13.8979L234.31 12.899ZM234.76 13.9213L235.259 13.9449L235.307 12.946L234.807 12.9224L234.76 13.9213ZM238.798 13.1194L238.299 13.0937L238.247 14.0924L238.747 14.1181L238.798 13.1194ZM239.246 14.1439L239.746 14.1698L239.798 13.1712L239.298 13.1453L239.246 14.1439ZM243.284 13.3606L242.785 13.3326L242.729 14.331L243.228 14.359L243.284 13.3606ZM243.723 14.3869L244.222 14.4151L244.278 13.4167L243.779 13.3885L243.723 14.3869ZM247.747 13.6213L247.248 13.5909L247.187 14.5891L247.686 14.6194L247.747 13.6213ZM248.183 14.6497L248.682 14.6803L248.743 13.6822L248.244 13.6516L248.183 14.6497ZM252.232 13.9043L251.733 13.8716L251.668 14.8695L252.166 14.9021L252.232 13.9043ZM252.666 14.9349L253.165 14.9678L253.23 13.97L252.732 13.9371L252.666 14.9349ZM256.713 14.2081L256.214 14.1731L256.145 15.1707L256.643 15.2057L256.713 14.2081ZM257.137 15.2404L257.636 15.2757L257.706 14.2782L257.208 14.2429L257.137 15.2404ZM261.172 14.5315L260.674 14.4941L260.599 15.4913L261.098 15.5287L261.172 14.5315ZM261.594 15.5659L262.092 15.6035L262.168 14.6064L261.669 14.5688L261.594 15.5659ZM265.652 14.8775L265.154 14.8378L265.074 15.8346L265.573 15.8743L265.652 14.8775ZM266.071 15.9142L266.57 15.9541L266.65 14.9573L266.151 14.9173L266.071 15.9142ZM270.13 15.2447L269.632 15.2026L269.548 16.1991L270.046 16.2411L270.13 15.2447ZM270.539 16.2829L271.038 16.3252L271.122 15.3288L270.624 15.2865L270.539 16.2829ZM274.584 15.6311L274.086 15.5867L273.997 16.5827L274.495 16.6271L274.584 15.6311ZM274.991 16.6714L275.489 16.7161L275.578 15.7201L275.08 15.6754L274.991 16.6714ZM279.057 16.0406L278.559 15.9938L278.466 16.9894L278.963 17.0362L279.057 16.0406ZM279.461 17.0831L279.959 17.1301L280.053 16.1345L279.555 16.0875L279.461 17.0831ZM283.532 16.4718L283.034 16.4226L282.936 17.4178L283.434 17.4669L283.532 16.4718ZM283.926 17.5157L284.424 17.5652L284.523 16.5701L284.025 16.5206L283.926 17.5157ZM287.979 16.9218L287.482 16.8702L287.379 17.8649L287.876 17.9164L287.979 16.9218ZM288.371 17.9678L288.868 18.0196L288.971 17.025L288.474 16.9732L288.371 17.9678ZM292.443 17.3951L291.946 17.3412L291.838 18.3354L292.335 18.3893L292.443 17.3951ZM292.832 18.4433L293.329 18.4975L293.437 17.5034L292.94 17.4492L292.832 18.4433ZM296.916 17.8913L296.419 17.8349L296.307 18.8286L296.803 18.8849L296.916 17.8913ZM297.295 18.9408L297.792 18.9974L297.905 18.0038L297.408 17.9472L297.295 18.9408ZM301.354 18.4053L300.858 18.3466L300.74 19.3397L301.237 19.3984L301.354 18.4053ZM301.73 19.4569L302.227 19.5159L302.345 18.5229L301.848 18.4639L301.73 19.4569ZM305.808 18.9431L305.312 18.8819L305.19 19.8744L305.686 19.9355L305.808 18.9431ZM306.182 19.9967L306.678 20.0581L306.801 19.0657L306.304 19.0043L306.182 19.9967ZM310.278 19.5048L309.782 19.4413L309.655 20.4331L310.151 20.4967L310.278 19.5048ZM310.643 20.5599L311.139 20.6237L311.266 19.6319L310.77 19.5681L310.643 20.5599ZM314.707 20.0836L314.212 20.0176L314.08 21.0088L314.575 21.0748L314.707 20.0836ZM315.068 21.1405L315.563 21.2068L315.696 20.2156L315.2 20.1493L315.068 21.1405ZM319.15 20.6862L318.655 20.6178L318.518 21.6084L319.013 21.6768L319.15 20.6862ZM319.507 21.7452L320.002 21.8139L320.14 20.8234L319.645 20.7547L319.507 21.7452ZM323.607 21.3132L323.112 21.2423L322.97 22.2322L323.465 22.3031L323.607 21.3132ZM323.96 22.3742L324.455 22.4453L324.598 21.4555L324.103 21.3844L323.96 22.3742ZM328.035 21.9586L327.541 21.8853L327.394 22.8744L327.889 22.9478L328.035 21.9586ZM328.38 23.0207L328.874 23.0943L329.021 22.1052L328.527 22.0316L328.38 23.0207ZM332.465 22.6266L331.971 22.5508L331.819 23.5393L332.313 23.6151L332.465 22.6266ZM332.806 23.6907L333.3 23.7668L333.452 22.7784L332.958 22.7024L332.806 23.6907ZM336.907 23.3193L336.414 23.241L336.257 24.2287L336.751 24.307L336.907 23.3193ZM337.245 24.3854L337.738 24.4639L337.896 23.4764L337.402 23.3978L337.245 24.3854ZM341.335 24.0324L340.841 23.9517L340.68 24.9385L341.173 25.0193L341.335 24.0324ZM341.663 25.0995L342.156 25.1806L342.318 24.1938L341.825 24.1128L341.663 25.0995ZM345.75 24.7664L345.257 24.6832L345.091 25.6693L345.584 25.7525L345.75 24.7664ZM346.075 25.8355L346.568 25.919L346.735 24.933L346.242 24.8495L346.075 25.8355ZM350.177 25.5254L349.685 25.4396L349.513 26.4248L350.006 26.5106L350.177 25.5254ZM350.498 26.5963L350.99 26.6823L351.162 25.6972L350.67 25.6112L350.498 26.5963ZM354.603 26.3072L354.111 26.219L353.934 27.2033L354.426 27.2915L354.603 26.3072ZM354.914 27.3791L355.406 27.4677L355.583 26.4835L355.091 26.3949L354.914 27.3791ZM359.003 27.1078L358.511 27.017L358.33 28.0004L358.821 28.0912L359.003 27.1078ZM359.31 28.1816L359.802 28.2726L359.984 27.2893L359.492 27.1983L359.31 28.1816ZM363.413 27.9335L362.922 27.8402L362.735 28.8227L363.227 28.9159L363.413 27.9335ZM363.717 29.0091L364.208 29.1027L364.395 28.1204L363.904 28.0268L363.717 29.0091ZM367.833 28.7847L367.343 28.6889L367.151 29.6703L367.642 29.7662L367.833 28.7847ZM16.089 29.1348C16.1667 29.1181 16.2446 29.1014 16.3226 29.0846L16.1128 28.1069C16.0346 28.1237 15.9566 28.1404 15.8787 28.1572L16.089 29.1348ZM20.184 28.2741C20.3497 28.2401 20.516 28.206 20.6829 28.1719L20.4827 27.1921C20.3155 27.2263 20.1488 27.2605 19.9828 27.2946L20.184 28.2741ZM24.5627 27.3952C24.7254 27.3633 24.8885 27.3313 25.0522 27.2994L24.8606 26.3179C24.6966 26.3499 24.5332 26.3819 24.3702 26.4139L24.5627 27.3952ZM28.9819 26.5473C29.1417 26.5173 29.3019 26.4874 29.4625 26.4573L29.2789 25.4743C29.118 25.5044 28.9575 25.5344 28.7974 25.5645L28.9819 26.5473ZM33.3996 25.736C33.567 25.7059 33.7349 25.6758 33.9031 25.6457L33.727 24.6613C33.5585 24.6914 33.3903 24.7216 33.2226 24.7517L33.3996 25.736ZM37.781 24.9645C37.9447 24.9363 38.1088 24.908 38.2733 24.8798L38.1041 23.8942C37.9394 23.9225 37.775 23.9508 37.611 23.9791L37.781 24.9645ZM42.2242 24.214C42.3847 24.1875 42.5455 24.1609 42.7066 24.1344L42.5441 23.1477C42.3827 23.1742 42.2217 23.2008 42.061 23.2274L42.2242 24.214ZM46.6341 23.4992C46.8002 23.4728 46.9667 23.4464 47.1335 23.4201L46.9774 22.4323C46.8103 22.4587 46.6436 22.4851 46.4772 22.5116L46.6341 23.4992ZM51.0545 22.8114C51.2171 22.7866 51.38 22.7618 51.5431 22.737L51.3931 21.7484C51.2297 21.7731 51.0666 21.798 50.9038 21.8228L51.0545 22.8114ZM55.5119 22.1457C55.6795 22.1212 55.8473 22.0967 56.0154 22.0722L55.8713 21.0827C55.703 21.1072 55.535 21.1317 55.3672 21.1562L55.5119 22.1457ZM59.9162 21.5146C60.0801 21.4915 60.2442 21.4686 60.4086 21.4456L60.2702 20.4552C60.1056 20.4782 59.9413 20.5012 59.7771 20.5243L59.9162 21.5146ZM64.4003 20.8983C64.5626 20.8764 64.725 20.8546 64.8877 20.8328L64.7549 19.8417C64.5921 19.8635 64.4294 19.8853 64.267 19.9072L64.4003 20.8983ZM68.797 20.319C68.9616 20.2978 69.1264 20.2766 69.2915 20.2554L69.1642 19.2635C68.9989 19.2847 68.8339 19.306 68.6691 19.3272L68.797 20.319ZM73.2853 19.7526C73.4468 19.7327 73.6084 19.7128 73.7702 19.6929L73.6483 18.7004C73.4863 18.7203 73.3244 18.7402 73.1628 18.7602L73.2853 19.7526ZM77.6912 19.2206C77.8561 19.2011 78.0212 19.1817 78.1865 19.1623L78.0698 18.1691C77.9043 18.1886 77.739 18.208 77.5739 18.2275L77.6912 19.2206ZM82.1856 18.7019C82.3474 18.6836 82.5094 18.6654 82.6716 18.6472L82.56 17.6534C82.3977 17.6716 82.2355 17.6899 82.0735 17.7082L82.1856 18.7019ZM86.5965 18.2158C86.7614 18.1981 86.9265 18.1804 87.0917 18.1627L86.9853 17.1683C86.8198 17.1861 86.6546 17.2038 86.4895 17.2216L86.5965 18.2158ZM91.0907 17.7437C91.2567 17.7267 91.4228 17.7098 91.5892 17.6928L91.4878 16.698C91.3213 16.7149 91.1549 16.7319 90.9887 16.749L91.0907 17.7437ZM95.5127 17.3017C95.6774 17.2857 95.8423 17.2696 96.0073 17.2536L95.9108 16.2583C95.7456 16.2743 95.5805 16.2904 95.4156 16.3064L95.5127 17.3017ZM99.9975 16.8758C100.165 16.8603 100.333 16.8449 100.5 16.8295L100.409 15.8337C100.241 15.8491 100.073 15.8646 99.9054 15.8801L99.9975 16.8758ZM104.44 16.4759C104.605 16.4615 104.769 16.4472 104.934 16.4329L104.847 15.4366C104.682 15.451 104.518 15.4653 104.353 15.4798L104.44 16.4759ZM108.913 16.0953C109.08 16.0815 109.247 16.0677 109.414 16.054L109.332 15.0574C109.165 15.0711 108.997 15.0849 108.83 15.0987L108.913 16.0953ZM113.381 15.7367C113.545 15.7239 113.709 15.7112 113.873 15.6985L113.796 14.7015C113.632 14.7142 113.467 14.7269 113.303 14.7397L113.381 15.7367ZM117.838 15.4004C118.005 15.3882 118.171 15.3761 118.337 15.364L118.265 14.3667C118.098 14.3787 117.932 14.3909 117.765 14.403L117.838 15.4004ZM122.335 15.0826C122.498 15.0714 122.662 15.0603 122.826 15.0492L122.758 14.0515C122.594 14.0626 122.43 14.0738 122.267 14.0849L122.335 15.0826ZM126.777 14.7898C126.942 14.7792 127.108 14.7687 127.273 14.7583L127.211 13.7603C127.045 13.7707 126.879 13.7812 126.713 13.7918L126.777 14.7898ZM131.274 14.5144C131.441 14.5046 131.609 14.4947 131.777 14.4849L131.719 13.4866C131.551 13.4964 131.383 13.5063 131.215 13.5162L131.274 14.5144ZM135.729 14.2626C135.893 14.2536 136.058 14.2447 136.223 14.2359L136.17 13.2373C136.005 13.2462 135.84 13.2551 135.675 13.264L135.729 14.2626ZM140.205 14.0303C140.372 14.0221 140.538 14.0139 140.705 14.0057L140.656 13.0069C140.489 13.0151 140.322 13.0233 140.155 13.0316L140.205 14.0303ZM144.696 13.8182C144.86 13.8109 145.024 13.8035 145.189 13.7962L145.144 12.7972C144.98 12.8045 144.815 12.8118 144.651 12.8192L144.696 13.8182ZM149.151 13.6284C149.317 13.6217 149.483 13.615 149.649 13.6084L149.609 12.6092C149.443 12.6158 149.277 12.6225 149.111 12.6292L149.151 13.6284ZM153.652 13.4573C153.82 13.4513 153.988 13.4454 154.155 13.4395L154.12 12.4401C153.952 12.446 153.784 12.452 153.617 12.458L153.652 13.4573ZM158.114 13.3083C158.279 13.3032 158.444 13.2981 158.609 13.293L158.578 12.2935C158.413 12.2986 158.248 12.3037 158.082 12.3088L158.114 13.3083ZM162.591 13.1793C162.757 13.1748 162.924 13.1705 163.091 13.1661L163.065 12.1665C162.898 12.1708 162.731 12.1752 162.564 12.1796L162.591 13.1793ZM167.093 13.0702C167.257 13.0666 167.421 13.063 167.586 13.0595L167.564 12.0597C167.4 12.0632 167.235 12.0668 167.071 12.0704L167.093 13.0702ZM171.547 12.9826C171.713 12.9797 171.878 12.9768 172.044 12.974L172.027 11.9742C171.861 11.977 171.695 11.9798 171.53 11.9827L171.547 12.9826ZM176.04 12.9147C176.207 12.9126 176.374 12.9105 176.542 12.9084L176.529 11.9085C176.362 11.9105 176.194 11.9126 176.027 11.9148L176.04 12.9147ZM180.521 12.8675C180.686 12.8661 180.851 12.8648 181.016 12.8635L181.008 11.8636C180.843 11.8648 180.678 11.8662 180.513 11.8675L180.521 12.8675ZM184.989 12.8408C185.155 12.8401 185.321 12.8396 185.488 12.839L185.484 11.839C185.318 11.8396 185.152 11.8401 184.985 11.8408L184.989 12.8408ZM189.492 12.8344C189.66 12.8345 189.827 12.8347 189.995 12.835L189.996 11.835C189.828 11.8347 189.661 11.8345 189.493 11.8344L189.492 12.8344ZM193.957 12.8484C194.122 12.8493 194.287 12.8503 194.453 12.8513L194.458 11.8513C194.293 11.8503 194.127 11.8494 193.962 11.8485L193.957 12.8484ZM198.434 12.8829C198.6 12.8846 198.767 12.8863 198.933 12.8881L198.944 11.8881C198.777 11.8864 198.61 11.8847 198.444 11.883L198.434 12.8829ZM202.943 12.9383C203.107 12.9407 203.271 12.9432 203.436 12.9457L203.451 11.9458C203.286 11.9433 203.122 11.9408 202.957 11.9384L202.943 12.9383ZM207.395 13.0134C207.56 13.0166 207.726 13.0198 207.892 13.023L207.911 12.0232C207.745 12.02 207.58 12.0168 207.414 12.0136L207.395 13.0134ZM211.877 13.1095C212.044 13.1134 212.211 13.1174 212.377 13.1214L212.401 12.1217C212.235 12.1177 212.068 12.1137 211.901 12.1097L211.877 13.1095ZM216.375 13.2265C216.539 13.2312 216.704 13.2359 216.868 13.2406L216.897 12.241C216.732 12.2363 216.568 12.2316 216.403 12.2269L216.375 13.2265ZM220.832 13.363C220.997 13.3684 221.163 13.3739 221.329 13.3794L221.362 12.38C221.196 12.3745 221.03 12.369 220.865 12.3635L220.832 13.363ZM225.316 13.5209C225.483 13.5271 225.649 13.5334 225.816 13.5398L225.854 12.5405C225.687 12.5341 225.52 12.5278 225.354 12.5216L225.316 13.5209ZM229.804 13.6997C229.969 13.7066 230.134 13.7136 230.299 13.7207L230.341 12.7216C230.176 12.7145 230.011 12.7075 229.847 12.7006L229.804 13.6997ZM234.263 13.8979C234.429 13.9057 234.594 13.9135 234.76 13.9213L234.807 12.9224C234.641 12.9146 234.475 12.9068 234.31 12.899L234.263 13.8979ZM238.747 14.1181C238.913 14.1266 239.08 14.1353 239.246 14.1439L239.298 13.1453C239.131 13.1366 238.965 13.128 238.798 13.1194L238.747 14.1181ZM243.228 14.359C243.393 14.3682 243.558 14.3775 243.723 14.3869L243.779 13.3885C243.614 13.3791 243.449 13.3698 243.284 13.3606L243.228 14.359ZM247.686 14.6194C247.851 14.6295 248.017 14.6396 248.183 14.6497L248.244 13.6516C248.078 13.6414 247.912 13.6313 247.747 13.6213L247.686 14.6194ZM252.166 14.9021C252.333 14.913 252.499 14.924 252.666 14.9349L252.732 13.9371C252.565 13.9261 252.398 13.9152 252.232 13.9043L252.166 14.9021ZM256.643 15.2057C256.808 15.2172 256.973 15.2288 257.137 15.2404L257.208 14.2429C257.043 14.2313 256.878 14.2197 256.713 14.2081L256.643 15.2057ZM261.098 15.5287C261.263 15.541 261.428 15.5535 261.594 15.5659L261.669 14.5688C261.503 14.5563 261.338 14.5438 261.172 14.5315L261.098 15.5287ZM265.573 15.8743C265.739 15.8876 265.905 15.9008 266.071 15.9142L266.151 14.9173C265.985 14.904 265.819 14.8907 265.652 14.8775L265.573 15.8743ZM270.046 16.2411C270.211 16.255 270.375 16.2689 270.539 16.2829L270.624 15.2865C270.459 15.2725 270.295 15.2585 270.13 15.2447L270.046 16.2411ZM274.495 16.6271C274.66 16.6419 274.826 16.6566 274.991 16.6714L275.08 15.6754C274.915 15.6606 274.749 15.6458 274.584 15.6311L274.495 16.6271ZM278.963 17.0362C279.129 17.0518 279.295 17.0674 279.461 17.0831L279.555 16.0875C279.389 16.0718 279.223 16.0562 279.057 16.0406L278.963 17.0362ZM283.434 17.4669C283.598 17.4832 283.762 17.4994 283.926 17.5157L284.025 16.5206C283.861 16.5043 283.696 16.488 283.532 16.4718L283.434 17.4669ZM287.876 17.9164C288.041 17.9335 288.206 17.9507 288.371 17.9678L288.474 16.9732C288.309 16.956 288.144 16.9389 287.979 16.9218L287.876 17.9164ZM292.335 18.3893C292.501 18.4073 292.666 18.4253 292.832 18.4433L292.94 17.4492C292.775 17.4311 292.609 17.4131 292.443 17.3951L292.335 18.3893ZM296.803 18.8849C296.967 18.9035 297.131 18.9221 297.295 18.9408L297.408 17.9472C297.244 17.9285 297.08 17.9099 296.916 17.8913L296.803 18.8849ZM301.237 19.3984C301.401 19.4178 301.566 19.4373 301.73 19.4569L301.848 18.4639C301.684 18.4443 301.519 18.4248 301.354 18.4053L301.237 19.3984ZM305.686 19.9355C305.851 19.9559 306.016 19.9763 306.182 19.9967L306.304 19.0043C306.139 18.9838 305.974 18.9634 305.808 18.9431L305.686 19.9355ZM310.151 20.4967C310.315 20.5177 310.479 20.5388 310.643 20.5599L310.77 19.5681C310.606 19.5469 310.442 19.5259 310.278 19.5048L310.151 20.4967ZM314.575 21.0748C314.74 21.0967 314.904 21.1186 315.068 21.1405L315.2 20.1493C315.036 20.1274 314.872 20.1054 314.707 20.0836L314.575 21.0748ZM319.013 21.6768C319.178 21.6995 319.342 21.7223 319.507 21.7452L319.645 20.7547C319.48 20.7318 319.315 20.709 319.15 20.6862L319.013 21.6768ZM323.465 22.3031C323.63 22.3267 323.795 22.3504 323.96 22.3742L324.103 21.3844C323.937 21.3606 323.772 21.3369 323.607 21.3132L323.465 22.3031ZM327.889 22.9478C328.052 22.972 328.216 22.9963 328.38 23.0207L328.527 22.0316C328.363 22.0072 328.199 21.9829 328.035 21.9586L327.889 22.9478ZM332.313 23.6151C332.478 23.6402 332.642 23.6655 332.806 23.6907L332.958 22.7024C332.794 22.6771 332.629 22.6518 332.465 22.6266L332.313 23.6151ZM336.751 24.307C336.915 24.3331 337.08 24.3592 337.245 24.3854L337.402 23.3978C337.237 23.3716 337.072 23.3454 336.907 23.3193L336.751 24.307ZM341.173 25.0193C341.336 25.046 341.5 25.0727 341.663 25.0995L341.825 24.1128C341.661 24.0859 341.498 24.0591 341.335 24.0324L341.173 25.0193ZM345.584 25.7525C345.747 25.7801 345.911 25.8078 346.075 25.8355L346.242 24.8495C346.078 24.8218 345.914 24.7941 345.75 24.7664L345.584 25.7525ZM350.006 26.5106C350.17 26.5391 350.334 26.5677 350.498 26.5963L350.67 25.6112C350.506 25.5826 350.341 25.5539 350.177 25.5254L350.006 26.5106ZM354.426 27.2915C354.589 27.3207 354.751 27.3499 354.914 27.3791L355.091 26.3949C354.928 26.3656 354.766 26.3364 354.603 26.3072L354.426 27.2915ZM358.821 28.0912C358.984 28.1212 359.147 28.1514 359.31 28.1816L359.492 27.1983C359.329 27.1681 359.166 27.1379 359.003 27.1078L358.821 28.0912ZM363.227 28.9159C363.39 28.947 363.553 28.978 363.717 29.0091L363.904 28.0268C363.74 27.9957 363.577 27.9646 363.413 27.9335L363.227 28.9159ZM367.642 29.7662C367.724 29.7821 367.805 29.7981 367.887 29.8141L368.079 28.8327C367.997 28.8167 367.915 28.8007 367.833 28.7847L367.642 29.7662Z" fill="white"/>
<g clip-path="url(#clip0_8037_46051)">
<path d="M188 22H190L195 13.5H200.5C201.33 13.5 202 12.83 202 12C202 11.17 201.33 10.5 200.5 10.5H195L190 2H188L190.5 10.5H185L183.5 8H182L183 12L182 16H183.5L185 13.5H190.5L188 22Z" fill="white"/>
</g>
<defs>
<clipPath id="clip0_8037_46051">
<rect width="24" height="24" fill="white" transform="matrix(0 1 -1 0 204 0)"/>
</clipPath>
</defs>
</svg>
