<svg width="62" height="62" viewBox="0 0 62 62" fill="none" xmlns="http://www.w3.org/2000/svg">
<g id="luggage_FILL0_wght300_GRAD0_opsz24 1">
<path id="Vector" d="M18.8769 52.9589C17.5927 52.9589 16.4933 52.5016 15.5788 51.587C14.6643 50.6725 14.207 49.5732 14.207 48.289V20.5679C14.207 19.3127 14.6467 18.2454 15.526 17.3661C16.4053 16.4868 17.4726 16.0471 18.7279 16.0471H23.8945V9.58876C23.8945 8.71938 24.1988 7.98042 24.8074 7.37187C25.4159 6.76328 26.1549 6.45898 27.0242 6.45898H34.973C35.8424 6.45898 36.5814 6.76328 37.1899 7.37187C37.7985 7.98042 38.1027 8.71938 38.1027 9.58876V16.0471H43.1203C44.4046 16.0471 45.5039 16.5043 46.4184 17.4188C47.333 18.3334 47.7902 19.4327 47.7902 20.7169V48.289C47.7902 49.5732 47.333 50.6725 46.4184 51.587C45.5039 52.5016 44.4046 52.9589 43.1203 52.9589V53.2569C43.1203 53.8895 42.8976 54.4285 42.4522 54.8739C42.0067 55.3194 41.4677 55.5422 40.8351 55.5422C40.2026 55.5422 39.6635 55.3194 39.2181 54.8739C38.7726 54.4285 38.5499 53.8895 38.5499 53.2569V52.9589H23.4474V53.2569C23.4474 53.8895 23.2246 54.4285 22.7792 54.8739C22.3337 55.3194 21.7947 55.5422 21.1621 55.5422C20.5296 55.5422 19.9906 55.3194 19.5451 54.8739C19.0996 54.4285 18.8769 53.8895 18.8769 53.2569V52.9589ZM18.8769 49.0839H43.1203C43.3522 49.0839 43.5427 49.0094 43.6917 48.8603C43.8408 48.7113 43.9153 48.5208 43.9153 48.289V20.7169C43.9153 20.4851 43.8408 20.2946 43.6917 20.1456C43.5427 19.9965 43.3522 19.922 43.1203 19.922H18.8769C18.6451 19.922 18.4546 19.9965 18.3056 20.1456C18.1565 20.2946 18.082 20.4851 18.082 20.7169V48.289C18.082 48.5208 18.1565 48.7113 18.3056 48.8603C18.4546 49.0094 18.6451 49.0839 18.8769 49.0839ZM22.6513 45.5069C23.0959 45.5069 23.4639 45.3615 23.7554 45.0706C24.0468 44.7797 24.1925 44.4118 24.1925 43.9669V25.039C24.1925 24.5941 24.0472 24.2263 23.7565 23.9354C23.4658 23.6444 23.0982 23.499 22.6536 23.499C22.2091 23.499 21.8411 23.6444 21.5496 23.9354C21.2582 24.2263 21.1125 24.5941 21.1125 25.039V43.9669C21.1125 44.4118 21.2578 44.7797 21.5485 45.0706C21.8391 45.3615 22.2068 45.5069 22.6513 45.5069ZM30.9975 45.5069C31.442 45.5069 31.81 45.3615 32.1015 45.0706C32.393 44.7797 32.5387 44.4118 32.5387 43.9669V25.039C32.5387 24.5941 32.3933 24.2263 32.1026 23.9354C31.812 23.6444 31.4443 23.499 30.9998 23.499C30.5552 23.499 30.1872 23.6444 29.8957 23.9354C29.6043 24.2263 29.4586 24.5941 29.4586 25.039V43.9669C29.4586 44.4118 29.6039 44.7797 29.8946 45.0706C30.1853 45.3615 30.5529 45.5069 30.9975 45.5069ZM39.3436 45.5069C39.7882 45.5069 40.1562 45.3615 40.4476 45.0706C40.7391 44.7797 40.8848 44.4118 40.8848 43.9669V25.039C40.8848 24.5941 40.7395 24.2263 40.4488 23.9354C40.1581 23.6444 39.7905 23.499 39.346 23.499C38.9014 23.499 38.5334 23.6444 38.2419 23.9354C37.9505 24.2263 37.8047 24.5941 37.8047 25.039V43.9669C37.8047 44.4118 37.9501 44.7797 38.2407 45.0706C38.5314 45.3615 38.899 45.5069 39.3436 45.5069ZM26.9746 16.0471H35.0227V9.53909H26.9746V16.0471Z" fill="#3A3D57"/>
</g>
</svg>
