<svg width="24" height="24" viewBox="0 0 24 24" fill="none" xmlns="http://www.w3.org/2000/svg">
<path d="M13.37 20.0501L15.38 15.3801L15.82 14.3401C15.9 14.1801 16.11 14.0401 16.29 14.0401L19.35 14.0401C20.31 14.0401 21.45 13.3301 21.89 12.4701C22.04 12.1701 22.04 11.8101 21.89 11.5101C21.45 10.6601 20.3 9.95006 19.34 9.95006L16.28 9.95006C16.1 9.95006 15.89 9.81006 15.81 9.65006L13.36 3.95006C13.1 3.32006 12.31 2.81006 11.63 2.81006L10.31 2.81006C9.46 2.81006 9.04 3.45006 9.38 4.24006L11.54 9.25006C11.71 9.64006 11.5 9.96006 11.07 9.96006L9.96 9.96006L8.16 9.96006C7.93 9.96006 7.6 9.83006 7.44 9.67006L5.11 7.35006C4.87 7.11006 4.4 7.00006 4.06 7.11006L2.7 7.56006C2.11 7.74006 1.83 8.41006 2.11 8.96006L4.11 11.3401C4.42 11.7001 4.42 12.2901 4.11 12.6501L2.11 15.0301C1.84 15.5801 2.11 16.2501 2.7 16.4501L4.06 16.9001C4.39 17.0101 4.87 16.9001 5.11 16.6601L7.44 14.3401C7.6 14.1701 7.93 14.0401 8.16 14.0401L11.07 14.0401C11.5 14.0401 11.7 14.3501 11.54 14.7501L9.38 19.7601C9.04 20.5501 9.46 21.1901 10.31 21.1901L11.63 21.1901C12.31 21.1901 13.1 20.6801 13.37 20.0501Z" fill="white"/>
</svg>
