<svg width="24" height="25" viewBox="0 0 24 25" fill="none" xmlns="http://www.w3.org/2000/svg">
<path opacity="0.6" d="M7.48001 18.9549L10.58 21.3549C10.98 21.7549 11.88 21.9549 12.48 21.9549H16.28C17.48 21.9549 18.78 21.0549 19.08 19.8549L21.48 12.5549C21.98 11.1549 21.08 9.95495 19.58 9.95495H15.58C14.98 9.95495 14.48 9.45495 14.58 8.75495L15.08 5.55495C15.28 4.65495 14.68 3.65495 13.78 3.35495C12.98 3.05495 11.98 3.45495 11.58 4.05495L7.48001 10.1549" stroke="white" stroke-width="1.5" stroke-miterlimit="10"/>
<path d="M2.38 18.9549V9.15488C2.38 7.75488 2.98 7.25488 4.38 7.25488H5.38C6.78 7.25488 7.38 7.75488 7.38 9.15488V18.9549C7.38 20.3549 6.78 20.8549 5.38 20.8549H4.38C2.98 20.8549 2.38 20.3549 2.38 18.9549Z" stroke="white" stroke-width="1.5" stroke-linecap="round" stroke-linejoin="round"/>
</svg>
