<svg width="24" height="25" viewBox="0 0 24 25" fill="none" xmlns="http://www.w3.org/2000/svg">
<path d="M8.5 19.605H8C4 19.605 2 18.605 2 13.605V8.60498C2 4.60498 4 2.60498 8 2.60498H16C20 2.60498 22 4.60498 22 8.60498V13.605C22 17.605 20 19.605 16 19.605H15.5C15.19 19.605 14.89 19.755 14.7 20.005L13.2 22.005C12.54 22.885 11.46 22.885 10.8 22.005L9.3 20.005C9.14 19.785 8.77 19.605 8.5 19.605Z" stroke="white" stroke-width="1.5" stroke-miterlimit="10" stroke-linecap="round" stroke-linejoin="round"/>
<path opacity="0.6" d="M15.9965 11.605H16.0054" stroke="white" stroke-width="2" stroke-linecap="round" stroke-linejoin="round"/>
<path opacity="0.6" d="M11.9955 11.605H12.0045" stroke="white" stroke-width="2" stroke-linecap="round" stroke-linejoin="round"/>
<path opacity="0.6" d="M7.99451 11.605H8.00349" stroke="white" stroke-width="2" stroke-linecap="round" stroke-linejoin="round"/>
</svg>
